<svg height="464pt" viewBox="0 -78 464.76434 464" width="464pt" xmlns="http://www.w3.org/2000/svg"><path d="m88.035156 308.382812c36.832032-.066406 69.734375-23.042968 82.472656-57.601562l35.417969 3.9375c9.449219 7.042969 22.003907 8.324219 32.679688 3.332031 10.675781-4.992187 17.742187-15.449219 18.394531-27.21875.652344-11.765625-5.214844-22.941406-15.273438-29.082031l77.316407-69.136719 6.1875 16c-38.667969 27.269531-49.054688 80.125-23.582031 119.996094 25.472656 39.875 77.796874 52.667969 118.792968 29.042969s56.164063-75.308594 34.441406-117.339844c-21.726562-42.035156-72.664062-59.550781-115.644531-39.769531l-32.335937-83.9375 11.054687-4.910157c3.179688-1.417968 5.082031-4.730468 4.695313-8.191406l-2.664063-24c-.449219-4.054687-3.875-7.121094-7.953125-7.121094h-24v-4c0-4.417968-3.582031-8-8-8h-38.664062c-11.042969 0-20 8.953126-20 20 0 11.046876 8.957031 20 20 20h38.664062c4.417969 0 8-3.582031 8-8v-4h16.800782l1.234374 11.0625-12.65625 5.601563c-3.894531 1.730469-5.746093 6.207031-4.21875 10.183594l9.007813 23.375-104.527344 69.503906-32.480469-66.398437h8.59375c11.390626-.222657 20.511719-9.523438 20.511719-20.917969s-9.121093-20.691407-20.511719-20.914063h-24.304687l-21.6875-4.265625c-8.679687-1.695312-17.570313 1.675781-22.945313 8.703125-5.371093 7.027344-6.292968 16.492188-2.378906 24.421875 3.910156 7.933594 11.984375 12.960938 20.828125 12.972657h24.089844l12.15625 24.863281-25.367187 36.574219c-32.246094-17.609376-72.042969-13.332032-99.8125 10.730468-27.769532 24.066406-37.660157 62.851563-24.8125 97.277344 12.851562 34.425781 45.738281 57.242188 82.480468 57.226562zm288-160c35.214844-.105468 65.367188 25.214844 71.347656 59.917969 5.980469 34.703125-13.957031 68.65625-47.175781 80.34375-33.21875 11.683594-70.023437-2.308593-87.085937-33.113281-17.066406-30.800781-9.410156-69.425781 18.117187-91.390625l10.703125 27.785156c.324219.839844.789063 1.621094 1.375 2.304688l15.304688 17.984375c-1.222656 2.550781-1.863282 5.339844-1.878906 8.167968 0 10.683594 8.664062 19.34375 19.347656 19.335938s19.335937-8.679688 19.324218-19.363281c-.015624-10.683594-8.691406-19.332031-19.378906-19.308594-1.777344.019531-3.546875.289063-5.253906.800781l-14.402344-16.96875-11.324218-29.394531c9.660156-4.664063 20.25-7.09375 30.980468-7.101563zm0 68.664063c1.84375 0 3.335938 1.492187 3.335938 3.335937 0 1.839844-1.492188 3.335938-3.335938 3.335938-1.839844 0-3.335937-1.496094-3.335937-3.335938.011719-1.839843 1.5-3.328124 3.335937-3.335937zm-138.664062-196.664063c0-2.210937 1.792968-4 4-4h28v8h-28c-2.207032 0-4-1.792968-4-4zm-125.335938 38.0625c.015625-3.980468 3.21875-7.21875 7.203125-7.269531.488281-.003906.976563.046875 1.453125.140625l22.457032 4.417969c.507812.101563 1.019531.152344 1.535156.152344h25.089844c2.636718.105469 4.722656 2.273437 4.722656 4.914062s-2.085938 4.8125-4.722656 4.917969h-50.472657c-4.011719-.003906-7.265625-3.257812-7.265625-7.273438zm45.113282 141.9375h-47.199219l24.34375-35.089843c10.925781 9.175781 18.882812 21.386719 22.855469 35.089843zm-61.113282 20c0 4.417969-3.582031 8-8 8-4.417968 0-8-3.582031-8-8 0-4.417968 3.582032-8 8-8 4.417969 0 8 3.582032 8 8zm15.59375-4h48.207032c.074218 1.335938.199218 2.648438.199218 4-.015625 4.363282-.429687 8.710938-1.238281 13l-48.128906-5.34375c1.402343-3.71875 1.734375-7.757812.960937-11.65625zm64.207032 0h18.601562c-2.796875 6.609376-3.144531 14.003907-.984375 20.847657l-18.746094-2.082031c.863281-4.875 1.308594-9.816407 1.328125-14.765626 0-1.351562-.140625-2.664062-.199218-4zm48.199218 28c-8.835937 0-16-7.164062-16-16 0-8.835937 7.164063-16 16-16 8.839844 0 16 7.164063 16 16 0 8.835938-7.160156 16-16 16zm80.105469-150.464843 8.753906 22.726562-89.21875 79.777344c-2.039062.007813-4.070312.210937-6.070312.609375l-16.839844-34.402344zm-140.535156 29.128906 37.824219 77.335937h-27.792969c-4.441407-18.996093-15.070313-35.976562-30.207031-48.28125zm-75.570313 25.335937c11.46875 0 22.761719 2.761719 32.9375 8.046876l-28.0625 40.457031c-10.074218-2.117188-20.375 2.421875-25.605468 11.285156-5.234376 8.859375-4.230469 20.074219 2.488281 27.867187 6.71875 7.796876 17.660156 10.441407 27.195312 6.574219l57.105469 6.34375c-14.285156 33.039063-50.777344 50.453125-85.445312 40.773438-34.671876-9.679688-56.867188-43.472657-51.972657-79.132813 4.890625-35.660156 35.367188-62.230468 71.359375-62.214844zm0 0"/><path d="m61.582031 190.382812-10.585937-12c-5.886719 5.175782-10.613282 11.535157-13.878906 18.664063l14.542968 6.671875c2.347656-5.085938 5.722656-9.628906 9.921875-13.335938zm0 0"/><path d="m88.035156 276.382812v-16c-22.078125-.027343-39.972656-17.921874-40-40h-16c.035156 30.914063 25.089844 55.964844 56 56zm0 0"/><path d="m338.699219 262.117188c5.4375 4.878906 11.785156 8.636718 18.671875 11.066406l5.328125-15.089844c-4.917969-1.738281-9.445313-4.425781-13.328125-7.910156zm0 0"/><path d="m376.035156 276.382812c30.914063-.035156 55.964844-25.085937 56-56h-16c-.023437 22.078126-17.917968 39.972657-40 40zm0 0"/></svg>