<svg height="464pt" viewBox="0 -80 464.6768 464" width="464pt" xmlns="http://www.w3.org/2000/svg"><path d="m80.167969 304.359375c28.246093.015625 54.40625-14.875 68.8125-39.171875 14.410156-24.296875 14.929687-54.390625 1.371093-79.171875l31.503907-18.398437-13.511719 63.046874c-.515625 2.367188.070312 4.835938 1.589844 6.722657 1.523437 1.882812 3.8125 2.976562 6.234375 2.972656h52.472656c10.328125 0 19.5-6.605469 22.765625-16.40625l35.304688-105.921875 11.34375-5.671875h26.695312l5.714844 12.875c-11.714844 7.710937-22.15625 17.199219-30.945313 28.125l-1.601562 2c-2.761719 3.453125-2.203125 8.488281 1.25 11.25 3.449219 2.761719 8.484375 2.203125 11.246093-1.25l1.601563-2c7.175781-8.941406 15.601563-16.800781 25.023437-23.335937l6.824219 15.34375c-36.898437 21.617187-50.359375 68.371093-30.613281 106.300781 19.75 37.929687 65.769531 53.710937 104.640625 35.878906 38.867187-17.828125 56.925781-63.007813 41.054687-102.714844-15.867187-39.710937-60.085937-60-100.539062-46.136719l-7.519531-16.917968c10.875-5.59375 22.542969-9.480469 34.601562-11.527344 2.875-.410156 5.300781-2.347656 6.339844-5.058594 1.039063-2.710937.527344-5.773437-1.339844-8-1.863281-2.226562-4.789062-3.265625-7.640625-2.71875-13.390625 2.273438-26.359375 6.550782-38.472656 12.6875l-24.207031-54.496094v-30.304687c0-3.667969-2.496094-6.867187-6.058594-7.757813l-26.175781-6.542968c-1.078125-9.40625-8.605469-16.769532-18.035156-17.636719-9.429688-.867187-18.171876 4.996094-20.953126 14.046875-2.777343 9.050781 1.171876 18.808594 9.460938 23.382812 8.289062 4.574219 18.652344 2.703126 24.824219-4.472656l20.9375 5.230469v20.800781l-105.257813 52.632813-40.253906-6.707031-3.746094-15 24.542969-19.640626c4.160156-3.328124 5.761719-8.917968 3.996094-13.945312-1.761719-5.023438-6.507813-8.390625-11.835938-8.390625h-67.039062c-3.445313 0-6.503907 2.207031-7.589844 5.472656-2.746094 8.214844-1.753906 17.214844 2.707031 24.636719 4.460938 7.421875 11.949219 12.515625 20.492188 13.941406l19.535156 3.253906 4.664062 18.640626c.769532 3.074218 3.277344 5.40625 6.398438 5.945312l39.746094 6.625-4.199219 19.597656-45.152344 26.335938c-23.890625-28.351563-64.132812-36.570313-97.230469-19.863282-33.097656 16.710938-50.375 53.96875-41.75 90.027344s40.894532 61.464844 77.972657 61.386719zm304-144c32.042969-.109375 59.265625 23.414063 63.800781 55.132813 4.535156 31.722656-15.003906 61.933593-45.792969 70.804687-30.792969 8.875-63.410156-6.308594-76.449219-35.578125-13.039062-29.269531-2.507812-63.671875 24.679688-80.628906l16.65625 37.472656c-8 8.160156-9.136719 20.835938-2.710938 30.289062 6.425782 9.453126 18.628907 13.0625 29.164063 8.628907 10.535156-4.433594 16.480469-15.683594 14.207031-26.886719-2.269531-11.203125-12.125-19.25-23.554687-19.234375-.898438.039063-1.792969.128906-2.679688.273437l-16.578125-37.296874c6.226563-1.972657 12.722656-2.976563 19.257813-2.976563zm0 56c4.417969 0 8 3.582031 8 8 0 4.421875-3.582031 8-8 8s-8-3.578125-8-8c0-4.417969 3.582031-8 8-8zm-116-192c-2.210938 0-4-1.789063-4-4 0-2.207031 1.789062-4 4-4 2.207031 0 4 1.792969 4 4 0 2.210937-1.792969 4-4 4zm-154.753907 45.859375c-1.074218-1.78125-1.722656-3.785156-1.902343-5.859375h50.253906l-19.398437 15.523437-19.527344-3.25c-3.929688-.65625-7.375-3-9.425782-6.414062zm153.058594 57.933594-30.25 90.738281c-1.085937 3.265625-4.140625 5.46875-7.582031 5.46875h-10.226563l20.617188-82.484375zm29.695313-31.792969c-1.242188 0-2.464844.289063-3.578125.839844l-64 32c-2.089844 1.046875-3.617188 2.953125-4.183594 5.21875l-22.488281 89.941406h-15.855469l21.121094-98.558594 100.800781-50.398437 8.367187 20.957031zm-216 64c17.859375.015625 34.894531 7.511719 46.96875 20.671875l-28.96875 16.929688c-13.578125-9.527344-32.125-7.460938-43.273438 4.828124-11.144531 12.285157-11.402343 30.945313-.597656 43.53125 10.800781 12.589844 29.285156 15.171876 43.121094 6.019532 13.835937-9.148438 18.695312-27.167969 11.339843-42.035156l27.769532-16.199219c13.609375 25.363281 8.609375 56.695312-12.21875 76.5625-20.828125 19.871093-52.359375 23.390625-77.054688 8.605469-24.695312-14.789063-36.484375-44.242188-28.804687-71.984376 7.679687-27.742187 32.933593-46.945312 61.71875-46.929687zm16 64c0 8.839844-7.164063 16-16 16-8.835938 0-16-7.160156-16-16 0-8.835937 7.164062-16 16-16 8.835937 0 16 7.164063 16 16zm0 0"/></svg>