<svg height="479pt" viewBox="0 -51 479.69922 479" width="479pt" xmlns="http://www.w3.org/2000/svg"><path d="m8 322.171875c4.417969 0 8-3.578125 8-8 .050781-30.128906 18.84375-57.042969 47.113281-67.46875l2.558594 7.566406c-25.875 9.582031-42.714844 34.648438-41.796875 62.226563s19.386719 51.46875 45.84375 59.308594c26.457031 7.835937 54.957031-2.140626 70.75-24.769532 15.792969-22.625 15.324219-52.820312-1.15625-74.949218l38.777344-32.464844 4.796875 15.625c-14.472657 11.898437-18.660157 32.296875-10.042969 48.933594 8.621094 16.636718 27.695312 24.984374 45.765625 20.027343 4.648437 10.496094 8.414063 19.277344 8.421875 19.300781 1.277344 2.925782 4.164062 4.808594 7.351562 4.800782h16c4.417969 0 8-3.582032 8-8 0-4.417969-3.582031-8-8-8h-10.757812c-1.601562-3.703125-4-9.230469-6.664062-15.199219 13.589843-10.394531 19.023437-28.308594 13.503906-44.503906-5.519532-16.195313-20.761719-27.058594-37.871094-26.992188-3.859375.054688-7.691406.675781-11.371094 1.847657l-5.078125-16.589844 63.34375-21.648438c16.945313-5.792968 34.707031-8.839844 52.617188-9.015625l49.238281-.496093c2.785156 10.398437 6.097656 20.71875 9.65625 30.910156-26.734375 16.804687-42.96875 46.152344-43 77.730468 0 4.417969 3.582031 8 8 8s8-3.582031 8-8c.015625-24.871093 12.210938-48.152343 32.640625-62.328124 1.6875 4.300781 3.535156 8.527343 5.359375 12.796874-26.847656 20.117188-33.441406 57.628907-15.070312 85.699219 18.375 28.066407 55.390624 37.03125 84.570312 20.472657 29.175781-16.554688 40.46875-52.929688 25.796875-83.097657s-50.257813-43.746093-81.296875-31.015625c-1.785156-4.210937-3.617188-8.394531-5.265625-12.65625 9.269531-3.882812 19.21875-5.878906 29.265625-5.871094 4.417969 0 8-3.582031 8-8 0-4.421874-3.582031-8-8-8-11.878906 0-23.640625 2.320313-34.632812 6.820313-2.136719-6.238281-4.085938-12.535156-5.925782-18.878906.183594 0 .367188.058593.558594.058593h24c4.417969 0 8-3.582031 8-8v-32c0-4.421874-3.582031-8-8-8h-24c-3.710938.023438-7.367188.921876-10.671875 2.613282l-27.113281-140.128906c-.722656-3.761719-4.015625-6.484376-7.847656-6.484376h-19.839844c-3.894532-11.023437-15.164063-17.632812-26.683594-15.65625-11.523438 1.976563-19.941406 11.964844-19.941406 23.65625 0 11.6875 8.417968 21.675782 19.941406 23.652344 11.519531 1.976563 22.789062-4.632812 26.683594-15.652344h13.242187l28.636719 148c-.25 1.316407-.386719 2.65625-.40625 4 .03125 1.144532.148438 2.285157.34375 3.414063l-44.398438.449219c-19.605468.195312-39.050781 3.527344-57.601562 9.871094l-62.847656 21.480468-35.257813-115.199218h15.761719c13.253906 0 24-10.746094 24-24 0-13.257813-10.746094-24-24-24h-57.894531c-12.199219.011718-22.085938 9.894531-22.105469 22.09375v9.535156c.019531 13.445312 10.914062 24.339844 24.359375 24.355468h15.640625c1.238281.011719 2.460938-.261718 3.574219-.800781l5.289062-2.640625 36.144531 118.0625-26.121093 21.863282c-6.726563-6.050782-14.347657-11.03125-22.589844-14.765626l3.632813-9.761718h13.316406c4.421875 0 8-3.582032 8-8 0-4.417969-3.578125-8-8-8h-107.046875c-4.417969 0-8 3.582031-8 8 0 4.417968 3.582031 8 8 8h21.351562l2.402344 7.199218c-34.757813 12.652344-57.9101562 45.675782-57.953125 82.664063 0 4.421875 3.582031 8 8 8zm224.59375-32.550781c0 13.253906-10.746094 24-24 24-13.257812 0-24-10.746094-24-24s10.742188-24 24-24c13.253906 0 24 10.746094 24 24zm183.40625-23.449219c23.316406-.070313 43.332031 16.570313 47.519531 39.507813 4.183594 22.9375-8.664062 45.578124-30.5 53.746093-21.839843 8.167969-46.394531-.484375-58.285156-20.539062-11.894531-20.054688-7.710937-45.746094 9.929687-60.992188 3.558594 7.472657 7.3125 14.863281 11.296876 22.117188l.304687.554687c-6.261719 9.09375-5.507813 21.289063 1.824219 29.546875 7.332031 8.253907 19.355468 10.441407 29.125 5.296875 9.769531-5.144531 14.769531-16.292968 12.113281-27.011718s-12.285156-18.238282-23.328125-18.226563c-2.230469.03125-4.445312.378906-6.574219 1.035156-3.878906-7.089843-7.554687-14.304687-11.027343-21.648437 5.601562-2.230469 11.574218-3.378906 17.601562-3.386719zm0 40c4.417969 0 8 3.582031 8 8 0 4.421875-3.582031 8-8 8s-8-3.578125-8-8c0-4.417969 3.582031-8 8-8zm-128-273.820313c-4.417969 0-8-3.582031-8-8 0-4.421874 3.582031-8 8-8s8 3.578126 8 8c0 4.417969-3.582031 8-8 8zm88 144h16v16h-16c-4.417969 0-8-3.582031-8-8 0-4.421874 3.582031-8 8-8zm-249.886719-80h-13.753906c-4.613281-.007812-8.351563-3.742187-8.359375-8.355468v-9.535156c0-3.371094 2.730469-6.105469 6.105469-6.109376h57.894531c4.417969 0 8 3.578126 8 8 0 4.417969-3.582031 8-8 8h-22.230469c-2.109375-1.824218-5.035156-2.371093-7.660156-1.433593-2.625.933593-4.546875 3.207031-5.03125 5.953125zm-47.417969 146.492188c3.085938-.425781 6.191407-.648438 9.304688-.671875 5.242188.007813 10.464844.578125 15.585938 1.707031l-2.816407 7.582032c-6.40625-1.308594-12.972656-1.621094-19.472656-.925782zm9.304688 63.328125c4.417969 0 8 3.582031 8 8 0 4.421875-3.582031 8-8 8s-8-3.578125-8-8c0-4.417969 3.582031-8 8-8zm2.734375-27.75-4.117187-12.175781c.460937 0 .917968-.074219 1.382812-.074219 2.367188.019531 4.730469.214844 7.070312.585937zm19.570313-6.710937c1.855468.984374 3.644531 2.085937 5.359374 3.300781l-9.601562 8zm25.695312 42.460937c.023438 24.253906-18.046875 44.714844-42.117188 47.6875-24.066406 2.976563-46.574218-12.472656-52.453124-36.003906-5.875-23.53125 6.722656-47.746094 29.363281-56.441407l7.695312 22.742188c-11.019531 4.757812-16.828125 16.921875-13.605469 28.480469 3.222657 11.5625 14.488282 18.964843 26.378907 17.332031 11.890625-1.628906 20.746093-11.792969 20.738281-23.796875-.019531-4.339844-1.230469-8.59375-3.503906-12.292969l18.542968-15.527344c5.824219 8.105469 8.960938 17.839844 8.960938 27.820313zm-1.488281-54.925781-6.265625 5.230468c-3.800782-3.066406-7.941406-5.6875-12.34375-7.816406l2.824218-7.582031c5.6875 2.683594 10.992188 6.101563 15.785157 10.167969zm-62.070313-34.894532h38.398438l-1.679688 4.535157c-11.648437-3.054688-23.820312-3.535157-35.671875-1.410157zm0 0"/></svg>