<svg height="456pt" viewBox="0 -22 456.02728 456" width="456pt" xmlns="http://www.w3.org/2000/svg"><path d="m271.996094 343.648438c-11.042969 0-20 8.953124-20 20 0 11.046874 8.957031 20 20 20 11.046875 0 20-8.953126 20-20 0-11.046876-8.953125-20-20-20zm0 24c-2.207032 0-4-1.792969-4-4 0-2.210938 1.792968-4 4-4 2.210937 0 4 1.789062 4 4 0 2.207031-1.789063 4-4 4zm0 0"/><path d="m320.980469 194.535156 6.210937-48.109375c9.839844-3.046875 16.613282-12.0625 16.796875-22.363281.183594-10.300781-6.269531-19.554688-16-22.941406v-20.527344l4.425781 2.214844c1.113282.554687 2.339844.84375 3.582032.839844h40c13.257812 0 24-10.746094 24-24v-27.671876c-.007813-9.398437-4.152344-18.320312-11.328125-24.390624-7.171875-6.070313-16.65625-8.679688-25.925781-7.136719l-47.097657 7.847656c-13.515625 2.234375-27.195312 3.355469-40.894531 3.351563h-38.753906c-15.460938 0-28 12.535156-28 28 0 15.464843 12.539062 28 28 28h44v33.472656c-9.433594 3.289062-15.824219 12.101562-16.019532 22.09375-.199218 9.988281 5.84375 19.046875 15.140626 22.707031l-2.238282 17.390625-41.601562-4.160156c-23.394532-2.328125-46.941406-2.71875-70.398438-1.167969l-72.386718 4.800781 11.363281-61.6875c.425781-2.335937-.199219-4.738281-1.71875-6.5625-1.515625-1.828125-3.765625-2.882812-6.140625-2.886718h-32c-3.855469 0-7.160156 2.753906-7.863282 6.542968l-56 304c-.433593 2.335938.195313 4.746094 1.714844 6.570313 1.519532 1.828125 3.773438 2.886719 6.148438 2.886719h32c3.855468 0 7.164062-2.753907 7.867187-6.542969l28.621094-155.378907 148.3125 122.539063c3.726563 20.449219 20.210937 36.164063 40.8125 38.914063s40.628906-8.09375 49.589844-26.851563l121.597656-40.519531c9.738281-3.210938 16.945313-11.492188 18.777344-21.582032 1.835937-10.089843-1.992188-20.375-9.976563-26.808593zm-17.359375 133.113282c.128906-.3125.234375-.632813.3125-.960938l10.953125-84.871094 84.703125 70.59375-86.265625 26.949219c-2.589844-4.394531-5.867188-8.347656-9.703125-11.710937zm-14.800782-8.878907c-4.953124-1.867187-10.179687-2.890625-15.46875-3.035156l12.636719-97.988281 14.320313 11.925781zm-47.925781 8.398438-155.929687-123.457031.152344-.847657 78.535156-4.800781c24.066406-1.59375 48.222656-1.058594 72.191406 1.601562l32.882812 3.65625 2.695313 2.246094-14.519531 112.554688c-5.867188 1.949218-11.304688 5.015625-16.007813 9.03125zm47.519531-128.238281 1.191407-9.203126 14.390625 11.609376-1.253906 9.511718zm3.589844-27.832032 3.027344-23.449218h15.863281l-4.496093 35.054687zm-68.007812-131.449218c0-6.628907 5.375-12 12-12h38.753906c14.582031-.003907 29.136719-1.207032 43.519531-3.601563l47.097657-7.855469c4.636718-.773437 9.382812.535156 12.972656 3.574219s5.660156 7.507813 5.65625 12.210937v27.671876c0 4.417968-3.582032 8-8 8h-38.109375l-30.3125-15.160157c-.066407 0-.144531 0-.214844-.046875-1.050781-.507812-2.195313-.78125-3.363281-.792968h-68c-6.625 0-12-5.371094-12-12zm78.113281 28 9.886719 4.945312v27.054688h-16v-32zm-14.113281 48h32c4.417968 0 8 3.582031 8 8 0 4.417968-3.582032 8-8 8h-32c-4.417969 0-8-3.582032-8-8 0-4.417969 3.582031-8 8-8zm-122.046875 58.289062c22.570312-1.496094 45.226562-1.121094 67.738281 1.117188l41.140625 4.113281-1.125 8.746093c-.265625-.089843-.53125-.160156-.800781-.21875l-35.265625-3.917968c-24.894531-2.757813-49.984375-3.3125-74.976563-1.648438l-74.535156 4.527344 1.410156-7.625zm-132.617188 221.710938h-15.734375l53.054688-288h15.746094zm48.34375-174.121094 148.945313 117.90625c-2.3125 3.9375-4.046875 8.191406-5.152344 12.621094l-145.664062-120.335938zm190.320313 174.121094c-17.671875 0-32-14.328126-32-32 0-17.671876 14.328125-32 32-32 17.675781 0 32 14.328124 32 32 0 17.671874-14.324219 32-32 32zm159.769531-67.015626-111.878906 37.296876c0-.761719.109375-1.511719.109375-2.28125 0-3.132813-.3125-6.257813-.925782-9.328126l99.328126-31.039062c2.796874-.871094 4.894531-3.203125 5.46875-6.078125.570312-2.875-.472657-5.832031-2.726563-7.707031l-103.832031-86.503906 1.273437-9.824219 116.953125 94.679687c3.429688 2.765625 5.074219 7.183594 4.289063 11.519532-.785157 4.335937-3.878907 7.894531-8.058594 9.28125zm0 0"/></svg>