<svg height="448pt" viewBox="0 -78 448.03338 448" width="448pt" xmlns="http://www.w3.org/2000/svg"><path d="m152.039062 257.636719c17.675782 0 32-14.328125 32-32s-14.324218-32-32-32c-17.671874 0-32 14.328125-32 32s14.328126 32 32 32zm0-48c8.835938 0 16 7.164062 16 16 0 8.835937-7.164062 16-16 16-8.835937 0-16-7.164063-16-16 0-8.835938 7.164063-16 16-16zm0 0"/><path d="m328.039062 25.636719h-40c-2.121093 0-4.15625.84375-5.65625 2.34375l-21.65625 21.65625h-220.6875c-4.417968 0-8 3.582031-8 8v.800781c-18.640624 3.785156-32.039062 20.175781-32.039062 39.199219 0 19.023437 13.398438 35.414062 32.039062 39.199219v.800781c0 4.417969 3.582032 8 8 8h43.058594l19.621094 39.257812c-20.261719 24.171875-20.257812 59.398438.007812 83.566407 20.265626 24.171874 54.953126 30.316406 82.289063 14.582031 27.335937-15.738281 39.4375-48.820313 28.714844-78.484375-10.726563-29.660156-41.1875-47.351563-72.265625-41.96875l-8.480469-16.953125h127.742187l21.65625 21.65625c1.5 1.5 3.535157 2.34375 5.65625 2.34375h40c4.417969 0 8-3.582031 8-8v-128c0-4.417969-3.582031-8-8-8zm-121.75 104-6.488281-25.9375c-.890625-3.5625-4.089843-6.0625-7.761719-6.0625h-80c-3.671874 0-6.871093 2.5-7.757812 6.0625l-6.488281 25.9375h-17.753907v-64h16v14.398437h16v-14.398437h16v14.398437h16v-14.398437h16v14.398437h16v-14.398437h16v14.398437h16v-14.398437h16v64zm-190.25-32c.011719-10.167969 6.417969-19.230469 16-22.632813v45.265625c-9.582031-3.402343-15.988281-12.464843-16-22.632812zm32 32v-64h16v64zm152 96c0 26.511719-21.488281 48-48 48-26.507812 0-48-21.488281-48-48 0-26.507813 21.492188-48 48-48 26.5.027343 47.972657 21.5 48 48zm-74.128906-58.398438c-3.847656 1.738281-7.519531 3.847657-10.957031 6.300781l-13.96875-27.902343h14.113281zm-5.871094-37.601562h-5.75l4-16h67.503907l4 16zm120-64h16v64h-16zm80 88h-28.6875l-19.3125-19.3125v-73.375l16-16v27.085937h16v-30.398437h16zm0 0"/><path d="m423.03125 5.085938 21.292969-5.070313 3.707031 15.566406-21.292969 5.070313zm0 0"/><path d="m387.539062 13.535156 21.292969-5.070312 3.703125 15.5625-21.289062 5.070312zm0 0"/><path d="m352.050781 21.980469 21.292969-5.070313 3.707031 15.566406-21.292969 5.070313zm0 0"/><path d="m424.003906 59.898438 21.191406-2.023438 1.519532 15.917969-21.191406 2.023437zm0 0"/><path d="m353.363281 66.625 21.191407-2.015625 1.515624 15.917969-21.195312 2.015625zm0 0"/><path d="m388.683594 63.261719 21.195312-2.015625 1.511719 15.921875-21.191406 2.015625zm0 0"/><path d="m423.035156 190.195312 3.703125-15.566406 21.296875 5.066406-3.707031 15.566407zm0 0"/><path d="m387.539062 181.738281 3.703126-15.566406 21.292968 5.066406-3.703125 15.566407zm0 0"/><path d="m352.058594 173.296875 3.703125-15.5625 21.292969 5.066406-3.703126 15.566407zm0 0"/><path d="m353.359375 128.648438 1.515625-15.921876 21.191406 2.015626-1.515625 15.917968zm0 0"/><path d="m424 135.378906 1.519531-15.917968 21.191407 2.023437-1.519532 15.917969zm0 0"/><path d="m388.679688 132.019531 1.515624-15.917969 21.191407 2.011719-1.515625 15.921875zm0 0"/><path d="m288.039062 88.011719h16v16h-16zm0 0"/></svg>