<svg height="478pt" viewBox="0 -103 478.88295 478" width="478pt" xmlns="http://www.w3.org/2000/svg"><path d="m99.992188 268.714844c37.199218.042968 71.339843-20.589844 88.601562-53.546875 17.257812-32.957031 14.769531-72.769531-6.449219-103.324219l8.847657-7.199219 30.542968 61.078125c-8.195312 6.207032-11.511718 16.953125-8.234375 26.695313 3.273438 9.746093 12.410157 16.304687 22.691407 16.296875.734374 0 1.4375-.152344 2.160156-.214844l6.246094 18.742188c1.089843 3.269531 4.148437 5.472656 7.59375 5.472656h16c4.417968 0 8-3.582032 8-8 0-4.417969-3.582032-8-8-8h-10.234376l-4.96875-14.902344c5.078126-4.957031 7.6875-11.917969 7.125-18.992188-.566406-7.074218-4.25-13.527343-10.050781-17.617187l.648438-1.464844c15.984375-35.941406 35.769531-70.066406 59.023437-101.789062l10-3.320313 9.390625 21.902344c-48.5625 25.625-68.210937 85.035156-44.503906 134.5625s82.300781 71.488281 132.71875 49.738281 74.652344-79.4375 54.894531-130.667969c-19.757812-51.230468-76.457031-77.707031-128.421875-59.96875l-11.621093-27.078124v-22.402344c0-4.417969-3.582032-8-8-8h-16.410157c-1.820312-9.324219-9.917969-16.109375-19.417969-16.269532-9.503906-.164062-17.824218 6.339844-19.964843 15.601563-2.136719 9.257813 2.488281 18.753906 11.097656 22.773437 8.609375 4.023438 18.859375 1.476563 24.589844-6.105468h12.105469v10.226562l-117.769532 39.09375-19.03125-42.863281 20-4.992187c8.339844-2.078126 13.8125-10.058594 12.746094-18.585938-1.066406-8.53125-8.335938-14.917969-16.929688-14.878906h-71.015624c-2.773438 0-5.351563 1.433594-6.808594 3.792968-1.460938 2.359376-1.59375 5.304688-.351563 7.785157l9.328125 18.648437c4.445313 9.019532 13.636719 14.734375 23.695313 14.726563 2.210937 0 4.414062-.269531 6.558593-.800781l7-1.75 20.65625 46.476562-12.078124 9.882812c-31.53125-32.785156-81.21875-40.144531-120.898438-17.910156-39.683594 22.234375-59.34375 68.457032-47.847656 112.464844 11.5 44.007812 51.261718 74.703125 96.746094 74.683594zm276-184c42.371093-.074219 78.195312 31.367187 83.609374 73.394531 5.417969 42.027344-21.261718 81.527344-62.269531 92.199219-41.007812 10.671875-83.554687-10.816406-99.308593-50.152344-15.757813-39.335938.195312-84.253906 37.230468-104.839844l7.953125 18.535156c-28.730469 17.332032-39.042969 54.003907-23.558593 83.769532 15.484374 29.765625 51.4375 42.371094 82.117187 28.792968 30.683594-13.578124 45.527344-48.664062 33.910156-80.140624-11.617187-31.476563-45.699219-48.503907-77.84375-38.894532l-7.914062-18.472656c8.414062-2.765625 17.214843-4.183594 26.074219-4.191406zm8 84c0 4.417968-3.582032 8-8 8-4.417969 0-8-3.582032-8-8 0-4.417969 3.582031-8 8-8 4.417968 0 8 3.582031 8 8zm-8 24c13.253906 0 24-10.746094 24-24s-10.746094-24-24-24c-.707032 0-1.378907.152344-2.066407.207031l-9.71875-22.679687c24.128907-6.140626 48.9375 7.230468 57.078125 30.761718 8.136719 23.527344-3.109375 49.371094-25.875 59.449219-22.765625 10.082031-49.457031 1.039063-61.40625-20.800781-11.953125-21.84375-5.175781-49.199219 15.585938-62.9375l9.777344 22.816406c-7.023438 6.78125-9.230469 17.144531-5.574219 26.199219 3.652343 9.050781 12.433593 14.980469 22.199219 14.984375zm-88-168c-2.210938 0-4-1.789063-4-4 0-2.207032 1.789062-4 4-4 2.207031 0 4 1.792968 4 4 0 2.210937-1.792969 4-4 4zm-135.464844 4.617187c-4.824219 1.238281-9.855469-1.074219-12.058594-5.542969l-3.535156-7.074218h58.074218c.503907-.011719.9375.359375 1 .863281s-.265624.972656-.761718 1.082031zm75.464844 155.382813c0-4.417969 3.582031-8 8-8 4.417968 0 8 3.582031 8 8 0 4.417968-3.582032 8-8 8-4.417969 0-8-3.582032-8-8zm7.902343-27.480469-.328125.746094-30.664062-61.265625 79.335937-26.398438c-18.632812 27.5-34.808593 56.585938-48.34375 86.917969zm-135.902343-72.519531c22.398437-.007813 43.867187 8.957031 59.605468 24.898437l-15.605468 12.757813c-24.605469-23.386719-63.148438-23.613282-88.027344-.519532-24.875 23.097657-27.503906 61.554688-6.003906 87.820313 21.5 26.269531 59.714843 31.292969 87.273437 11.472656 27.558594-19.820312 34.953125-57.648437 16.890625-86.390625l15.609375-12.796875c21.457031 32.019531 18.367187 74.53125-7.492187 103.113281-25.859376 28.582032-67.851563 35.898438-101.855469 17.742188-34-18.152344-51.28125-57.117188-41.917969-94.507812 9.367188-37.390626 42.976562-63.605469 81.523438-63.589844zm48 84c.074218 22.683594-15.691407 42.347656-37.847657 47.203125-22.160156 4.859375-44.703125-6.40625-54.125-27.042969s-3.160156-45.046875 15.023438-58.609375c18.1875-13.558594 43.371093-12.589844 60.460937 2.328125l-19.136718 15.664062c-3.71875-2.300781-8.003907-3.527343-12.375-3.542968-13.257813 0-24 10.746094-24 24s10.742187 24 24 24c13.253906 0 24-10.746094 24-24-.027344-2.757813-.535157-5.488282-1.496094-8.070313l19.152344-15.671875c4.15625 7.222656 6.34375 15.410156 6.34375 23.742188zm-40 0c0 4.417968-3.582032 8-8 8-4.417969 0-8-3.582032-8-8 0-4.417969 3.582031-8 8-8 4.417968 0 8 3.582031 8 8zm0 0"/></svg>