<svg height="464pt" viewBox="-20 0 464 464.32755" width="464pt" xmlns="http://www.w3.org/2000/svg"><path d="m258.191406 160.121094h29.957032c1.125-.011719 2.234374-.257813 3.257812-.730469.277344-.15625.546875-.332031.800781-.527344.679688-.378906 1.296875-.855469 1.839844-1.414062.078125-.089844.199219-.121094.277344-.21875l28.625-34.398438 1.601562 2.566407c-14.539062 13.796874-16.296875 36.347656-4.066406 52.226562 12.226563 15.878906 34.480469 19.941406 51.53125 9.410156s23.378906-32.246094 14.652344-50.289062c-8.722657-18.042969-29.675781-26.570313-48.519531-19.746094l-9.710938-15.535156-6.847656-18.65625c-2.328125-6.296875-8.328125-10.480469-15.039063-10.480469h-10.402343c-4.417969 0-8 3.582031-8 8s3.582031 8 8 8h10.402343l5.886719 16h-49.671875l-1.710937-8.945313h8.574218c4.417969 0 8-3.582031 8-8 0-4.417968-3.582031-8-8-8h-29.480468c-4.417969 0-8 3.582032-8 8 0 4.417969 3.582031 8 8 8h4.609374l2.839844 14.816407-7.609375 9.457031c-5.574219-3.25-11.90625-4.976562-18.359375-5.015625-19.664062-.03125-36.007812 15.144531-37.4375 34.757813-1.425781 19.613281 12.546875 36.992187 32.007813 39.8125 19.460937 2.820312 37.792969-9.878907 41.992187-29.089844zm92.503906-29.480469c11.863282-.003906 21.484376 9.609375 21.488282 21.472656 0 11.863281-9.613282 21.484375-21.480469 21.484375-11.863281.003906-21.480469-9.613281-21.480469-21.476562.007813-4.539063 1.46875-8.953125 4.167969-12.601563l10.527344 16.808594c2.34375 3.753906 7.289062 4.898437 11.042969 2.554687 3.757812-2.34375 4.902343-7.289062 2.558593-11.042968l-10.539062-16.855469c1.226562-.222656 2.46875-.335937 3.714843-.34375zm-109.402343 12.925781c.082031.175782.144531.371094.226562.554688h-.664062zm14.855469-18.4375 15.296874 19.023438h-13.253906c-1.105468-4.984375-3.222656-9.6875-6.226562-13.816406zm48-4.800781-15.910157 19.152344-15.382812-19.152344zm-82.519532 53.261719c-7.769531.152344-15.015625-3.910156-18.945312-10.613282-3.929688-6.707031-3.929688-15.015624 0-21.71875 3.929687-6.707031 11.175781-10.769531 18.945312-10.617187 2.816406 0 5.605469.558594 8.199219 1.648437l-11.910156 14.816407c-1.929688 2.398437-2.3125 5.691406-.984375 8.46875 1.332031 2.777343 4.136718 4.546875 7.214844 4.546875h17.371093c-3.265625 8.121094-11.136719 13.449218-19.890625 13.46875zm0 0"/><path d="m288.148438 236.328125c20.125 0 39.785156-6.066406 56.410156-17.410156 2.441406-1.578125 3.839844-4.355469 3.640625-7.257813-.195313-2.902344-1.953125-5.472656-4.585938-6.707031-2.632812-1.234375-5.730469-.941406-8.085937.765625-28.613282 19.496094-66.246094 19.46875-94.824219-.070312-2.359375-1.65625-5.425781-1.917969-8.027344-.683594-2.605469 1.234375-4.34375 3.773437-4.554687 6.644531-.207032 2.875 1.144531 5.640625 3.539062 7.238281 14.011719 9.585938 30.230469 15.445313 47.128906 17.03125 3.109376.300782 6.230469.449219 9.359376.449219zm0 0"/><path d="m250.628906 60.328125c1.125 0 2.238282-.242187 3.265625-.703125 21.324219-9.5 45.636719-9.722656 67.136719-.617188 4.0625 1.730469 8.761719-.160156 10.496094-4.222656 1.730468-4.066406-.160156-8.765625-4.226563-10.496094-25.605469-10.84375-54.558593-10.574218-79.957031.742188-3.441406 1.546875-5.335938 5.289062-4.542969 8.976562.792969 3.691407 4.054688 6.324219 7.828125 6.320313zm0 0"/><path d="m103.199219 432.328125h72.949219c4.417968 0 8-3.582031 8-8v-40.128906c-.003907-6.046875-3.4375-11.5625-8.863282-14.234375-5.421875-2.671875-11.890625-2.03125-16.6875 1.652344l-60.28125 46.398437c-2.6875 2.09375-3.757812 5.664063-2.65625 8.894531 1.101563 3.226563 4.128906 5.402344 7.539063 5.417969zm64.949219-48.128906v32.128906h-41.527344zm0 0"/><path d="m312.148438 360.328125v-90.175781c69.425781-12.351563 117.925781-75.671875 111.765624-145.914063-6.160156-70.242187-64.9375-124.1562498-135.449218-124.238281-70.511719-.0820312-129.417969 53.695312-135.738282 123.921875-6.324218 70.230469 42.03125 133.660156 111.421876 146.171875v146.234375h-8c-13.253907 0-24 10.746094-24 24v16c0 4.417969 3.582031 8 8 8h96c4.417968 0 8-3.582031 8-8v-16c0-13.253906-10.742188-24-24-24h-8zm-16-40h-16v-16h16zm-16 16h16v16h-16zm0 32h16v16h-16zm16-96v16h-16v-16zm-127.46875-147.257813c6.222656-65.976562 64.753906-114.417968 130.734374-108.195312 65.976563 6.222656 114.421876 64.75 108.203126 130.730469-6.21875 65.976562-64.742188 114.425781-130.722657 108.210937-65.925781-6.339844-114.3125-64.796875-108.214843-130.746094zm79.46875 315.257813c0-4.417969 3.582031-8 8-8h8v16h-16zm32 8v-16h16v16zm40-16c4.417968 0 8 3.582031 8 8v8h-16v-16zm-40-16v-16h16v16zm0 0"/><path d="m64.148438 280.328125c4.417968 0 8-3.582031 8-8v-16h8c13.257812 0 24-10.746094 24-24s-10.742188-24-24-24h-16c-4.417969 0-8 3.582031-8 8v56c0 4.417969 3.582031 8 8 8zm24-48c0 4.417969-3.582032 8-8 8h-8v-16h8c4.417968 0 8 3.582031 8 8zm0 0"/><path d="m.476562 233.566406c-3.707031 39.574219 25.351563 74.667969 64.921876 78.402344 2.304687.210938 4.601562.320312 6.894531.328125 2.625-.007813 5.25-.15625 7.855469-.449219v79.734375l-38.636719 29.730469c-8.140625 6.265625-11.390625 17.019531-8.078125 26.746094 3.308594 9.726562 12.441406 16.269531 22.714844 16.269531h136c13.257812 0 24-10.746094 24-24v-56.128906c0-18.238281-10.363282-34.890625-26.726563-42.949219-16.359375-8.054688-35.878906-6.117188-50.335937 4.996094l-42.9375 33.035156v-71.050781c33.714843-11.914063 53.574218-46.761719 46.644531-81.839844-6.929688-35.074219-38.550781-59.753906-74.261719-57.953125-35.707031 1.800781-64.6875 29.535156-68.054688 65.128906zm148.363282 125.371094c9.625-7.402344 22.617187-8.695312 33.511718-3.328125 10.894532 5.363281 17.792969 16.449219 17.796876 28.589844v56.128906c0 4.417969-3.582032 8-8 8h-136c-3.421876-.003906-6.464844-2.183594-7.566407-5.421875-1.105469-3.242188-.023437-6.824219 2.6875-8.914062zm-112.394532-161.753906c10-8.316406 22.59375-12.867188 35.601563-12.855469 1.773437 0 3.566406.085937 5.359375.246094 26.597656 2.507812 47.722656 23.453125 50.457031 50.027343 2.730469 26.578126-13.691406 51.382813-39.222656 59.246094-25.535156 7.863282-53.066406-3.402344-65.761719-26.910156-12.691406-23.507812-7.011718-52.710938 13.566406-69.746094zm0 0"/><path d="m48.148438 328.328125h16v16h-16zm0 0"/><path d="m48.148438 360.328125h16v16h-16zm0 0"/></svg>