<svg height="476pt" viewBox="0 -86 476.03956 476" width="476pt" xmlns="http://www.w3.org/2000/svg"><path d="m42.171875 181.523438c4.042969 1.785156 8.769531-.042969 10.554687-4.085938 1.84375-4.195312 4.199219-8.140625 7.015626-11.753906 1.828124-2.25 2.300781-5.3125 1.226562-8.007813-1.070312-2.695312-3.515625-4.597656-6.390625-4.976562-2.875-.375-5.730469.832031-7.460937 3.160156-3.621094 4.648437-6.652344 9.722656-9.03125 15.113281-1.789063 4.042969.042968 8.765625 4.085937 10.550782zm0 0"/><path d="m103.980469 256.019531c-28.796875.101563-52.941407-21.734375-55.71875-50.398437-.441407-4.398438-4.363281-7.601563-8.761719-7.160156-4.394531.441406-7.601562 4.363281-7.160156 8.757812 3.574218 36.855469 34.613281 64.933594 71.640625 64.800781 4.417969 0 8-3.582031 8-8s-3.582031-8-8-8zm0 0"/><path d="m371.980469 96.019531c-11.152344.019531-22.226563 1.839844-32.800781 5.390625l-3.199219-14.269531v-23.578125h-.0625c-.0625-1.421875-.507813-2.804688-1.28125-4l-7.710938-11.542969h55.085938c5.035156.003907 9.273437 3.761719 9.882812 8.757813.613281 4.996094-2.597656 9.664062-7.480469 10.882812l-18.402343 4.601563c-2.832031.636719-5.09375 2.757812-5.914063 5.539062-.824218 2.785157-.070312 5.792969 1.960938 7.867188 2.03125 2.070312 5.027344 2.878906 7.828125 2.113281l18.398437-4.59375c12.804688-3.113281 21.246094-15.324219 19.636719-28.402344s-12.757813-22.878906-25.933594-22.796875h-70.007812c-2.949219 0-5.664063 1.625-7.054688 4.226563-1.390625 2.601562-1.238281 5.757812.398438 8.214844l13.375 20.0625-133.742188 7.429687-11.28125-27.582031 27.457031-3.433594c10.675782-1.433594 18.429688-10.878906 17.757813-21.628906-.667969-10.753906-9.535156-19.160156-20.308594-19.2578128h-86.601562c-3.234375 0-6.152344 1.9492188-7.390625 4.9374998-1.238282 2.992188-.550782 6.429688 1.734375 8.71875l21.800781 21.792969c7.074219 7.015625 16.636719 10.953125 26.601562 10.949219.796876 0 1.597657-.09375 2.445313-.148438l13.441406 32.855469-20.234375 27.789062c-37.960937-18.914062-83.605468-12.878906-115.351562 15.246094-31.742188 28.128906-43.226563 72.714844-29.019532 112.679688 14.210938 39.960937 51.261719 67.292968 93.636719 69.070312 42.378907 1.773438 81.585938-22.359375 99.089844-60.996094 5.136719 3.328126 11.125 5.101563 17.246094 5.105469 1.609375-.039062 3.214843-.199219 4.800781-.480469l12.359375 20.601563c1.441406 2.402344 4.039063 3.871094 6.839844 3.878906h16c4.417969 0 8-3.582031 8-8s-3.582031-8-8-8h-11.472657l-8.925781-14.886719c11.394531-8.71875 15.5-24.011718 10-37.265624l26.757813-33.449219c-12.753906 42.964843 3.445312 89.265625 40.207031 114.902343 36.757813 25.640626 85.804687 24.84375 121.714844-1.96875 35.910156-26.8125 50.605469-73.613281 36.464843-116.144531-14.136718-42.527343-53.929687-71.210937-98.746093-71.1875zm-52-15.542969v4.734376l-84.496094 105.601562c-.855469-.6875-1.746094-1.324219-2.671875-1.914062l-41.441406-101.277344zm-180.542969-56.320312-8.144531-8.136719h67.289062c1.457031 0 2.824219.703125 3.679688 1.882813.851562 1.183594 1.089843 2.703125.632812 4.085937-.546875 1.664063-2.007812 2.863281-3.746093 3.070313l-41.839844 5.234375c-6.585938.816406-13.175782-1.449219-17.871094-6.136719zm38.296875 72.390625 35.847656 87.714844c-2.25.160156-4.476562.566406-6.640625 1.207031-3.949218-28.328125-19.445312-53.753906-42.808594-70.25zm-51.089844 95.929687c-1.710937-5.191406-5.140625-9.636718-9.726562-12.609374l37.78125-51.765626c22.054687 15.492188 35.742187 40.28125 37.113281 67.199219-.488281.574219-.992188 1.144531-1.441406 1.75zm-22.664062-.457031c4.417969 0 8 3.582031 8 8s-3.582031 8-8 8-8-3.582031-8-8 3.582031-8 8-8zm0 96c-36.007813 0-68.378907-21.933593-81.730469-55.375-13.347656-33.441406-4.976562-71.640625 21.132812-96.4375 26.109376-24.792969 64.691407-31.179687 97.398438-16.125l-41.144531 56.378907c-11.417969 2.0625-19.726563 12.003906-19.730469 23.609374 0 11.605469 8.300781 21.550782 19.71875 23.621094 11.417969 2.070313 22.683594-4.324218 26.753906-15.191406l57.96875 4.136719c-.949218 5.695312-.023437 11.542969 2.632813 16.671875-12.417969 35.1875-45.683594 58.71875-83 58.710937zm118.855469-68.121093c-2.3125-3.695313-7.164063-4.859376-10.902344-2.613282-3.738282 2.25-4.988282 7.074219-2.808594 10.855469l1.785156 2.976563c-6.734375-2.296876-11.128906-8.777344-10.765625-15.882813.359375-7.105469 5.382813-13.109375 12.316407-14.710937 6.929687-1.605469 14.082031 1.582031 17.527343 7.804687 3.441407 6.222656 2.34375 13.976563-2.695312 18.996094zm100.953124-113.839844.375 1.707031c-1.015624.527344-2.039062 1.0625-3.039062 1.597656zm48.191407 181.960937c-39.765625-.003906-74.582031-26.695312-84.90625-65.101562-10.324219-38.402344 6.414062-78.957031 40.820312-98.898438 5.230469 21.25 14.402344 41.332031 27.039063 59.199219-8.003906 8.167969-9.136719 20.847656-2.703125 30.304688 6.433593 9.453124 18.644531 13.054687 29.179687 8.605468 10.535156-4.449218 16.464844-15.714844 14.175782-26.917968-2.292969-11.203126-12.167969-19.234376-23.605469-19.191407-.800781 0-1.535157.160157-2.3125.230469-12.976563-17.628906-22.171875-37.75-27.007813-59.101562 33.015625-11.695313 69.824219-2.6875 93.707032 22.929687 23.882812 25.621094 30.292968 62.96875 16.316406 95.082031-13.976563 32.117188-45.675782 52.878906-80.703125 52.859375zm-6.902344-91.800781c.300781.34375.574219.722656.878906 1.074219 2.910157 3.320312 7.964844 3.652343 11.289063.742187.613281-.578125 1.128906-1.25 1.527344-1.992187.753906 1.191406 1.171874 2.566406 1.207031 3.976562 0 4.417969-3.582031 8-8 8s-8-3.582031-8-8c.03125-1.339843.40625-2.648437 1.097656-3.800781zm0 0"/><path d="m371.980469 124.019531c-4.417969 0-8 3.582031-8 8s3.582031 8 8 8c30.796875-.097656 56.632812 23.210938 59.6875 53.855469.410156 4.085938 3.847656 7.195312 7.953125 7.199219.265625 0 .535156 0 .800781-.039063 2.113281-.214844 4.058594-1.265625 5.398437-2.914062 1.339844-1.652344 1.96875-3.769532 1.746094-5.886719-3.878906-38.804687-36.585937-68.324219-75.585937-68.214844zm0 0"/><path d="m437.78125 219.042969c-4.070312-1.714844-8.765625.191406-10.480469 4.265625-1.890625 4.445312-4.308593 8.648437-7.199219 12.519531-2.652343 3.535156-1.933593 8.546875 1.597657 11.199219 3.535156 2.652344 8.550781 1.933594 11.203125-1.597656 3.652344-4.90625 6.703125-10.230469 9.078125-15.867188.839843-1.949219.871093-4.15625.082031-6.128906-.789062-1.976563-2.328125-3.554688-4.28125-4.390625zm0 0"/></svg>