<svg height="480pt" viewBox="0 -8 480.00163 480" width="480pt" xmlns="http://www.w3.org/2000/svg"><path d="m320.136719 80.066406v-16h-32.269531c-1.027344-4.949218-2.988282-9.652344-5.777344-13.867187l17.273437-18.015625-11.546875-11.078125-17.078125 17.816406c-4.453125-2.902344-9.441406-4.886719-14.671875-5.832031v-33.089844h-16v33.449219c-4.671875 1.015625-9.121094 2.863281-13.136718 5.457031l-18.3125-17.601562-11.070313 11.632812 18.023437 17.269531c-2.808593 4.21875-4.777343 8.9375-5.808593 13.898438h-33.761719v16h33.601562c.972657 4.941406 2.871094 9.652343 5.601563 13.886719l-17.394531 18.136718 11.554687 11.078125 17.015625-17.75c4.15625 2.808594 8.808594 4.804688 13.710938 5.878907v32.800781h16v-32.472657c5.222656-.945312 10.199218-2.925781 14.648437-5.824218l17.816407 17.089844 11.070312-11.554688-17.535156-16.796875c2.941406-4.386719 4.976562-9.320313 5.984375-14.503906zm-88.296875-24.664062c9.382812-9.355469 24.5625-9.355469 33.945312 0 3.046875 3.074218 5.199219 6.925781 6.214844 11.132812v11.632813c-2.226562 9.390625-9.976562 16.460937-19.535156 17.808593h-7.304688c-5.039062-.734374-9.707031-3.066406-13.320312-6.65625-9.335938-9.378906-9.335938-24.539062 0-33.917968zm0 0"/><path d="m474.867188 176.800781c-3.089844-1.179687-6.589844-.335937-8.800782 2.121094l-35 38.886719-17.785156-15.558594c-1.605469-1.410156-3.707031-2.117188-5.839844-1.96875-2.128906.152344-4.113281 1.148438-5.503906 2.765625l-45.601562 53.210937h-9.855469c-13.269531-8.835937-30.074219-10.46875-44.800781-4.359374l-13.679688-21.929688v-11.28125c0-3.15625-.933594-6.242188-2.6875-8.871094l-6.398438-9.542968h29.085938c2.210938 0 4 1.789062 4 4 0 2.207031-1.789062 4-4 4h-4c-4.417969 0-8 3.582031-8 8 0 4.417968 3.582031 8 8 8h4c11.046875 0 20-8.953126 20-20 0-11.046876-8.953125-20-20-20h-29.046875c-5.898437 0-11.320313 3.246093-14.101563 8.449218-2.785156 5.203125-2.480468 11.511719.789063 16.421875l6.402344 9.542969v5.601562h-67.746094l-4.296875-6.550781c8.660156-4.484375 16.039062-11.089843 21.449219-19.203125l1.230469-1.855468c1.625-2.457032 1.765624-5.605469.371093-8.199219-1.398437-2.59375-4.105469-4.210938-7.050781-4.207031h-44c-11.042969 0-20 8.953124-20 20 0 11.046874 8.957031 20 20 20h1.378906c3.679688-.035157 7.351563-.421876 10.957032-1.152344l6.152343 9.273437-12.199219 19.511719c-14.726562-6.101562-31.527343-4.460938-44.800781 4.367188h-21.488281v-16h16c2.628906.003906 5.089844-1.285157 6.585938-3.445313 1.496093-2.15625 1.835937-4.914063.910156-7.371094l-24-64c-1.164063-3.128906-4.152344-5.207031-7.496094-5.207031-3.339844 0-6.328125 2.078125-7.496094 5.207031l-24 64c-.921875 2.457031-.582031 5.214844.914063 7.371094 1.496093 2.160156 3.957031 3.449219 6.582031 3.445313h16v16h-56v-32h16c2.496094 0 4.847656-1.164063 6.359375-3.144532 1.515625-1.980468 2.019531-4.554687 1.363281-6.960937l-24-88c-.949218-3.484375-4.109375-5.902344-7.722656-5.902344-3.609375 0-6.773438 2.417969-7.71875 5.902344l-24 88c-.65625 2.40625-.152344 4.980469 1.363281 6.960937 1.511719 1.980469 3.863281 3.144532 6.355469 3.144532h16v32h-16c-4.417969 0-8 3.582031-8 8v191.863281c0 4.417969 3.582031 8 8 8h464c4.417969 0 8-3.582031 8-8v-271.863281c.003906-3.316407-2.039062-6.285157-5.132812-7.472657zm-302.867188 31.472657c-2.207031 0-4-1.792969-4-4 0-2.210938 1.792969-4 4-4h25.976562c-7.144531 5.203124-15.757812 8.003906-24.597656 8zm-68-17.226563 12.457031 33.226563h-24.910156zm-72-32.375 13.53125 49.601563h-27.058594zm432 46.441406v41.519531l-20.902344-18.289062zm-13.292969 51.199219h-32.746093l14.402343-16zm-41.90625-36.695312 11.542969 10.121093-23.902344 26.566407h-19.046875zm-88.800781 44.65625c15.304688-.078126 28.546875 10.617187 31.6875 25.59375 3.144531 14.976562-4.683594 30.09375-18.726562 36.171874-14.042969 6.078126-30.425782 1.433594-39.191407-11.105468-8.765625-12.542969-7.5-29.519532 3.03125-40.621094l16.375 26.199219c2.347657 3.757812 7.289063 4.902343 11.046875 2.558593 3.753906-2.34375 4.898438-7.289062 2.554688-11.046874l-16.335938-26.132813c3.085938-1.03125 6.308594-1.578125 9.558594-1.617187zm-40-16.9375 5.601562 8.90625h-11.121093zm-24.429688 8.90625h-31.128906l-10-16h51.160156zm-15.570312 24.933593-5.597656-8.902343h11.199218zm-32.71875 7.097657c-.949219-5.636719-2.90625-11.058594-5.777344-16h14.058594l10 16zm-1.71875-32h-11.160156l5.597656-8.9375zm-22.402344 18.03125c3.707032 3.929687 6.359375 8.738281 7.707032 13.96875h-16.464844zm-13.597656-8.414063-16.335938 26.132813c-1.546874 2.464843-1.628906 5.578124-.222656 8.121093 1.410156 2.546875 4.089844 4.128907 6.996094 4.128907h30.867188c-4.1875 16.058593-19.976563 26.238281-36.332032 23.425781-16.355468-2.816407-27.832031-17.691407-26.40625-34.226563 1.425782-16.535156 15.277344-29.222656 31.871094-29.199218 3.25.042968 6.472656.585937 9.554688 1.617187zm294.4375 62.382813h-64v16h64v103.863281h-448v-103.863281h64v-16h-64v-56h102.496094c-10.46875 17.941406-8.109375 40.597656 5.824218 56h-12.320312v16h64v-2.800782c16.386719-5.835937 28.34375-20.058594 31.28125-37.199218h32.71875c.703125-.003907 1.398438-.097657 2.074219-.28125.222656-.0625.429687-.183594.65625-.261719.425781-.144531.839843-.320313 1.238281-.53125.226562-.144531.441406-.300781.648438-.46875.351562-.242188.679687-.507813.984374-.800781.191407-.191407.34375-.417969.519532-.625.238281-.253907.460937-.519532.664062-.800782l17.65625-28.238281h14.054688c-7.179688 12.328125-8.480469 27.222656-3.546875 40.609375 4.933593 13.390625 15.585937 23.875 29.050781 28.597656v2.800782h64v-16h-12.320312c13.9375-15.402344 16.292968-38.058594 5.824218-56h102.496094zm0 0"/><path d="m330.511719 93.113281c-7.574219 8.296875-11.328125 19.390625-10.351563 30.582031 2.417969 21.007813 20.363282 36.765626 41.503906 36.441407h76.671876c21.144531.324219 39.089843-15.433594 41.503906-36.441407 1.832031-20.488281-12.179688-39.023437-32.390625-42.855468-3.585938-23.433594-23.742188-40.742188-47.449219-40.742188s-43.863281 17.308594-47.445312 40.742188c-8.476563 1.613281-16.207032 5.917968-22.042969 12.273437zm37.488281-4.976562c0-17.671875 14.328125-32 32-32 17.675781 0 32 14.328125 32 32 0 4.417969 3.582031 8 8 8 6.746094 0 13.175781 2.835937 17.722656 7.8125 4.546875 4.980469 6.792969 11.640625 6.183594 18.355469-1.65625 12.761718-12.703125 22.199218-25.570312 21.832031h-76.671876c-12.875.382812-23.941406-9.058594-25.597656-21.832031-.609375-6.71875 1.636719-13.386719 6.191406-18.367188 4.554688-4.976562 10.996094-7.808594 17.742188-7.800781 4.417969 0 8-3.582031 8-8zm0 0"/><path d="m48 96.136719h80c15.960938.035156 29.5-11.710938 31.71875-27.519531 2.21875-15.804688-7.5625-30.824219-22.917969-35.183594-5.25-7.628906-13.003906-13.183594-21.917969-15.695313-7.925781-13.242187-23.410156-19.957031-38.492187-16.699219-15.082031 3.257813-26.410156 15.765626-28.164063 31.097657h-.226562c-17.671875 0-32 14.328125-32 32s14.328125 32 32 32zm0-48h8c4.417969 0 8-3.582031 8-8v-4c.050781-9.394531 6.632812-17.488281 15.820312-19.453125 9.1875-1.960938 18.503907 2.730468 22.390626 11.285156 1.085937 2.425781 3.308593 4.152344 5.925781 4.609375 7.0625 1.242187 13.183593 5.601563 16.664062 11.871094 1.195313 2.136719 3.300781 3.613281 5.722657 4 8.132812 1.398437 13.855468 8.765625 13.203124 16.992187-.65625 8.226563-7.472656 14.601563-15.726562 14.695313h-80c-8.835938 0-16-7.164063-16-16 0-8.835938 7.164062-16 16-16zm0 0"/><path d="m208 328.273438h64v16h-64zm0 0"/></svg>