<svg height="458pt" viewBox="-43 0 458 458.66447" width="458pt" xmlns="http://www.w3.org/2000/svg"><path d="m140.507812 189.722656c3.125.984375 6.378907 1.484375 9.65625 1.488282 16.75 0 30.671876-12.902344 31.949219-29.601563 1.277344-16.699219-10.519531-31.570313-27.074219-34.121094-16.550781-2.550781-32.277343 8.078125-36.089843 24.386719-3.808594 16.3125 5.585937 32.804688 21.558593 37.847656zm2.222657-44.71875c7.835937-4.078125 17.496093-1.03125 21.574219 6.804688 4.082031 7.832031 1.039062 17.492187-6.792969 21.578125-7.832031 4.082031-17.492188 1.046875-21.582031-6.785157-1.984376-3.761718-2.382813-8.160156-1.105469-12.21875 1.277343-4.054687 4.125-7.433593 7.90625-9.378906zm0 0"/><path d="m277.851562 124.652344c14.355469-.011719 26.941407-9.582032 30.796876-23.410156 3.855468-13.824219-1.96875-28.527344-14.246094-35.960938-12.28125-7.4375-28.007813-5.789062-38.472656 4.03125-10.46875 9.824219-13.117188 25.414062-6.476563 38.140625 5.5 10.59375 16.457031 17.230469 28.398437 17.199219zm-15.28125-36.800782c2.292969-7.28125 9.410157-11.929687 17-11.101562 7.585938.832031 13.53125 6.902344 14.199219 14.507812.667969 7.601563-4.125 14.621094-11.453125 16.757813-7.328125 2.140625-15.144531-1.195313-18.671875-7.964844-1.972656-3.757812-2.359375-8.152343-1.074219-12.199219zm0 0"/><path d="m328.761719 30.949219c3.414062 2.808593 8.457031 2.320312 11.265625-1.089844s2.324218-8.453125-1.085938-11.265625c-10.242187-8.445312-22.128906-14.671875-34.90625-18.277344-2.753906-.796875-5.726562-.058594-7.785156 1.933594-2.0625 1.996094-2.898438 4.941406-2.191406 7.71875.707031 2.78125 2.847656 4.96875 5.609375 5.738281 10.652343 3.003907 20.5625 8.195313 29.09375 15.242188zm0 0"/><path d="m314.796875 163.621094c-3.921875 2.039062-5.441406 6.871094-3.402344 10.789062 2.042969 3.921875 6.875 5.441406 10.792969 3.402344 46.976562-24.535156 65.230469-82.464844 40.800781-129.496094-1.277343-2.613281-3.871093-4.328125-6.773437-4.476562-2.90625-.152344-5.660156 1.285156-7.203125 3.75-1.539063 2.46875-1.617188 5.574218-.207031 8.117187 20.351562 39.195313 5.140624 87.46875-34.007813 107.914063zm0 0"/><path d="m105.949219 337.105469c-16.785157-5.074219-34.527344 4.304687-39.789063 21.03125-5.261718 16.726562 3.917969 34.574219 20.585938 40.019531 3.125.980469 6.375 1.484375 9.648437 1.488281 15.8125.015625 29.261719-11.519531 31.664063-27.144531 2.398437-15.628906-6.976563-30.664062-22.0625-35.394531zm5.644531 35.328125c-2.292969 7.28125-9.40625 11.929687-16.996094 11.101562-7.585937-.828125-13.535156-6.902344-14.203125-14.503906-.667969-7.605469 4.128907-14.621094 11.457031-16.761719 7.328126-2.136719 15.144532 1.195313 18.671876 7.964844 1.972656 3.761719 2.359374 8.15625 1.070312 12.199219zm0 0"/><path d="m47.921875 431.347656c-2.273437-1.773437-5.324219-2.183594-7.984375-1.078125-2.664062 1.105469-4.523438 3.558594-4.875 6.417969-.347656 2.863281.871094 5.691406 3.1875 7.402344 7.945312 6.019531 16.777344 10.769531 26.175781 14.082031 2.707031.996094 5.742188.460937 7.941407-1.40625 2.199218-1.867187 3.226562-4.773437 2.683593-7.605469-.542969-2.835937-2.570312-5.15625-5.304687-6.078125-7.835938-2.757812-15.199219-6.71875-21.824219-11.734375zm0 0"/><path d="m51.988281 282.492188c-47.023437 24.488281-65.289062 82.464843-40.800781 129.488281 1.277344 2.613281 3.871094 4.324219 6.773438 4.476562 2.902343.148438 5.660156-1.285156 7.199218-3.753906 1.542969-2.464844 1.621094-5.574219.210938-8.117187-20.429688-39.191407-5.203125-87.523438 34-107.933594 3.757812-2.121094 5.15625-6.835938 3.164062-10.664063-1.992187-3.824219-6.65625-5.382812-10.546875-3.519531zm0 0"/><path d="m214.425781 331.621094c13.816407 4.355468 28.835938-1.113282 36.617188-13.332032 7.777343-12.21875 6.382812-28.140624-3.40625-38.816406-9.792969-10.675781-25.53125-13.445312-38.378907-6.75-11.472656 5.980469-18.214843 18.285156-17.085937 31.175782 1.132813 12.890624 9.914063 23.828124 22.253906 27.722656zm-5.636719-35.328125c2.09375-6.660157 8.257813-11.191407 15.238282-11.203125 1.628906.007812 3.246094.257812 4.800781.746094 6.914063 2.164062 11.507813 8.707031 11.199219 15.945312-.304688 7.238281-5.4375 13.367188-12.511719 14.941406-7.070313 1.570313-14.320313-1.804687-17.664063-8.230468-1.96875-3.761719-2.351562-8.15625-1.0625-12.199219zm0 0"/><path d="m129.941406 296.003906c-11.460937 4.90625-23.777344 7.511719-36.242187 7.671875-13.210938.558594-25.929688 5.171875-36.421875 13.214844-20.929688 15.960937-29.871094 43.160156-22.496094 68.425781 5.304688 18.46875 18.628906 33.578125 36.289062 41.152344 17.660157 7.574219 37.792969 6.808594 54.828126-2.082031 8.460937-4.367188 15.828124-10.589844 21.554687-18.199219 7.1875-10.054688 16.316406-18.570312 26.847656-25.039062 5.25-3.082032 10.648438-5.894532 16.183594-8.433594 11.335937-4.917969 23.542969-7.519532 35.902344-7.648438 29.335937-1.09375 54.167969-21.988281 60.265625-50.703125 3.980468-18.882812-.71875-38.554687-12.800782-53.601562-4.738281-5.871094-10.503906-10.832031-17.015624-14.644531-2.496094-2.886719-5.273438-5.507813-8.296876-7.832032-8.5625-6.140625-15.832031-13.90625-21.398437-22.851562-2.601563-4.4375-5.007813-9.070313-7.160156-13.75-2.667969-6.019532-4.46875-12.382813-5.351563-18.902344 4.109375-3.839844 8.625-7.226562 13.460938-10.097656 5.210937-3.054688 10.648437-5.886719 16.1875-8.433594 11.332031-4.894531 23.53125-7.476562 35.878906-7.597656 29.34375-1.089844 54.191406-21.988282 60.289062-50.714844 3.984376-18.878906-.714843-38.554688-12.800781-53.597656-16.476562-20.53125-43.890625-28.800782-68.96875-20.800782-12.605469 3.988282-23.675781 11.765626-31.703125 22.273438-7.269531 10.125-16.460937 18.722656-27.050781 25.292969-5.242187 3.078125-10.632813 5.890625-16.160156 8.425781-11.460938 4.902344-23.773438 7.503906-36.238281 7.664062-13.207032.5625-25.921876 5.175782-36.414063 13.214844-20.933594 15.960938-29.875 43.160156-22.496094 68.425782 4.808594 16.433593 15.953125 30.285156 30.980469 38.496093l4.234375 2.726563c8.476563 6.097656 15.667969 13.804687 21.167969 22.679687 2.628906 4.460938 5.03125 9.050781 7.199218 13.753907 3.34375 7.648437 5.367188 15.808593 5.984376 24.136718-3.703126 3.355469-7.71875 6.339844-12 8.917969-5.289063 3.097656-10.726563 5.90625-16.238282 8.457031zm-26.035156-123.671875c-4.027344-14.152343-1.34375-29.367187 7.28125-41.285156 8.628906-11.921875 22.242188-19.222656 36.945312-19.820313 14.550782-.226562 28.917969-3.324218 42.269532-9.109374 5.976562-2.746094 11.890625-5.824219 17.601562-9.144532 12.394532-7.628906 23.164063-17.628906 31.6875-29.425781 13.609375-17.867187 37.789063-23.910156 58.203125-14.542969 20.414063 9.367188 31.601563 31.636719 26.933594 53.609375-4.558594 21.558594-23.214844 37.246094-45.242187 38.039063-14.472657.191406-28.761719 3.285156-42.023438 9.09375-6.015625 2.761718-11.890625 5.820312-17.597656 9.167968-7.191406 4.320313-13.789063 9.550782-19.632813 15.570313-.199219.175781-.386719.367187-.5625.566406-4.058593 4.109375-7.847656 8.476563-11.34375 13.082031-13.273437 17.574219-36.808593 23.863282-57.078125 15.246094-13.335937-5.714844-23.410156-17.109375-27.441406-31.046875zm48.050781 50.773438c19.421875-.5 37.554688-9.828125 49.253907-25.34375.074218-.09375.152343-.175781.222656-.269531 1.066406 3.726562 2.402344 7.371093 4 10.902343 2.402344 5.160157 5.035156 10.257813 7.898437 15.152344 2.871094 4.835937 6.242188 9.355469 10.054688 13.488281-6.28125.0625-12.519531 1.0625-18.503907 2.976563-12.609374 3.976562-23.691406 11.742187-31.734374 22.238281-.386719.511719-.800782.929688-1.167969 1.425781-1.230469-5.445312-3.015625-10.746093-5.328125-15.824219-2.402344-5.289062-5.105469-10.398437-7.921875-15.199218-2.023438-3.34375-4.289063-6.53125-6.773438-9.546875zm33.917969 48.875c13.609375-17.871094 37.792969-23.914063 58.207031-14.542969 20.417969 9.367188 31.605469 31.644531 26.929688 53.613281-4.574219 21.546875-23.207031 37.222657-45.214844 38.039063-14.472656.191406-28.757813 3.285156-42.007813 9.097656-6.019531 2.761719-11.890624 5.820312-17.601562 9.167969-12.359375 7.527343-23.085938 17.460937-31.535156 29.207031-13.277344 17.574219-36.800782 23.875-57.082032 15.289062-20.675781-8.769531-32.511718-30.703124-28.480468-52.800781 4.027344-22.097656 22.839844-38.445312 45.28125-39.351562 14.554687-.226563 28.917968-3.324219 42.273437-9.113281 5.992188-2.757813 11.902344-5.832032 17.597657-9.152344 12.367187-7.648438 23.109374-17.65625 31.609374-29.453125zm0 0"/></svg>