<svg height="396pt" viewBox="0 -12 396.3868 396" width="396pt" xmlns="http://www.w3.org/2000/svg"><path d="m128.003906 372.71875c3.742188-.003906 6.984375-2.605469 7.796875-6.261719.8125-3.652343-1.015625-7.382812-4.40625-8.976562-11.722656-5.484375-22.882812-12.09375-33.328125-19.734375-3.566406-2.609375-8.574218-1.832032-11.183594 1.734375-2.609374 3.566406-1.832031 8.574219 1.738282 11.183593 11.285156 8.242188 23.339844 15.375 36 21.304688 1.058594.496094 2.210937.75 3.382812.75zm0 0"/><path d="m16.003906 176.199219c-.097656-51.628907 19.867188-101.273438 55.679688-138.460938 3.058594-3.191406 2.957031-8.253906-.230469-11.3125-3.191406-3.0625-8.253906-2.957031-11.3125.230469-80.1875 83.574219-80.1875 215.515625 0 299.089844 3.058594 3.1875 8.121094 3.289062 11.3125.230468 3.1875-3.058593 3.289063-8.125.230469-11.3125-35.8125-37.1875-55.777344-86.835937-55.679688-138.464843zm0 0"/><path d="m371.203125 356.578125c5.015625-.003906 9.914063-1.492187 14.078125-4.28125 1.363281-.894531 2.628906-1.929687 3.777344-3.082031.152344-.152344.257812-.335938.402344-.488282 8.894531-9.394531 9.265624-23.984374.863281-33.820312l-47.816407-55.425781c1.03125-1.535157 1.488282-3.382813 1.296876-5.222657-.199219-1.988281.539062-3.953124 2-5.3125 1.382812-1.320312 3.332031-1.867187 5.199218-1.457031l18.992188 3.457031c3.671875.675782 7.324218-1.277343 8.800781-4.703124 2.667969-6.210938 4.976563-12.566407 6.917969-19.042969 1.070312-3.566407-.460938-7.398438-3.695313-9.246094l-16.761719-9.554687c-2.242187-1.269532-3.441406-3.816407-2.996093-6.355469.445312-2.539063 2.441406-4.523438 4.980469-4.953125l19-3.289063c3.675781-.632812 6.425781-3.71875 6.632812-7.441406.191406-3.375.3125-6.765625.3125-10.183594 0-3.414062-.121094-6.808593-.3125-10.175781-.207031-3.722656-2.957031-6.808594-6.632812-7.441406l-19.039063-3.238282c-2.535156-.4375-4.523437-2.421874-4.972656-4.957031-.445313-2.535156.746093-5.078125 2.980469-6.355469l16.761718-9.550781c3.234375-1.847656 4.765625-5.679687 3.695313-9.25-1.941407-6.472656-4.25-12.828125-6.921875-19.039062-1.476563-3.429688-5.128906-5.382813-8.800782-4.703125l-18.988281 3.457031c-2.535156.460937-5.082031-.71875-6.371093-2.949219-1.289063-2.226562-1.039063-5.023437.625-6.988281l12.480468-14.742187c2.410156-2.84375 2.535156-6.976563.304688-9.960938-4.078125-5.429688-8.457032-10.625-13.121094-15.5625-2.554688-2.710938-6.648438-3.296875-9.863281-1.414062l-16.535157 9.695312c-2.226562 1.300781-5.03125 1.058594-7.003906-.597656-1.972656-1.660156-2.691406-4.378906-1.796875-6.792969l6.6875-18.03125c1.292969-3.496094.007813-7.417969-3.105469-9.464844-5.667968-3.714843-11.546874-7.109375-17.597656-10.160156-3.328125-1.675781-7.371094-.835937-9.753906 2.03125l-12.304688 14.863281c-1.644531 1.980469-4.359374 2.714844-6.777343 1.832032-2.417969-.882813-4.023438-3.191407-4.003907-5.765626l.078126-19.328124c.019531-3.726563-2.539063-6.972657-6.167969-7.824219-6.59375-1.550781-13.269531-2.722657-20-3.503907-3.703125-.472656-7.234375 1.71875-8.457031 5.246094l-6.46875 18.089844c-.867188 2.429688-3.164063 4.054688-5.746094 4.054688-2.578125 0-4.878906-1.625-5.742188-4.054688l-6.464844-18.089844c-1.242187-3.515625-4.757812-5.695312-8.457031-5.246094-6.726562.785157-13.40625 1.953126-20 3.503907-3.628906.851562-6.1875 4.101562-6.167969 7.832031l.089844 19.3125c.015625 2.574219-1.585937 4.882812-4.007812 5.765625-2.417969.882813-5.132813.148437-6.777344-1.832031l-12.351562-14.863282c-2.382813-2.871093-6.429688-3.710937-9.761719-2.03125-6.054688 3.050782-11.929688 6.445313-17.597657 10.167969-3.105468 2.046875-4.390624 5.964844-3.097656 9.457031l6.679688 18.039063c.890625 2.414063.167968 5.128906-1.804688 6.785156-1.972656 1.652344-4.769531 1.894531-6.996094.597657l-16.589843-9.695313c-3.214844-1.878906-7.300781-1.292969-9.855469 1.414063-4.671875 4.933593-9.054688 10.128906-13.128906 15.5625-2.234375 2.964843-2.132813 7.074218.238281 9.925781l12.480469 14.753906c1.664062 1.964844 1.914062 4.761719.625 6.988281-1.289063 2.226563-3.835938 3.40625-6.367188 2.945313l-18.992187-3.453125c-3.667969-.652344-7.304688 1.292968-8.800781 4.703125-2.667969 6.207031-4.980469 12.566406-6.917969 19.039062-1.074219 3.566407.460937 7.402344 3.695312 9.25l16.800781 9.550781c2.242188 1.273438 3.441407 3.816407 2.996094 6.355469-.445312 2.539063-2.441406 4.523438-4.980468 4.957031l-19.042969 3.3125c-3.671875.628907-6.421875 3.714844-6.628907 7.4375-.195312 3.378907-.3125 6.769532-.3125 10.183594 0 3.417969.117188 6.808594.3125 10.175782.207032 3.722656 2.957032 6.808593 6.628907 7.441406l19.007812 3.265625c2.539063.4375 4.527344 2.421875 4.972657 4.953125.445312 2.535156-.746094 5.078125-2.980469 6.359375l-16.796875 9.550781c-3.234375 1.847656-4.769532 5.679688-3.699219 9.246094 1.941406 6.476562 4.253906 12.832031 6.921875 19.042968 1.476562 3.429688 5.128906 5.378907 8.800781 4.703126l18.992188-3.457032c2.53125-.460937 5.078125.71875 6.367187 2.945313 1.289063 2.230469 1.039063 5.027343-.625 6.992187l-12.464844 14.757813c-2.40625 2.84375-2.535156 6.976562-.300781 9.960937 4.074219 5.429688 8.457031 10.625 13.117188 15.558594 2.558593 2.714844 6.648437 3.300781 9.863281 1.417969l16.59375-9.695313c2.226562-1.300781 5.027344-1.058594 7 .597656 1.976562 1.65625 2.695312 4.375 1.800781 6.792969l-6.6875 18.023438c-1.296875 3.492187-.007812 7.417969 3.101563 9.464843 5.667968 3.722657 11.546875 7.117188 17.601562 10.167969 3.328125 1.675781 7.371094.832031 9.75-2.03125l12.363282-14.863281c1.644531-1.980469 4.355468-2.714844 6.777343-1.832031 2.417969.882812 4.023438 3.191406 4.003907 5.765625l-.078126 19.328125c-.019531 3.726562 2.539063 6.972656 6.167969 7.824219 6.59375 1.550781 13.269531 2.71875 20 3.503906.308594.039062.617188.058594.925781.058594 3.378907-.003907 6.390626-2.125 7.53125-5.304688l6.46875-18.089844c.867188-2.429687 3.164063-4.054687 5.746094-4.054687 2.578125 0 4.878906 1.625 5.742188 4.054687l6.464844 18.089844c1.253906 3.5 4.761718 5.675781 8.457031 5.246094 6.726562-.785156 13.40625-1.957032 20-3.503906 3.628906-.851563 6.1875-4.101563 6.167969-7.832032l-.089844-19.3125c-.015625-2.574218 1.585937-4.882812 4.007812-5.765625 2.417969-.882812 5.132813-.148437 6.777344 1.832031l12.351562 14.863282c2.382813 2.867187 6.429688 3.710937 9.761719 2.03125 6.054688-3.050782 11.929688-6.445313 17.597657-10.167969 2.171874-1.449219 3.496093-3.871094 3.554687-6.480469l37.902344 32.679688c4.59375 3.9375 10.453125 6.085937 16.503906 6.050781zm-140.984375-134.53125c15.09375-4.714844 26.910156-16.53125 31.632812-31.621094l102.703126 119.132813c-7.265626 2.246094-12.953126 7.9375-15.199219 15.203125zm-14.214844-13.847656c-17.675781 0-32-14.324219-32-32 0-17.671875 14.324219-32 32-32 17.671875 0 32 14.328125 32 32 0 17.675781-14.328125 32-32 32zm-80-32c0-2.71875.140625-5.4375.414063-8.144531.226562.0625.457031.109374.6875.144531h31.617187c-.960937 5.292969-.960937 10.710937 0 16h-32.3125c-.269531-2.65625-.40625-5.328125-.40625-8zm127.816406-8h31.773438c.269531 2.660156.40625 5.328125.410156 8 0 2.695312-.167968 5.359375-.433594 8h-17.96875zm27.582032 32h.863281c-.078125.25-.125.503906-.207031.761719zm-33.894532-48c-4.210937-7.257813-10.246093-13.292969-17.503906-17.503907v-34.808593c24.902344 7.898437 44.414063 27.410156 52.3125 52.3125zm-33.503906-23.277344c-5.289062-.960937-10.710937-.960937-16 0v-32.3125c5.320313-.546875 10.679688-.546875 16 0zm-32 5.773437c-7.261718 4.210938-13.292968 10.246094-17.503906 17.503907h-34.808594c7.898438-24.902344 27.40625-44.414063 52.3125-52.3125zm-17.503906 65.503907c4.210938 7.261719 10.242188 13.292969 17.503906 17.503906v34.808594c-24.90625-7.894531-44.414062-27.40625-52.3125-52.3125zm33.503906 23.816406 16 13.785156v17.96875c-2.640625.261719-5.304687.421875-8 .421875-2.671875 0-5.34375-.136718-8-.40625zm32 27.585937.800782.664063c-.25.085937-.511719.132813-.800782.214844zm126.398438 86.304688c-3.125-3.125-3.125-8.191406 0-11.316406s8.191406-3.125 11.3125 0c3.125 3.125 3.125 8.191406 0 11.316406-3.125 3.121094-8.1875 3.121094-11.3125 0zm-71.726563-35.554688 4.421875 11.945313c-1.644531 1-3.328125 1.96875-5.023437 2.902344l-8.207031-9.863281c-5.960938-7.171876-15.789063-9.828126-24.550782-6.636719-8.765625 3.191406-14.582031 11.542969-14.539062 20.871093l.058594 12.796876c-1.90625.371093-3.824219.707031-5.738282 1l-4.292968-11.96875c-3.09375-8.824219-11.453126-14.707032-20.800782-14.636719-9.351562-.066407-17.707031 5.816406-20.800781 14.636719l-4.289063 12c-1.910156-.292969-3.832031-.628907-5.734374-1.007813l.054687-12.796875c.046875-9.328125-5.769531-17.679688-14.535156-20.871094s-18.589844-.535156-24.550781 6.636719l-8.210938 9.871094c-1.695312-.941407-3.371094-1.914063-5.03125-2.910157l4.433594-11.9375c3.246094-8.753906.644531-18.605468-6.507813-24.609374-7.152343-6.003907-17.304687-6.863282-25.363281-2.148438l-11 6.398438c-1.304688-1.488282-2.566406-2.980469-3.792969-4.480469l8.289063-9.773438c5.996094-7.121093 6.890625-17.238281 2.234375-25.300781-4.660157-8.0625-13.871094-12.339844-23.035157-10.699219l-12.601562 2.292969c-.6875-1.78125-1.34375-3.589844-1.960938-5.40625l11.113282-6.335938c8.101562-4.621093 12.429687-13.832031 10.8125-23.015624-1.613282-9.1875-8.820313-16.371094-18.011719-17.953126l-12.632813-2.175781c0-.976562 0-1.960937 0-2.945312 0-.980469 0-1.964844 0-2.949219l12.632813-2.167969c9.195313-1.578125 16.410156-8.765625 18.023437-17.953125 1.613282-9.191406-2.714843-18.40625-10.824218-23.023437l-11.113282-6.335938c.625-1.816406 1.28125-3.625 1.960938-5.410156l12.609375 2.296875c9.167969 1.652344 18.386719-2.625 23.046875-10.691406s3.761719-18.1875-2.246094-25.308594l-8.289062-9.78125c1.222656-1.5 2.484375-2.992188 3.792968-4.480469l11 6.398438c8.058594 4.710937 18.207032 3.851562 25.355469-2.152344 7.152344-6 9.757813-15.847656 6.515625-24.597656l-4.425781-11.945313c1.648437-.996094 3.328125-1.964844 5.035156-2.90625l8.199219 9.867188c5.960938 7.171875 15.785156 9.828125 24.550781 6.636718 8.765625-3.191406 14.582031-11.542968 14.535157-20.871093l-.054688-12.800781c1.902344-.367188 3.824219-.703126 5.734375-1l4.28125 12c3.109375 8.804687 11.464844 14.660156 20.800781 14.585937 9.347656.066406 17.707032-5.816406 20.800782-14.640625l4.285156-12c1.914062.296875 3.832031.632812 5.738281 1.007812l-.058594 12.800782c-.042969 9.328125 5.773438 17.679687 14.539063 20.871094 8.761718 3.191406 18.589844.535156 24.550781-6.640626l8.207031-9.871093c1.695313.945312 3.375 1.914062 5.03125 2.90625l-4.429687 11.941406c-3.25 8.753906-.644531 18.605469 6.507812 24.609375 7.148438 6.003906 17.304688 6.867188 25.363281 2.152344l11-6.402344c1.308594 1.488281 2.570313 2.984375 3.792969 4.480469l-8.289062 9.777343c-6 7.121094-6.894531 17.238282-2.234375 25.300782 4.65625 8.0625 13.867187 12.339844 23.035156 10.699218l12.597656-2.296874c.691406 1.785156 1.335938 3.585937 1.960938 5.410156l-11.109375 6.328125c-8.109375 4.617187-12.441407 13.832031-10.824219 23.019531 1.613281 9.191406 8.828125 16.375 18.023438 17.953125l12.632812 2.175781v2.945313 2.953125l-12.640625 2.167968c-9.199219 1.578126-16.410156 8.761719-18.023437 17.953126-1.617188 9.191406 2.714843 18.402343 10.820312 23.023437l11.113281 6.335937c-.625 1.816407-1.28125 3.621094-1.960937 5.40625l-12.605469-2.296874c-6.875-1.296876-13.957031.785156-19.03125 5.601562-2.171875 2.097656-3.898437 4.609375-5.074219 7.390625l-9.160156-10.628906c.207031-.609375.339844-1.238281.402344-1.875.003906-2.125-.828125-4.164063-2.320313-5.679688-1.710937-1.589843-4.03125-2.351562-6.351562-2.085937l-8.417969-9.761719c18.5625-42.339844 4.351562-91.898437-33.828125-117.96875-38.179687-26.074219-89.511719-21.269531-122.195313 11.433594-32.679687 32.699219-37.449218 84.035156-11.351562 122.199219 26.09375 38.164062 75.660156 52.339843 117.992188 33.753906l39.871093 34.398437c-.226562 1.292969-.121093 2.621094.304688 3.863281zm0 0"/><path d="m212.964844 71.558594c.960937.410156 1.992187.628906 3.039062.640625 3.25.019531 6.1875-1.929688 7.433594-4.929688 1.246094-3.003906.554688-6.460937-1.753906-8.75-2.316406-2.234375-5.738282-2.894531-8.71875-1.679687-.992188.367187-1.890625.941406-2.640625 1.679687-3.09375 3.15625-3.09375 8.207031 0 11.359375.75.742188 1.648437 1.3125 2.640625 1.679688zm0 0"/><path d="m119.042969 128.199219c3.234375-.011719 6.144531-1.972657 7.371093-4.96875 1.226563-2.992188.527344-6.429688-1.769531-8.710938-3.179687-2.960937-8.105469-2.960937-11.28125 0-3.09375 3.15625-3.09375 8.207031 0 11.359375 1.523438 1.476563 3.558594 2.304688 5.679688 2.320313zm0 0"/><path d="m113.363281 226.519531c-3.136719 3.117188-3.15625 8.183594-.039062 11.320313 3.113281 3.136718 8.183593 3.15625 11.320312.039062 1.535157-1.488281 2.398438-3.539062 2.398438-5.679687s-.863281-4.1875-2.398438-5.679688c-3.179687-2.960937-8.105469-2.960937-11.28125 0zm0 0"/><path d="m223.363281 285.160156c-.160156-.492187-.402343-.953125-.71875-1.359375-.320312-.480469-.640625-.878906-.960937-1.28125-3.132813-3.105469-8.183594-3.089843-11.296875.03125-3.117188 3.121094-3.117188 8.175781 0 11.296875 3.113281 3.125 8.164062 3.136719 11.296875.03125l.960937-1.199218c.300781-.445313.542969-.929688.71875-1.4375.230469-.457032.394531-.941407.480469-1.441407.089844-.53125.140625-1.0625.160156-1.601562-.015625-.535157-.066406-1.070313-.160156-1.597657-.085938-.503906-.25-.988281-.480469-1.441406zm0 0"/><path d="m312.964844 128.199219c2.121094-.015625 4.152344-.84375 5.679687-2.320313 1.535157-1.488281 2.398438-3.539062 2.398438-5.679687s-.863281-4.1875-2.398438-5.679688c-3.179687-2.960937-8.105469-2.960937-11.28125 0-2.296875 2.28125-2.996093 5.71875-1.769531 8.710938 1.226562 2.996093 4.132812 4.957031 7.371094 4.96875zm0 0"/></svg>