<svg height="480pt" viewBox="0 0 480 480" width="480pt" xmlns="http://www.w3.org/2000/svg"><path d="m319.933594 116c-6.273438-.003906-12.488282 1.234375-18.285156 3.640625l-13.714844-21.9375v-21.703125h20c2.210937 0 4 1.789062 4 4s-1.789063 4-4 4h-4c-4.417969 0-8 3.582031-8 8s3.582031 8 8 8h4c11.046875 0 20-8.953125 20-20s-8.953125-20-20-20h-28c-4.417969 0-8 3.582031-8 8v24h-67.054688l-3.625-7.246094c8.082032-4.460937 14.976563-10.792968 20.105469-18.464844l1.230469-1.847656c1.640625-2.457031 1.792968-5.613281.398437-8.214844-1.390625-2.601562-4.101562-4.226562-7.054687-4.226562h-44c-11.042969 0-20 8.953125-20 20s8.957031 20 20 20h1.378906c4.347656-.019531 8.683594-.527344 12.917969-1.519531l4.542969 9.085937-12.550782 20.074219c-18.851562-7.792969-40.570312-2.820313-54.152344 12.402344-13.582031 15.21875-16.058593 37.363281-6.175781 55.207031 9.878907 17.847656 29.960938 27.5 50.070313 24.066406s35.851562-19.203125 39.25-39.316406h32.71875c.699218-.003906 1.398437-.097656 2.074218-.28125.214844-.074219.425782-.15625.632813-.253906.433594-.140625.855469-.316406 1.261719-.527344.230468-.136719.433594-.328125.65625-.488281.34375-.238281.667968-.507813.96875-.800781.207031-.21875.398437-.453126.574218-.695313.222657-.238281.425782-.492187.617188-.753906l33.214844-53.101563 8.167968 13.070313c-17.25 15.398437-21.046874 40.917969-9.023437 60.671875 12.027344 19.75 36.441406 28.097656 58.042969 19.839844 21.601562-8.253907 34.222656-30.761719 30.007812-53.496094-4.21875-22.738282-24.070312-39.21875-47.195312-39.183594zm-148-40c-2.207032 0-4-1.789062-4-4s1.792968-4 4-4h25.96875c-7.140625 5.207031-15.753906 8.007812-24.589844 8zm11.199218 66.039062c3.710938 3.925782 6.363282 8.730469 7.707032 13.960938h-16.464844zm-23.199218 53.960938c-12.699219.171875-24.300782-7.1875-29.558594-18.75s-3.179688-25.140625 5.296875-34.601562c8.476563-9.460938 21.746094-13.011719 33.816406-9.046876l-16.335937 26.160157c-1.542969 2.464843-1.625 5.574219-.214844 8.117187 1.410156 2.542969 4.089844 4.121094 6.996094 4.121094h30.863281c-3.636719 14.085938-16.316406 23.945312-30.863281 24zm47.28125-40c-1.828125-10.765625-7.277344-20.585938-15.449219-27.832031l8.167969-13.070313 25.601562 40.902344zm32.71875-7.097656-25.558594-40.902344h51.160156zm80 47.097656c-12.796875.050781-24.390625-7.546875-29.445313-19.308594-5.054687-11.757812-2.597656-25.398437 6.246094-34.652344l16.375 26.199219c2.34375 3.757813 7.285156 4.902344 11.042969 2.5625 3.753906-2.34375 4.898437-7.285156 2.558594-11.039062l-16.328126-26.160157c12-3.777343 25.101563-.15625 33.457032 9.25 8.355468 9.402344 10.414062 22.839844 5.253906 34.3125-5.160156 11.472657-16.578125 18.847657-29.160156 18.835938zm0 0"/><path d="m239.933594 0c-121.210938.03125-223.375 90.445312-238.144532 210.753906-14.773437 120.308594 62.484376 232.746094 180.089844 262.101563.046875.027343.09375.046875.144532.066406.617187.148437 1.246093.253906 1.871093.40625 3.640625.871094 7.3125 1.671875 11.015625 2.398437 1.136719.21875 2.28125.410157 3.417969.609376 3.40625.597656 6.832031 1.128906 10.277344 1.601562 1.242187.167969 2.480469.328125 3.722656.46875 3.4375.402344 6.902344.707031 10.398437.953125 1.175782.089844 2.34375.199219 3.511719.273437 4.519531.207032 9.089844.367188 13.695313.367188 4.609375 0 9.175781-.160156 13.714844-.414062 1.191406-.074219 2.398437-.195313 3.574218-.273438 3.449219-.25 6.886719-.550781 10.296875-.945312 1.269531-.152344 2.527344-.320313 3.800781-.488282 3.421876-.445312 6.828126-.980468 10.214844-1.597656 1.152344-.210938 2.304688-.402344 3.449219-.625 3.742187-.710938 7.453125-1.519531 11.132813-2.398438.585937-.144531 1.175781-.242187 1.753906-.386718l.136718-.054688c117.527344-29.421875 194.699219-141.824218 179.929688-262.074218s-116.847656-210.636719-238.003906-210.742188zm-51.671875 403c-28.253907-18.03125-45.050781-49.503906-44.300781-83.011719.753906-33.511719 18.9375-64.199219 47.972656-80.949219v88.960938c0 2.808594 1.472656 5.410156 3.882812 6.855469l40 24c2.535156 1.523437 5.703125 1.523437 8.238282 0l40-24c2.40625-1.445313 3.878906-4.046875 3.878906-6.855469v-88.960938c29.054687 16.742188 47.257812 47.441407 48.011718 80.964844.75 33.523438-16.058593 65.007813-44.332031 83.035156-2.292969 1.472657-3.679687 4.011719-3.679687 6.738282v49.03125c-.320313.0625-.640625.152344-.957032.214844-3.027343.648437-6.058593 1.214843-9.097656 1.738281-.800781.125-1.519531.285156-2.289062.40625-3.65625.585937-7.324219 1.082031-11 1.488281l-.597656.070312c-13.308594 1.390626-26.714844 1.597657-40.058594.617188v-61.160156h32v24c0 4.417968 3.582031 8 8 8 4.417968 0 8-3.582032 8-8v-32c0-4.417969-3.582032-8-8-8h-48c-4.417969 0-8 3.582031-8 8v67.417968c-1.214844-.175781-2.445313-.296874-3.664063-.496093-.726562-.113281-1.445312-.265625-2.183593-.394531-3.09375-.527344-6.191407-1.101563-9.269532-1.757813l-.882812-.183594v-49.035156c.003906-2.722656-1.378906-5.261719-3.671875-6.734375zm19.671875-99.863281 28 16.167969c2.476562 1.429687 5.527344 1.429687 8 0l28-16.167969v20.335937l-32 19.199219-32-19.199219zm64-18.472657-32 18.480469-32-18.480469v-36.953124l32-18.480469 32 18.480469zm32 169.96875v-40.625c33.5625-23.351562 51.71875-63.144531 47.363281-103.796874-4.355469-40.652344-30.535156-75.695313-68.28125-91.402344-2.46875-1.03125-5.289063-.757813-7.515625.722656-2.222656 1.484375-3.5625 3.980469-3.566406 6.652344v3.046875l-28-16.160157c-2.472656-1.425781-5.523438-1.425781-8 0l-28 16.160157v-3.046875c0-2.671875-1.339844-5.167969-3.566406-6.652344-2.226563-1.480469-5.042969-1.753906-7.511719-.722656-37.746094 15.707031-63.925781 50.75-68.28125 91.402344-4.359375 40.652343 13.800781 80.445312 47.359375 103.796874v40.632813c-106.582032-31.777344-173.710938-136.945313-157.652344-247 16.058594-110.058594 110.433594-191.664063 221.652344-191.664063 111.222656 0 205.597656 81.605469 221.65625 191.664063 16.054687 110.054687-51.070313 215.222656-157.65625 247zm0 0"/><path d="m431.933594 240c.117187 58.257812-26.332032 113.394531-71.839844 149.769531-2.371094 1.738281-3.597656 4.640625-3.191406 7.554688.40625 2.910156 2.378906 5.367187 5.136718 6.394531 2.753907 1.023438 5.851563.453125 8.0625-1.488281 74.546876-59.859375 98.738282-162.800781 58.648438-249.597657-1.859375-4.011718-6.617188-5.753906-10.628906-3.894531-4.007813 1.863281-5.75 6.621094-3.890625 10.628907 11.730469 25.257812 17.773437 52.785156 17.703125 80.632812zm0 0"/><path d="m377.160156 94.289062c-3.152344 3.09375-3.199218 8.160157-.105468 11.3125 7.027343 7.167969 13.484374 14.875 19.3125 23.046876 2.566406 3.597656 7.566406 4.433593 11.164062 1.867187s4.433594-7.566406 1.867188-11.164063c-6.320313-8.847656-13.316407-17.1875-20.925782-24.953124-3.09375-3.152344-8.160156-3.203126-11.3125-.109376zm0 0"/><path d="m47.933594 240c-.117188-50.277344 19.605468-98.574219 54.882812-134.398438 2.101563-2.019531 2.941406-5.023437 2.1875-7.839843-.753906-2.816407-2.976562-5.003907-5.808594-5.703125-2.832031-.699219-5.820312.199218-7.796874 2.339844-68.070313 69.464843-78.945313 176.8125-26.183594 258.511718 2.402344 3.714844 7.359375 4.773438 11.070312 2.371094 3.714844-2.40625 4.773438-7.363281 2.371094-11.074219-20.101562-31.035156-30.769531-67.230469-30.722656-104.207031zm0 0"/><path d="m101.695312 373.246094c-3.089843-3.042969-8.042968-3.074219-11.167968-.0625-3.125 3.007812-3.28125 7.960937-.351563 11.160156 7.71875 8.003906 16.066407 15.378906 24.957031 22.054688 3.535157 2.652343 8.550782 1.9375 11.203126-1.597657 2.648437-3.535156 1.933593-8.550781-1.601563-11.199219-8.210937-6.160156-15.914063-12.96875-23.039063-20.355468zm0 0"/><path d="m215.933594 266.183594c0 13.253906 10.746094 24 24 24 13.257812 0 24-10.746094 24-24s-10.742188-24-24-24c-13.253906 0-24 10.746094-24 24zm32 0c0 4.417968-3.582032 8-8 8-4.417969 0-8-3.582032-8-8 0-4.417969 3.582031-8 8-8 4.417968 0 8 3.582031 8 8zm0 0"/><path d="m399.941406 228h16v16h-16zm0 0"/><path d="m367.941406 228h16v16h-16zm0 0"/><path d="m335.941406 228h16v16h-16zm0 0"/><path d="m103.941406 268h16v16h-16zm0 0"/><path d="m71.941406 268h16v16h-16zm0 0"/></svg>