<svg height="400pt" viewBox="0 -1 400.024 400" width="400pt" xmlns="http://www.w3.org/2000/svg"><path d="m200 126.714844c-39.765625 0-72 32.234375-72 72s32.234375 72 72 72 72-32.234375 72-72c-.046875-39.746094-32.253906-71.953125-72-72zm0 128c-30.929688 0-56-25.074219-56-56 0-30.929688 25.070312-56 56-56s56 25.070312 56 56c-.035156 30.914062-25.085938 55.964844-56 56zm0 0"/><path d="m371.433594 221.355469 21.597656-3.703125c3.675781-.628906 6.429688-3.710938 6.640625-7.433594.214844-3.816406.351563-7.640625.351563-11.503906 0-3.863282-.136719-7.6875-.351563-11.503906-.214844-3.714844-2.964844-6.792969-6.632813-7.425782l-21.597656-3.703125c-3.335937-.566406-5.953125-3.167969-6.539062-6.496093-.585938-3.332032.984375-6.671876 3.921875-8.34375l19.015625-10.839844c3.238281-1.84375 4.773437-5.679688 3.703125-9.246094-2.1875-7.308594-4.796875-14.484375-7.816407-21.488281-1.476562-3.429688-5.125-5.382813-8.796874-4.707031l-21.554688 3.921874c-3.320312.601563-6.664062-.945312-8.355469-3.867187-1.691406-2.925781-1.363281-6.59375.820313-9.171875l14.160156-16.730469c2.40625-2.839843 2.53125-6.96875.304688-9.949219-4.59375-6.148437-9.542969-12.027343-14.816407-17.601562-2.554687-2.707031-6.640625-3.296875-9.855469-1.417969l-18.832031 11.035157c-2.917969 1.703124-6.59375 1.390624-9.179687-.785157-2.589844-2.171875-3.53125-5.734375-2.355469-8.902343l7.582031-20.464844c1.296875-3.492188.011719-7.414063-3.09375-9.464844-6.398437-4.199219-13.027344-8.035156-19.859375-11.480469-3.324219-1.675781-7.371093-.832031-9.75 2.03125l-14.023437 16.875c-2.164063 2.570313-5.707032 3.511719-8.863282 2.359375-3.15625-1.148437-5.257812-4.152344-5.257812-7.511718l.105469-21.9375c.015625-3.726563-2.542969-6.972657-6.167969-7.824219-7.453125-1.761719-15-3.097657-22.601562-4.0000002-3.707032-.4687498-7.234376 1.7187502-8.464844 5.2500002l-7.34375 20.589843c-1.140625 3.175782-4.152344 5.292969-7.527344 5.292969s-6.386719-2.117187-7.527344-5.292969l-7.34375-20.519531c-1.257812-3.503906-4.761718-5.679687-8.457031-5.25-7.605469.902344-15.148437 2.238281-22.601563 4-3.625.855469-6.183593 4.101563-6.167968 7.824219l.105468 21.929688c.015626 3.375-2.089843 6.398437-5.261718 7.554687-3.175782 1.15625-6.730469.195313-8.890625-2.402344l-14.023438-16.945312c-2.382812-2.863281-6.425781-3.707031-9.753906-2.03125-6.828125 3.445312-13.453125 7.28125-19.847656 11.480469-3.109375 2.046874-4.398438 5.972656-3.101563 9.464843l7.582032 20.464844c1.164062 3.160156.222656 6.710937-2.355469 8.882813-2.578125 2.167968-6.238281 2.488281-9.15625.804687l-18.832031-11.007813c-3.210938-1.875-7.292969-1.289062-9.847657 1.414063-5.273437 5.578125-10.222656 11.457031-14.824219 17.601563-2.21875 2.980468-2.089843 7.09375.304688 9.933593l14.160156 16.738281c2.183594 2.578126 2.511719 6.246094.820313 9.171876-1.691407 2.921874-5.035157 4.46875-8.355469 3.867187l-21.554688-3.929687c-3.667968-.65625-7.304687 1.289062-8.796874 4.707031-3.015626 6.992187-5.625 14.15625-7.824219 21.445312-1.070313 3.570313.464843 7.40625 3.703125 9.25l19.046875 10.871094c2.9375 1.671875 4.511719 5.007813 3.929687 8.335937-.585937 3.328126-3.199218 5.933594-6.527344 6.503907l-21.601562 3.703125c-3.675781.628906-6.429688 3.710937-6.640625 7.433594-.222656 3.816406-.359375 7.640624-.359375 11.503906 0 3.863281.136719 7.6875.351562 11.503906.214844 3.714844 2.964844 6.792969 6.632813 7.421875l21.601563 3.707031c3.332031.566406 5.949218 3.167969 6.535156 6.496094.589844 3.332031-.980469 6.671875-3.921875 8.34375l-19.046875 10.839844c-3.257813 1.847656-4.796875 5.707031-3.703125 9.285156 2.1875 7.308594 4.796875 14.484375 7.816406 21.488281 1.476563 3.429688 5.125 5.382813 8.796875 4.707031l21.554688-3.921874c3.320312-.601563 6.664062.945312 8.355468 3.867187 1.691406 2.925781 1.363282 6.59375-.820312 9.171875l-14.152344 16.6875c-2.40625 2.84375-2.53125 6.96875-.304688 9.953125 4.59375 6.148437 9.542969 12.027344 14.816407 17.601563 2.554687 2.707031 6.640625 3.292968 9.855469 1.414062l18.832031-11.03125c2.917969-1.703125 6.59375-1.390625 9.179687.78125 2.589844 2.175781 3.53125 5.738281 2.355469 8.90625l-7.582031 20.464844c-1.296875 3.492187-.011719 7.414062 3.09375 9.464844 6.398437 4.199218 13.027344 8.03125 19.859375 11.480468 3.324219 1.675782 7.371093.832032 9.75-2.035156l14.023437-16.871094c2.160156-2.597656 5.714844-3.558594 8.890625-2.402344 3.171875 1.15625 5.277344 4.179688 5.261719 7.554688l-.101562 21.9375c-.019532 3.726562 2.539062 6.96875 6.167968 7.824219 7.449219 1.761719 14.996094 3.097656 22.597656 4 3.699219.433593 7.207032-1.742188 8.464844-5.25l7.34375-20.527344c1.140625-3.175781 4.152344-5.292969 7.527344-5.292969s6.386719 2.117188 7.527344 5.292969l7.34375 20.519531c1.140625 3.179688 4.152344 5.304688 7.53125 5.304688.308594 0 .617187-.019532.925781-.054688 7.605469-.898437 15.148437-2.234375 22.601563-4 3.625-.855468 6.183593-4.097656 6.167968-7.824218l-.128906-21.921876c-.015625-3.375 2.089844-6.398437 5.261719-7.554687 3.175781-1.15625 6.730469-.195313 8.890625 2.402344l14.023437 16.875c2.382813 2.859375 6.425781 3.699219 9.753907 2.023437 6.824218-3.429687 13.449218-7.246094 19.839843-11.433594 3.109375-2.046874 4.398438-5.972656 3.101563-9.464843l-7.582032-20.460938c-1.191406-3.167969-.257812-6.742187 2.324219-8.925781 2.585938-2.183594 6.261719-2.503906 9.1875-.804688l18.832031 11c3.210938 1.875 7.292969 1.289063 9.847657-1.414062 5.273437-5.578125 10.222656-11.453125 14.824219-17.601562 2.214843-2.980469 2.085937-7.089844-.304688-9.929688l-14.160156-16.734375c-2.183594-2.578125-2.511719-6.246094-.820313-9.171875 1.691407-2.921875 5.035157-4.472656 8.355469-3.867188l21.554688 3.925782c3.671874.679687 7.320312-1.273438 8.796874-4.703125 3.011719-7.011719 5.621094-14.1875 7.816407-21.496094 1.070312-3.566406-.464844-7.402344-3.703125-9.246094l-19.039063-10.824219c-2.9375-1.671874-4.511719-5.007812-3.929687-8.335937.585937-3.328125 3.199218-5.933594 6.527344-6.503906zm-10.53125 28.734375 13.394531 7.632812c-.898437 2.667969-1.847656 5.285156-2.847656 7.855469l-15.203125-2.769531c-9.96875-1.8125-20.003906 2.828125-25.074219 11.601562-5.074219 8.773438-4.089844 19.785156 2.460937 27.519532l9.96875 11.785156c-1.746093 2.160156-3.570312 4.316406-5.472656 6.472656l-13.257812-7.738281c-8.753906-5.109375-19.773438-4.171875-27.535156 2.347656-7.765626 6.519531-10.59375 17.210937-7.070313 26.71875l5.328125 14.398437c-2.386719 1.457032-4.816406 2.859376-7.289062 4.207032l-9.878907-11.878906c-6.480469-7.761719-17.128906-10.628907-26.628906-7.171876-9.503906 3.453126-15.820313 12.492188-15.796875 22.605469l.070312 15.445313c-2.761718.535156-5.53125 1.019531-8.308593 1.457031l-5.152344-14.398437c-3.414063-9.550782-12.460937-15.925782-22.601563-15.925782-10.140624 0-19.1875 6.375-22.601562 15.925782l-5.160156 14.398437c-2.777344-.414063-5.546875-.902344-8.308594-1.457031l.070312-15.453125c.046876-10.128907-6.273437-19.199219-15.792968-22.660157-9.519532-3.464843-20.1875-.578124-26.664063 7.210938l-9.878906 11.886719c-2.46875-1.347657-4.902344-2.753907-7.296875-4.214844l5.335938-14.398437c3.519531-9.507813.6875-20.195313-7.074219-26.710938s-18.78125-7.457031-27.53125-2.347656l-13.257813 7.738281c-1.894531-2.144531-3.726562-4.304687-5.472656-6.472656l9.960938-11.785157c6.546874-7.734374 7.53125-18.746093 2.460937-27.519531-5.070313-8.773437-15.105469-13.414062-25.078125-11.601562l-15.199219 2.761719c-1.007812-2.578126-1.960937-5.199219-2.855469-7.847657l13.390626-7.632812c8.804687-5.019531 13.507812-15.023438 11.753906-25.003907-1.753906-9.980468-9.589844-17.785156-19.578125-19.5l-15.199219-2.609374c-.03125-1.40625-.03125-2.824219-.03125-4.246094 0-1.425782 0-2.839844.054688-4.257813l15.203124-2.613281c9.984376-1.714844 17.820313-9.519531 19.574219-19.5 1.753907-9.980469-2.949219-19.988281-11.753906-25.003906l-13.390625-7.632813c.898438-2.667969 1.847656-5.285156 2.847656-7.855469l15.199219 2.765626c9.972656 1.816406 20.007813-2.824219 25.078125-11.597657 5.074219-8.773437 4.085938-19.789062-2.460938-27.519531l-9.96875-11.785156c1.746094-2.171875 3.570313-4.332032 5.472657-6.480469l13.257812 7.742187c8.753907 5.113282 19.773438 4.175782 27.535157-2.34375 7.765624-6.519531 10.59375-17.214843 7.070312-26.71875l-5.328125-14.398437c2.394531-1.457031 4.824219-2.863281 7.289063-4.21875l9.878906 11.890625c6.476562 7.773438 17.132812 10.652344 26.644531 7.191406 9.507813-3.457031 15.828125-12.507812 15.796875-22.625l-.070312-15.449218c2.753906-.53125 5.527343-1.015626 8.308593-1.453126l5.152344 14.398438c3.414063 9.550781 12.460937 15.921875 22.601563 15.921875 10.140624 0 19.1875-6.371094 22.601562-15.921875l5.160156-14.398438c2.769532.414063 5.542969.898438 8.308594 1.453126l-.0625 15.457031c-.042969 10.128906 6.273438 19.195312 15.792969 22.660156s20.1875.578125 26.664062-7.210937l9.878907-11.886719c2.46875 1.347656 4.902343 2.753906 7.296874 4.214843l-5.335937 14.398438c-3.519531 9.503906-.6875 20.195312 7.074219 26.710938 7.761718 6.515624 18.78125 7.457031 27.53125 2.347656l13.257812-7.738282c1.894532 2.144532 3.726563 4.304688 5.472656 6.472657l-9.96875 11.785156c-6.546874 7.734375-7.53125 18.746094-2.460937 27.519531 5.070313 8.773438 15.105469 13.414063 25.078125 11.597656l15.199219-2.757812c1.007812 2.574219 1.960937 5.199219 2.855469 7.847656l-13.390626 7.632813c-8.804687 5.015625-13.507812 15.023437-11.753906 25.003906s9.589844 17.785156 19.578125 19.5l15.199219 2.605469c0 1.417968.054688 2.832031.054688 4.257812 0 1.421875 0 2.839844-.054688 4.253906l-15.199219 2.617188c-9.988281 1.714844-17.824219 9.519531-19.578125 19.5s2.949219 19.984375 11.753906 25.003906zm0 0"/><path d="m184 110.714844h32c13.253906 0 24-10.746094 24-24s-10.746094-24-24-24h-32c-13.253906 0-24 10.746094-24 24s10.746094 24 24 24zm0-32h32c4.417969 0 8 3.582031 8 8 0 4.417968-3.582031 8-8 8h-32c-4.417969 0-8-3.582032-8-8 0-4.417969 3.582031-8 8-8zm0 0"/><path d="m83 177.355469c3.648438 2.105469 7.789062 3.210937 12 3.199219 2.109375.007812 4.210938-.261719 6.246094-.800782 6.160156-1.636718 11.410156-5.671875 14.578125-11.199218l16-27.710938c6.628906-11.488281 2.6875-26.175781-8.800781-32.800781-11.488282-6.628907-26.171876-2.6875-32.800782 8.800781l-16 27.710938c-3.183594 5.515624-4.046875 12.070312-2.398437 18.222656 1.652343 6.152344 5.679687 11.398437 11.199219 14.578125zm5.078125-24.800781 16-27.710938c1.058594-1.84375 2.804687-3.1875 4.859375-3.730469.675781-.179687 1.375-.273437 2.078125-.269531 2.855469 0 5.496094 1.527344 6.921875 4.003906 1.425781 2.472656 1.425781 5.519532 0 7.996094l-16 27.703125c-1.421875 2.496094-4.066406 4.039063-6.9375 4.046875-2.871094.003906-5.527344-1.527344-6.957031-4.015625-1.429688-2.492187-1.414063-5.554687.035156-8.03125zm0 0"/><path d="m115.792969 228.859375c-6.628907-11.488281-21.3125-15.429687-32.800781-8.800781-11.488282 6.628906-15.425782 21.3125-8.800782 32.800781l16 27.710937c3.167969 5.53125 8.417969 9.5625 14.578125 11.199219 2.039063.539063 4.136719.808594 6.246094.800781 8.570313-.011718 16.480469-4.589843 20.761719-12.015624 4.277344-7.421876 4.273437-16.5625-.007813-23.984376zm-.800781 46.640625c-3.824219 2.203125-8.710938.890625-10.921876-2.929688l-16-27.710937c-1.449218-2.476563-1.464843-5.542969-.035156-8.03125 1.429688-2.488281 4.085938-4.023437 6.957032-4.015625 2.871093.007812 5.515624 1.550781 6.9375 4.046875l16 27.703125c1.066406 1.839844 1.359374 4.027344.808593 6.085938-.550781 2.054687-1.894531 3.804687-3.738281 4.867187zm0 0"/><path d="m216 286.714844h-32c-13.253906 0-24 10.746094-24 24s10.746094 24 24 24h32c13.253906 0 24-10.746094 24-24s-10.746094-24-24-24zm0 32h-32c-4.417969 0-8-3.582032-8-8 0-4.417969 3.582031-8 8-8h32c4.417969 0 8 3.582031 8 8 0 4.417968-3.582031 8-8 8zm0 0"/><path d="m317 220.074219c-5.515625-3.1875-12.070312-4.050781-18.222656-2.398438-6.152344 1.652344-11.398438 5.679688-14.578125 11.199219l-16 27.710938c-6.625 11.488281-2.6875 26.171874 8.800781 32.800781 11.488281 6.628906 26.171875 2.6875 32.800781-8.800781l16-27.710938c3.183594-5.515625 4.046875-12.074219 2.398438-18.222656-1.652344-6.152344-5.679688-11.398438-11.199219-14.578125zm-5.078125 24.800781-16 27.710938c-2.226563 3.792968-7.09375 5.082031-10.902344 2.882812-3.808593-2.199219-5.128906-7.058594-2.957031-10.882812l16-27.703126c1.421875-2.496093 4.066406-4.039062 6.9375-4.046874 2.871094-.003907 5.527344 1.527343 6.957031 4.015624 1.429688 2.488282 1.414063 5.554688-.035156 8.03125zm0 0"/><path d="m309.785156 116.859375c-6.628906-11.488281-21.3125-15.429687-32.800781-8.800781s-15.429687 21.3125-8.800781 32.800781l16 27.710937c3.167968 5.53125 8.417968 9.5625 14.578125 11.199219 2.039062.539063 4.136719.808594 6.246093.800781 8.570313-.011718 16.480469-4.589843 20.761719-12.015624 4.277344-7.421876 4.273438-16.5625-.007812-23.984376zm-.800781 46.640625c-1.832031 1.074219-4.019531 1.363281-6.0625.796875-2.058594-.542969-3.8125-1.886719-4.867187-3.734375l-16-27.703125c-1.449219-2.476563-1.464844-5.542969-.035157-8.03125 1.429688-2.488281 4.085938-4.023437 6.957031-4.015625 2.871094.007812 5.515626 1.550781 6.933594 4.046875l16 27.710937c1.070313 1.839844 1.359375 4.023438.8125 6.078126-.546875 2.054687-1.890625 3.804687-3.730468 4.867187zm0 0"/></svg>