<svg height="464pt" viewBox="0 -100 464.04746 464" width="464pt" xmlns="http://www.w3.org/2000/svg"><path d="m431.203125 36.460938c-.773437-1.550782-2.03125-2.808594-3.582031-3.582032l-64-32c-2.722656-1.371094-5.984375-1.074218-8.417969.757813l-32 24c-3.105469 2.308593-4.117187 6.507812-2.398437 9.976562l8.277343 16.550781c2.984375 5.96875 8.386719 10.367188 14.832031 12.078126 6.445313 1.710937 13.316407.570312 18.867188-3.132813l5.757812-3.839844 25.464844 12.726563 13.320313 26.65625-5.375 16.128906-169.945313 23.183594-169.984375-23.199219-5.375-16.128906 13.320313-26.65625 25.460937-12.726563 5.761719 3.839844c5.546875 3.703125 12.417969 4.84375 18.867188 3.128906 6.445312-1.710937 11.847656-6.105468 14.828124-12.074218l8.320313-16.535157c1.71875-3.46875.707031-7.667969-2.398437-9.976562l-32-24c-2.421876-1.816407-5.667969-2.113281-8.378907-.757813l-64 32c-1.550781.773438-2.808593 2.03125-3.582031 3.582032l-32 64c-1.125 2.253906-1.125 4.902343 0 7.152343l48 96c.839844 1.675781 2.242188 3.003907 3.960938 3.753907l128 56c3.398437 1.484374 7.371093.4375 9.597656-2.527344l30.679687-40.90625c2.671875-3.289063 6.683594-5.199219 10.921875-5.199219 4.238282 0 8.25 1.910156 10.917969 5.199219l30.683594 40.90625c1.507812 2.011718 3.878906 3.199218 6.398437 3.199218 1.101563 0 2.191406-.226562 3.199219-.671874l128-56c1.734375-.742188 3.152344-2.070313 4-3.753907l48-96c1.125-2.25 1.125-4.898437 0-7.152343zm-207.199219 114.5625v14.398437l-96.488281-27.550781zm16 0 96.488282-13.152344-96.488282 27.558594zm-194.039062-105.027344 57.199218-28.589844 22.695313 17.03125-5.289063 10.585938c-.929687 1.855468-2.613281 3.226562-4.621093 3.757812-2.011719.535156-4.152344.179688-5.882813-.976562l-9.597656-6.398438c-2.386719-1.578125-5.433594-1.769531-8-.503906l-32 16c-1.550781.773437-2.808594 2.03125-3.585938 3.582031l-16 32c-.945312 1.898437-1.097656 4.09375-.421874 6.105469l6.671874 20-6.863281 9.144531-6.898437 9.105469-16.421875-32.800782zm356.183594 147.875-119.542969 52.304687-26.882813-35.839843c-5.597656-7.46875-14.386718-11.863282-23.71875-11.863282-9.332031 0-18.121094 4.394532-23.71875 11.863282l-26.882812 35.839843-119.542969-52.304687-20.488281-41.03125 18.207031-24.28125 34.578125 4.71875 20.800781 16.921875c.84375.683593 1.816407 1.191406 2.863281 1.488281l112 32c1.429688.414062 2.953126.414062 4.382813 0l112-32c1.046875-.296875 2.019531-.804688 2.863281-1.488281l20.800782-16.921875 34.578124-4.71875 18.191407 24.28125zm28.488281-57.03125-6.855469-9.144532-6.867188-9.144531 6.671876-20c.675781-2.011719.523437-4.207031-.421876-6.105469l-16-32c-.773437-1.550781-2.03125-2.808593-3.585937-3.582031l-32-16c-2.566406-1.269531-5.609375-1.074219-8 .503907l-9.597656 6.398437c-1.730469 1.152344-3.871094 1.511719-5.878907.976563-2.011718-.53125-3.695312-1.902344-4.625-3.761719l-5.328124-10.542969 22.695312-17.023438 57.199219 28.59375 29.015625 58.03125zm0 0"/><path d="m112.433594 203.984375 6.574218-14.589844 19.316407 8.703125-6.574219 14.589844zm0 0"/><path d="m78.972656 161.117188-13.9375 7.839843 9 16c.835938 1.488281 2.125 2.671875 3.679688 3.378907l17.753906 8 6.574219-14.59375-15.351563-6.921876zm0 0"/></svg>