<svg height="480pt" viewBox="0 0 480 480" width="480pt" xmlns="http://www.w3.org/2000/svg"><path d="m9.351562 376.679688 9.351563 39.746093 13.503906 57.398438c.847657 3.617187 4.078125 6.175781 7.792969 6.175781h136c2.675781 0 5.171875-1.335938 6.65625-3.558594l31.558594-47.34375 11.386718-11.417968c19.28125-19.328126 33.820313-42.859376 42.488282-68.75l11.460937-34.402344c1.34375-4.019532-.683593-8.386719-4.613281-9.960938l-40-16c-3.351562-1.324218-7.171875-.246094-9.335938 2.632813l-11.882812 15.839843-5.71875-51.503906v-55.535156c0-4.417969-3.582031-8-8-8h-40c0-4.417969-3.582031-8-8-8h-48c-4.417969 0-8 3.582031-8 8v8h-40c-4.417969 0-8 3.582031-8 8v8h-40c-4.417969 0-8 3.582031-8 8v74.847656c.00390625 25.304688 2.929688 50.519532 8.71875 75.152344zm46.648438-96.679688c4.417969 0 8-3.582031 8-8v-8h32v51.246094l-74.648438 40.753906c-3.535156-18.847656-5.324218-37.976562-5.351562-57.152344v-18.847656zm-31.015625 93.246094-.183594-.941406 83-45.28125c2.582031-1.394532 4.195313-4.089844 4.199219-7.023438v-56h32v75.320312l-112.160156 63.078126zm10.671875 45.378906 120.265625-67.648438c2.519531-1.417968 4.078125-4.085937 4.078125-6.976562v-80h32.800781l7.039063 63.34375c-9.109375 28.738281-9.960938 59.457031-2.464844 88.65625h-101.375c-17.671875 0-32 14.328125-32 32 .03125 5.632812 1.570312 11.15625 4.449219 16h-22.113281zm60.34375 45.375c-8.835938 0-16-7.164062-16-16s7.164062-16 16-16h97.054688l-21.335938 32zm138.71875-158.296875 27.304688 10.921875-9.078126 27.199219c-7.867187 23.5625-21.085937 44.984375-38.625 62.574219l-2.328124 2.328124c-5.894532-25.46875-4.785157-52.058593 3.199218-76.949218zm-42.71875-97.703125v40h-32v-40zm-80-8h32v48h-32zm-48 16h32v32h-32zm-48 16h32v32h-32zm0 0"/><path d="m471.792969 32h-40v-8c0-4.417969-3.582031-8-8-8h-40v-8c0-4.417969-3.582031-8-8-8h-48c-4.417969 0-8 3.582031-8 8h-40c-4.417969 0-8 3.582031-8 8v47.59375l-5.898438 58.933594-11.496093-15.328125c-2.167969-2.894531-6.007813-3.972657-9.367188-2.632813l-40 16c-3.933594 1.574219-5.957031 5.941406-4.617188 9.960938l11.464844 34.402344c8.675782 25.890624 23.226563 49.425781 42.519532 68.75l10.785156 10.785156 32 48c1.484375 2.222656 3.980468 3.558594 6.65625 3.558594h136c3.710937 0 6.933594-2.554688 7.785156-6.167969l23.445312-99.855469c5.789063-24.632812 8.714844-49.847656 8.722657-75.152344v-74.847656c0-4.417969-3.582031-8-8-8zm-8 16v32h-32v-32zm-48-16v24h-32v-24zm-48-16v40h-32v-40zm-80 8h32v32h-32zm-60.738281 135.863281-9.078126-27.238281 27.304688-10.921875 19.519531 26.039063c7.984375 24.894531 9.089844 51.484374 3.199219 76.953124l-2.320312-2.296874c-17.53125-17.578126-30.753907-38.984376-38.625-62.535157zm228.441406 26.472657-22.039063 93.664062h-125.386719l-27.429687-41.144531c9.574219-31.355469 9.335937-64.886719-.6875-96.101563l7.078125-70.753906h128.800781v16c0 4.417969 3.582031 8 8 8h40v18.847656c-.015625 24.070313-2.8125 48.058594-8.335937 71.488282zm0 0"/><path d="m412.105469 103.710938-6.707031-1.910157c-12.8125-3.664062-26.605469-1.015625-37.160157 7.128907l-.636719-.640626c-11.996093-12.003906-30.039062-15.59375-45.714843-9.101562-15.671875 6.492188-25.890625 21.789062-25.886719 38.757812.023438 16.59375 13.46875 30.035157 30.0625 30.054688h96.441406c9.328125-.015625 17.351563-6.59375 19.199219-15.734375 4.179687-21.40625-8.660156-42.464844-29.597656-48.554687zm13.910156 45.417968c-.339844 1.667969-1.808594 2.867188-3.511719 2.871094h-96.441406c-7.761719-.003906-14.054688-6.292969-14.0625-14.054688-.003906-10.496093 6.316406-19.957031 16.007812-23.972656 9.695313-4.015625 20.855469-1.792968 28.273438 5.628906l6.0625 6.0625c1.5 1.496094 3.535156 2.335938 5.65625 2.335938s4.15625-.84375 5.65625-2.34375l1.863281-1.878906c6.667969-6.65625 16.417969-9.183594 25.480469-6.601563l6.703125 1.921875c12.957031 3.761719 20.898437 16.789063 18.3125 30.03125zm0 0"/><path d="m343.433594 189.023438c-1.21875-3.035157-4.160156-5.027344-7.433594-5.023438h-32c-4.417969 0-8 3.582031-8 8v40c.003906 1.578125.46875 3.125 1.34375 4.441406l16 24c1.484375 2.222656 3.980469 3.558594 6.65625 3.558594h32c4.417969 0 8-3.582031 8-8v-24c0-1.019531-.191406-2.027344-.566406-2.976562zm.566406 58.976562h-19.71875l-12.28125-18.398438v-29.601562h18.585938l13.414062 33.535156zm0 0"/><path d="m432 184h-48c-4.417969 0-8 3.582031-8 8v46.03125c-.082031 13.175781 9.71875 24.324219 22.796875 25.933594s25.289063-6.832032 28.402344-19.636719l12.59375-50.398437c.59375-2.394532.050781-4.929688-1.472657-6.867188-1.523437-1.941406-3.855468-3.070312-6.320312-3.0625zm-20.351562 56.449219c-1.230469 4.871093-5.894532 8.066406-10.882813 7.457031s-8.742187-4.832031-8.765625-9.859375v-38.046875h29.761719zm0 0"/></svg>