<svg height="424pt" viewBox="-44 0 424 424" width="424pt" xmlns="http://www.w3.org/2000/svg"><path d="m291.015625 39.0625-15.480469-6.261719-54.160156-31.703125c-1.210938-.710937-2.59375-1.0898435-4-1.097656h-97.375c-.941406.0234375-1.875.210938-2.75.550781-.226562.089844-.433594.167969-.648438.273438-.21875.105469-.394531.128906-.570312.230469l-55.542969 31.746093-15.503906 6.269531c-27.242187 10.941407-45.0664062 37.382813-44.984375 66.738282v78.191406c0 8.835938 7.164062 16 16 16h40v208c0 8.835938 7.164062 16 16 16h192c8.835938 0 16-7.164062 16-16v-208h40c8.835938 0 16-7.164062 16-16v-78.191406c.082031-29.359375-17.738281-55.804688-44.984375-66.746094zm-98.917969 105.890625c.160156 5.726563 1.867188 11.300781 4.941406 16.136719l-21.039062 4.855468v-16zm70.75.949219-7.199218 1.65625c.1875-1.175782.304687-2.367188.351562-3.558594-.011719-6.082031-1.769531-12.035156-5.070312-17.144531l6.335937-1.953125c2.65625 6.765625 4.53125 13.8125 5.582031 21zm-22.847656-1.902344c0 8.835938-7.164062 16-16 16s-16-7.164062-16-16 7.164062-16 16-16 16 7.164062 16 16zm-80 21.945312-86.847656-20c1.058594-7.191406 2.9375-14.238281 5.601562-21l81.246094 24.957032zm-88 11.695313v-15.585937l88 20.34375v15.578124zm104 4.757813 36.800781-8.496094c12.007813 4.679687 25.65625 1.53125 34.398438-7.933594l16.800781-3.878906v15.582031l-88 20.273437zm60.503906-67.8125c-14.304687-6.097657-30.921875-.984376-39.320312 12.101562l-29.183594 8.945312-82.03125-25.234374c17.308594-28.785157 48.441406-46.390626 82.03125-46.390626s64.722656 17.605469 82.03125 46.390626zm-164.503906-11.976563v-57.96875l41.601562-23.746094c3.070313 12.886719 10.605469 24.265625 21.269532 32.121094-26.332032 8.257813-48.707032 25.90625-62.871094 49.59375zm88 111.789063v193.601562h-48.28125l-7.375-206.480469zm16 0 55.65625-12.847657-7.375 206.449219h-48.28125zm88-111.757813c-14.152344-23.679687-36.511719-41.335937-62.832031-49.601563 10.828125-7.964843 18.429687-19.5625 21.417969-32.671874l41.414062 24.21875zm-56.800781-86.640625c-3.785157 18.644531-20.175781 32.039062-39.199219 32.039062s-35.414062-13.394531-39.199219-32.039062zm-156.214844 37.894531 5.015625-2.03125v100.136719h-40v-46.191406c-.0625-22.832032 13.796875-43.398438 34.984375-51.914063zm-34.984375 130.105469v-16h40v16zm56 224v-213.753906l16.214844 4.058594 7.496094 209.695312zm168.289062 0 7.496094-209.695312 16.214844-4.058594v213.753906zm39.710938-224v-16h40v16zm40-32h-40v-100.136719l5.015625 2.03125c21.1875 8.515625 35.046875 29.082031 34.984375 51.914063zm0 0"/><path d="m160 80h16v16h-16zm0 0"/><path d="m160 112h16v16h-16zm0 0"/></svg>