<svg height="405pt" viewBox="-1 0 405 405.52078" width="405pt" xmlns="http://www.w3.org/2000/svg"><path d="m345.003906 58.441406c-37.410156-37.546875-88.277344-58.585937-141.28125-58.441406h-.207031c-110.398437.242188-199.773437 89.800781-199.792969 200.199219l.113282 110.664062c-.105469.375-.183594.753907-.230469 1.136719v40c.046875.457031.140625.910156.269531 1.351562v5.714844c-2.339844 4.460938-3.578125 9.417969-3.613281 14.453125 0 17.675781 14.324219 32 32 32h88c6.378906.007813 12.613281-1.902343 17.894531-5.488281l65.769531-.03125c80.890625-.082031 153.765625-48.882812 184.648438-123.648438 30.882812-74.761718 13.683593-160.769531-43.570313-217.910156zm-293.28125 141.710938c.015625-83.917969 67.960938-151.988282 151.882813-152.152344h.160156c83.945313-.039062 152.03125 67.980469 152.070313 151.929688.039062 83.945312-67.980469 152.03125-151.925782 152.070312l-60.066406.066406c-6.011719-6.667968-14.558594-10.484375-23.535156-10.511718h-68.398438zm-3.460937 189.382812v-32h8v32zm24 0v-32h8v32zm24 0v-32h8v32zm-60.65625-48h-3.328125c-4.261719-.003906-8.484375.851563-12.410156 2.511719l-.023438-24.046875h15.761719zm-14.65625 43.304688c-3.011719-2.992188-4.699219-7.066406-4.679688-11.3125 0-8.835938 7.164063-16 16-16v32c-4.25.015625-8.328125-1.671875-11.320312-4.6875zm99.320312 4.714844v-32c8.835938 0 16 7.160156 16 16 0 8.835937-7.164062 16-16 16zm213.734375-59.578126c-34.40625 34.667969-81.253906 54.121094-130.09375 54.023438l-53.554687.058594c1.226562-3.367188 1.871093-6.917969 1.914062-10.496094-.023437-1.847656-.210937-3.691406-.5625-5.503906l52.183594-.058594c92.785156-.042969 167.964844-75.296875 167.921875-168.078125-.042969-92.785156-75.296875-167.964844-168.082031-167.921875h-.175781c-92.738282.199219-167.816407 75.429688-167.832032 168.167969l.113282 103.832031h-16l-.113282-103.816406c.023438-101.566406 82.25-183.957032 183.816406-184.183594h.191407c74.394531-.011719 141.476562 44.773438 169.988281 113.484375 28.507812 68.714844 12.835938 147.835937-39.714844 200.492187zm0 0"/><path d="m238.890625 248.695312c4.363281.003907 7.917969-3.488281 8-7.847656l1.097656-56c.042969-2.121094-.761719-4.175781-2.230469-5.707031-1.472656-1.53125-3.496093-2.410156-5.617187-2.453125l.160156-8c.347657-17.671875-13.695312-32.277344-31.367187-32.621094-8.484375-.15625-16.6875 3.050782-22.808594 8.925782-6.140625 5.871093-9.671875 13.957031-9.808594 22.449218l-.160156 8c-2.109375.019532-4.140625.816406-5.703125 2.230469-1.527344 1.46875-2.40625 3.484375-2.449219 5.601563l-1.09375 56c-.042968 2.121093.757813 4.175781 2.230469 5.707031s3.492187 2.414062 5.617187 2.453125l64 1.246094zm-46.734375-72.925781.160156-8c.070313-4.238281 1.835938-8.273437 4.902344-11.199219 3.039062-2.972656 7.152344-4.582031 11.402344-4.464843 8.832031.175781 15.851562 7.476562 15.679687 16.3125l-.160156 8-16-.3125zm38.894531 56.800781-48-.9375.800781-40 48 .9375zm0 0"/><path d="m93.828125 293.871094 112 2.195312h1.902344c53.019531.507813 96.414062-42.058594 96.925781-95.078125s-42.054688-96.414062-95.074219-96.921875c-31.941406-.6875-62.125 14.589844-80.488281 40.730469-18.367188 26.140625-22.5 59.714844-11.023438 89.53125l-30.785156 47.199219c-1.589844 2.4375-1.730468 5.542968-.371094 8.113281 1.359376 2.570313 4.007813 4.199219 6.914063 4.257813zm39.9375-54.316406c1.453125-2.257813 1.691406-5.089844.628906-7.554688-4.636719-10.535156-6.921875-21.960938-6.695312-33.472656.878906-43.960938 37.078125-78.976563 81.046875-78.390625 43.96875.582031 79.222656 36.542969 78.9375 80.515625-.289063 43.972656-36.011719 79.46875-79.984375 79.476562h-1.597657l-97.527343-1.96875zm0 0"/></svg>