<svg height="480pt" viewBox="-68 0 480 480" width="480pt" xmlns="http://www.w3.org/2000/svg"><path d="m336 112h-144v-24c0-4.417969-3.582031-8-8-8v-8c-.042969-10.132812-6.445312-19.148438-16-22.527344v-33.472656c0-8.835938-7.164062-16-16-16h-32c-8.835938 0-16 7.164062-16 16v33.472656c-9.554688 3.378906-15.957031 12.394532-16 22.527344v8c-4.417969 0-8 3.582031-8 8v24.800781c-18.613281 3.828125-31.976562 20.199219-32 39.199219v320c0 4.417969 3.582031 8 8 8h248c4.417969 0 8-3.582031 8-8v-58.800781c19.160156-6.773438 31.976562-24.878907 32-45.199219v-248c0-4.417969-3.582031-8-8-8zm-272 216h104v40c.003906 11.824219 4.394531 23.226562 12.320312 32h-116.320312zm80-88c-14.734375.003906-27.566406-10.054688-31.082031-24.363281-3.515625-14.308594 3.195312-29.167969 16.25-35.996094 13.058593-6.824219 29.089843-3.855469 38.832031 7.199219v42.046875c-5.992188 7.035156-14.761719 11.09375-24 11.113281zm-48-128v-16h80v16zm24-96h32v32h-32zm-16 56c0-4.417969 3.582031-8 8-8h48c4.417969 0 8 3.582031 8 8v8h-64zm-16 56h80v38.503906c-4.949219-2.855468-10.367188-4.804687-16-5.75v-16.753906h-16v16.71875c-7.125 1.203125-13.882812 4.007812-19.769531 8.203125l-14.574219-14.578125-11.3125 11.3125 14.578125 14.574219c-4.195313 5.886719-7 12.644531-8.203125 19.769531h-16.71875v16h16.71875c1.203125 7.125 4.007812 13.882812 8.203125 19.769531l-14.578125 14.574219 11.3125 11.3125 14.574219-14.578125c5.886719 4.195313 12.644531 7 19.769531 8.203125v16.71875h16v-16.734375c5.636719-.933594 11.054688-2.875 16-5.738281v62.472656h-104v-160c0-13.253906 10.746094-24 24-24zm-24 320h72v-16h-72v-16h136v48h-136zm232 16h-80v-16h80zm0-32h-80v-16h80zm32-64c0 17.671875-14.328125 32-32 32h-80c-17.671875 0-32-14.328125-32-32v-192h48v-16h-48v-32h16v16h16v-16h16v16h16v-16h16v16h16v-16h16v16h16v-16h16zm0 0"/><path d="m256 264c-17.671875 0-32 14.328125-32 32s14.328125 32 32 32 32-14.328125 32-32-14.328125-32-32-32zm0 48c-8.835938 0-16-7.164062-16-16s7.164062-16 16-16 16 7.164062 16 16-7.164062 16-16 16zm0 0"/><path d="m248 232h16v16h-16zm0 0"/><path d="m205.089844 256.398438 11.316406-11.308594 11.308594 11.316406-11.316406 11.308594zm0 0"/><path d="m192 288h16v16h-16zm0 0"/><path d="m205.082031 335.597656 11.308594-11.320312 11.320313 11.3125-11.3125 11.316406zm0 0"/><path d="m248 344h16v16h-16zm0 0"/><path d="m284.277344 335.597656 11.316406-11.308594 11.308594 11.316407-11.316406 11.308593zm0 0"/><path d="m304 288h16v16h-16zm0 0"/><path d="m284.273438 256.410156 11.3125-11.320312 11.316406 11.3125-11.308594 11.316406zm0 0"/><path d="m248 160h16v16h-16zm0 0"/><path d="m62.160156 41.34375 13.730469-8.207031 8.210937 13.730469-13.730468 8.210937zm0 0"/><path d="m34.695312 57.765625 13.730469-8.207031 8.210938 13.730468-13.730469 8.210938zm0 0"/><path d="m7.230469 74.1875 13.730469-8.207031 8.210937 13.730469-13.730469 8.210937zm0 0"/><path d="m64 8h16v16h-16zm0 0"/><path d="m32 8h16v16h-16zm0 0"/><path d="m0 8h16v16h-16zm0 0"/><path d="m152 432h16v16h-16zm0 0"/></svg>