<svg height="480pt" viewBox="0 0 480 480" width="480pt" xmlns="http://www.w3.org/2000/svg"><path d="m320 400h-160c-13.253906 0-24 10.746094-24 24s10.746094 24 24 24h160c13.253906 0 24-10.746094 24-24s-10.746094-24-24-24zm0 32h-160c-4.417969 0-8-3.582031-8-8s3.582031-8 8-8h160c4.417969 0 8 3.582031 8 8s-3.582031 8-8 8zm0 0"/><path d="m472 144h-56v-104c-.027344-22.082031-17.917969-39.9726562-40-40h-272c-22.082031.0273438-39.972656 17.917969-40 40v104h-56c-4.417969 0-8 3.582031-8 8v176c0 4.417969 3.582031 8 8 8h56v104c.027344 22.082031 17.917969 39.972656 40 40h272c22.082031-.027344 39.972656-17.917969 40-40v-104h56c4.417969 0 8-3.582031 8-8v-176c0-4.417969-3.582031-8-8-8zm-456 176v-160h16v64h16v-64h16v160zm384 120c0 13.253906-10.746094 24-24 24h-272c-13.253906 0-24-10.746094-24-24v-400c0-13.253906 10.746094-24 24-24h272c13.253906 0 24 10.746094 24 24zm64-120h-16v-64h-16v64h-16v-160h48zm0 0"/><path d="m302.542969 106.3125c-4.28125.039062-8.523438.824219-12.535157 2.320312l-9.710937-15.535156-6.855469-18.625c-2.335937-6.289062-8.332031-10.46875-15.042968-10.472656h-10.398438c-4.417969 0-8 3.582031-8 8s3.582031 8 8 8h10.398438l5.890624 16h-49.679687l-1.714844-8.945312h8.578125c4.417969 0 8-3.582032 8-8 0-4.417969-3.582031-8-8-8h-29.472656c-4.417969 0-8 3.582031-8 8 0 4.417968 3.582031 8 8 8h4.609375l2.839844 14.808593-7.609375 9.464844c-5.589844-3.253906-11.933594-4.984375-18.398438-5.015625-19.664062-.023438-36 15.15625-37.421875 34.769531-1.425781 19.609375 12.550781 36.984375 32.011719 39.804688 19.460938 2.816406 37.789062-9.886719 41.984375-29.09375h29.984375c1.125-.007813 2.234375-.257813 3.257812-.730469.277344-.15625.542969-.332031.796876-.527344.679687-.378906 1.300781-.855468 1.839843-1.414062.082031-.089844.203125-.121094.273438-.21875l28.625-34.398438 1.597656 2.566406c-12.761719 12.535157-14.867187 32.347657-5.027344 47.285157 9.84375 14.9375 28.878907 20.816406 45.433594 14.035156 16.550781-6.785156 25.984375-24.332031 22.515625-41.878906-3.46875-17.550781-18.875-30.1875-36.761719-30.160157zm-109.398438 28.886719c.085938.183593.152344.367187.222657.5625h-.671876zm10.671875-13.261719 4.183594-5.136719 15.296875 19.023438h-13.25c-1.101563-4.996094-3.222656-9.714844-6.230469-13.855469zm-30.34375 43.292969c-11.699218-.222657-21.066406-9.773438-21.066406-21.472657 0-11.703124 9.367188-21.253906 21.066406-21.476562 2.816406-.003906 5.609375.558594 8.207032 1.648438l-11.910157 14.8125c-1.953125 2.398437-2.347656 5.707031-1.015625 8.496093 1.332032 2.792969 4.15625 4.5625 7.246094 4.554688h17.367188c-3.265626 8.125-11.136719 13.457031-19.894532 13.472656zm66.632813-34.109375-15.410157-19.121094h31.304688zm62.4375 34.109375c-8.066407.023437-15.460938-4.5-19.121094-11.691407-3.65625-7.191406-2.957031-15.828124 1.808594-22.339843l10.53125 16.800781c2.34375 3.753906 7.285156 4.898438 11.042969 2.554688 3.753906-2.34375 4.898437-7.289063 2.554687-11.042969l-10.542969-16.855469c7.996094-1.433594 16.117188 1.773438 20.976563 8.285156 4.859375 6.507813 5.625 15.207032 1.976562 22.464844-3.644531 7.257812-11.078125 11.835938-19.203125 11.824219zm0 0"/><path d="m376 32h-272c-4.417969 0-8 3.582031-8 8v336c0 4.417969 3.582031 8 8 8h272c4.417969 0 8-3.582031 8-8v-336c0-4.417969-3.582031-8-8-8zm-264 16h256v152h-256zm0 320v-80h8c2.429688 0 4.730469-1.101562 6.246094-3l24.800781-31.015625 18.089844 30.136719c1.269531 2.109375 3.4375 3.515625 5.878906 3.816406 2.445313.300781 4.890625-.539062 6.632813-2.28125l18.351562-18.34375 18.34375 18.34375c1.742188 1.742188 4.1875 2.582031 6.628906 2.28125 2.445313-.300781 4.613282-1.707031 5.882813-3.816406l15.953125-26.59375 17.839844 41.601562c.933593 2.183594 2.792968 3.839844 5.070312 4.519532.742188.222656 1.507812.34375 2.28125.351562 1.578125-.003906 3.125-.46875 4.441406-1.34375l21.957032-14.65625h21.601562v-16h-24c-1.578125.003906-3.125.46875-4.441406 1.34375l-16 10.664062-20.214844-47.160156c-1.183594-2.757812-3.8125-4.621094-6.808594-4.828125-2.996094-.203125-5.851562 1.289063-7.398437 3.859375l-18.738281 31.199219-16.75-16.757813c-3.125-3.125-8.1875-3.125-11.3125 0l-16.734376 16.785157-18.738281-31.203125c-1.347656-2.242188-3.707031-3.6875-6.320312-3.863282-2.601563-.113281-5.109375.988282-6.78125 2.984376l-29.601563 36.976562h-4.160156v-56h256v152zm0 0"/><path d="m272 336h16v16h-16zm0 0"/><path d="m304 320h16v32h-16zm0 0"/><path d="m336 304h16v48h-16zm0 0"/><path d="m32 240h16v16h-16zm0 0"/><path d="m432 224h16v16h-16zm0 0"/><path d="m200 304h-64c-4.417969 0-8 3.582031-8 8v32c0 4.417969 3.582031 8 8 8h64c4.417969 0 8-3.582031 8-8v-32c0-4.417969-3.582031-8-8-8zm-56 32v-16h11.054688l8 16zm48 0h-11.054688l-8-16h19.054688zm0 0"/><path d="m336 272h16v16h-16zm0 0"/></svg>