<svg height="416pt" viewBox="-56 0 416 416" width="416pt" xmlns="http://www.w3.org/2000/svg"><path d="m301.773438 413.535156c1.515624-1.5625 2.320312-3.679687 2.234374-5.855468l-1.90625-47.535157-.65625-16.464843-6.183593-154.625-6.015625-150.34375-.320313-8c-.214843-4.753907-1.492187-9.402344-3.742187-13.597657l-.089844-.144531c-1.339844-2.539062-3.023438-4.878906-5-6.960938-.820312-.847656-1.6875-1.648437-2.597656-2.398437-.433594-.371094-.882813-.722656-1.328125-1.066406-.800781-.621094-1.664063-1.246094-2.5625-1.789063-1.28125-.792968-2.617188-1.492187-4-2.097656-.597657-.257812-1.222657-.433594-1.839844-.65625-1.152344-.417969-2.328125-.769531-3.519531-1.054688-.589844-.136718-1.175782-.265624-1.777344-.371093-1.816406-.351563-3.664062-.5468752-5.519531-.574219h-209.886719c-1.84375.015625-3.683594.195312-5.496094.535156-.601562.105469-1.183594.234375-1.777344.367188-1.191406.289062-2.367187.640625-3.519531 1.058594-.613281.222656-1.238281.398437-1.839843.65625-1.378907.601562-2.714844 1.304687-4 2.09375-.894532.546874-1.71875 1.167968-2.558594 1.792968-.449219.34375-.898438.695313-1.328125 1.0625-.914063.75-1.78125 1.550782-2.601563 2.402344-1.976562 2.082031-3.65625 4.421875-5 6.960938l-.085937.140624c-2.253907 4.199219-3.53125 8.84375-3.746094 13.601563l-.367187 9.160156-5.96875 149.167969-6.199219 154.679688-.65625 16.464843-1.9101565 47.535157c-.0898437 2.175781.7148435 4.296874 2.2265625 5.863281 1.507813 1.570312 3.59375 2.457031 5.773437 2.457031h120c4 0 7.386719-2.957031 7.925782-6.921875l12.074218-88.492187.671876-4.882813 3.328124-24.503906 3.335938 24.496093.671875 4.878907 12.0625 88.496093c.535156 3.96875 3.925781 6.929688 7.929687 6.929688h120c2.175782-.003906 4.257813-.890625 5.765626-2.464844zm-172.023438-77.535156h-110.855469l6.535157-163.519531 10.488281 50.328125c8.160156 39.378906 35.535156 72.035156 72.886719 86.945312l8.714843 3.476563c4.527344 1.808593 9.214844 3.816406 14.453125 6.195312zm-111.496094 16h109.3125l-.640625 4.71875-1.542969 11.28125h-107.777343zm145.695313-90.128906c-.917969-3.441406-4.019531-5.84375-7.582031-5.871094h-8.722657c-3.558593.027344-6.664062 2.429688-7.582031 5.871094-4.082031-2.347656-6.925781-6.375-7.769531-11.007813l-5.261719-28.941406c-1.816406-10 2.507812-20.121094 10.992188-25.71875 8.480468-5.601563 19.484374-5.601563 27.96875 0 8.480468 5.597656 12.804687 15.71875 10.988281 25.71875l-5.261719 28.941406c-.84375 4.632813-3.683594 8.660157-7.769531 11.007813zm23.511719-8.144532 5.257812-28.941406c2.976562-16.3125-4.070312-32.820312-17.902344-41.960937-13.835937-9.136719-31.785156-9.136719-45.617187 0-13.835938 9.140625-20.878907 25.648437-17.90625 41.960937l5.257812 28.941406c2.074219 11.371094 10.125 20.734376 21.054688 24.488282l-3.367188 24.695312c-3.769531-1.652344-7.320312-3.15625-10.769531-4.535156l-8.71875-3.488281c-32.390625-12.902344-56.132812-41.210938-63.199219-75.351563l-23.519531-112.878906 1.367188-34.136719c5.570312 4.570313 12.28125 7.539063 19.40625 8.59375 32.898437 4.863281 66.109374 7.308594 99.363281 7.3125 35.980469-.007812 71.910156-2.875 107.4375-8.570312 6.957031-1.125 13.488281-4.082031 18.921875-8.566407l1.414062 35.367188-23.519531 112.878906c-7.070313 34.140625-30.8125 62.449219-63.199219 75.351563l-8.734375 3.488281c-3.441406 1.378906-6.992187 2.882812-10.761719 4.535156l-3.320312-24.695312c10.929688-3.753906 18.984375-13.117188 21.054688-24.488282zm85.664062-211.902343c-.667969 11.179687-8.988281 20.410156-20.039062 22.238281-66.855469 10.714844-134.957032 11.125-201.933594 1.21875-11.683594-1.746094-20.335938-11.757812-20.378906-23.570312 6.417968 5.589843 14.355468 9.128906 22.800781 10.167968l1.152343.136719c32.273438 3.996094 64.761719 6 97.28125 6 32.503907-.007813 64.972657-2.015625 97.230469-6.015625l1.25-.152344c8.371094-1.023437 16.25-4.515625 22.636719-10.023437zm-101.117188 277.601562c5.238282-2.402343 9.925782-4.378906 14.445313-6.195312l8.730469-3.476563c37.359375-14.902344 64.746094-47.558594 72.910156-86.945312l10.488281-50.328125 6.535157 163.519531h-110.855469zm5.078126 37.292969-.640626-4.71875h109.3125l.640626 16h-107.769532zm79.863281-340.71875c1.136719.003906 2.269531.128906 3.378906.375.140625 0 .269531.089844.40625.121094.980469.238281 1.9375.566406 2.855469.984375l.175781.09375c2.035156.976562 3.839844 2.367187 5.296875 4.089843-4.019531 7.890626-11.703125 13.265626-20.496094 14.335938l-1.246094.152344c-63.316406 7.832031-127.359374 7.832031-190.675781 0l-1.148437-.136719c-8.808594-1.0625-16.507813-6.4375-20.546875-14.335937 1.460937-1.71875 3.265625-3.109376 5.296875-4.078126l.175781-.097656c.917969-.417968 1.875-.746094 2.855469-.984375.136718 0 .265625-.085937.410156-.121093 1.105469-.253907 2.238281-.386719 3.375-.398438zm-240.613281 384 .636718-16h106.234375l-2.183593 16zm166.65625 0-2.1875-16h106.234374l.640626 16zm0 0"/></svg>