<svg height="480pt" viewBox="-12 0 480 480.00049" width="480pt" xmlns="http://www.w3.org/2000/svg"><path d="m430.242188 88h-102.242188c-8.835938 0-16 7.164062-16 16v60c.039062 10.925781 5.066406 21.238281 13.648438 28-8.582032 6.761719-13.609376 17.074219-13.648438 28v12h-32c-.027344-2.730469-.523438-5.4375-1.472656-8h9.472656c4.417969 0 8-3.582031 8-8v-120c-.027344-26.5-21.5-47.972656-48-48h-200c-26.5.027344-47.9726562 21.5-48 48v120c0 4.417969 3.582031 8 8 8h9.472656c-.949218 2.5625-1.445312 5.269531-1.472656 8v32c0 13.253906 10.746094 24 24 24h8v120c0 13.253906 10.746094 24 24 24h36.296875c24.132813 30.421875 60.871094 48.109375 99.703125 48 47.425781.007812 90.96875-26.207031 113.152344-68.125s19.371094-92.664062-7.304688-131.875h62.152344c4.417969 0 8-3.582031 8-8v-52c-.039062-10.925781-5.066406-21.238281-13.648438-28 8.582032-6.761719 13.609376-17.074219 13.648438-28v-13.601562l51.832031-11.519532c12.800781-2.867187 21.398438-14.902344 19.964844-27.941406s-12.4375-22.914062-25.554687-22.9375zm-414.242188 48h48v-16h-48v-16h88v-16h-86.863281c3.636719-14.085938 16.316406-23.945312 30.863281-24h200c17.671875 0 32 14.328125 32 32v112h-264zm16 128v-32c0-4.417969 3.582031-8 8-8h216c4.417969 0 8 3.582031 8 8v32c0 4.417969-3.582031 8-8 8h-216c-4.417969 0-8-3.582031-8-8zm240 88c0 35.347656-28.652344 64-64 64s-64-28.652344-64-64 28.652344-64 64-64c35.328125.039062 63.960938 28.671875 64 64zm-168 64h-32c-4.417969 0-8-3.582031-8-8v-120h40zm104 48c-34.394531.101562-66.894531-15.738281-88-42.894531v-133.105469h40.207031c-27.652343 20.601562-38.992187 56.601562-28.140625 89.332031 10.847656 32.730469 41.453125 54.824219 75.933594 54.824219 34.484375 0 65.085938-22.09375 75.9375-54.824219 10.847656-32.730469-.492188-68.730469-28.144531-89.332031h.207031c12.429688-.035156 22.765625-9.578125 23.792969-21.96875 36.179687 30.210938 49.570312 79.839844 33.5 124.152344-16.066407 44.308594-58.160157 73.816406-105.292969 73.816406zm160-200h-67c-5.613281-5.902344-11.777344-11.257812-18.398438-16h85.398438zm0-44v12h-40v-12c0-11.046875 8.953125-20 20-20s20 8.953125 20 20zm-40-56v-12h40v12c0 11.046875-8.953125 20-20 20s-20-8.953125-20-20zm104.351562-40.71875-57.230468 12.71875h-47.121094v-32h102.242188c4.984374-.015625 9.183593 3.730469 9.726562 8.691406.542969 4.957032-2.742188 9.527344-7.617188 10.589844zm0 0"/><path d="m120 88h16v16h-16zm0 0"/><path d="m80 120h16v16h-16zm0 0"/><path d="m286.238281 38.523438 27.8125-28.75 11.5 11.125-27.8125 28.75zm0 0"/><path d="m311.871094 56.007812 39.992187-.664062.265625 16-39.992187.664062zm0 0"/><path d="m256 0h16v32h-16zm0 0"/></svg>