<svg height="468pt" viewBox="0 -95 468.30687 468" width="468pt" xmlns="http://www.w3.org/2000/svg"><path d="m.171875 113.753906c.128906 3.203125.289063 6.320313.535156 9.480469.257813 3.472656.617188 6.929687 1.007813 10.402344.289062 2.480469.59375 4.949219.953125 7.421875.628906 4.390625 1.371093 8.761718 2.230469 13.113281.320312 1.601563.640624 3.199219.984374 4.800781 1.175782 5.445313 2.464844 10.878906 4 16.261719.785157 2.777344 3.003907 4.917969 5.808594 5.601563l7.519532 1.824218 10.191406 27.199219c1.191406 3.101563 4.175781 5.140625 7.496094 5.128906h30.136718c3.300782 0 6.261719-2.027343 7.457032-5.105469l4.933593-12.695312 20.320313 4.921875 28.578125 4.140625c18.960937 2.753906 37.4375 8.183594 54.871093 16.128906l27.65625 12.601563c10.558594 4.789062 21.4375 8.851562 32.550782 12.152343l10 26.664063c1.171875 3.125 4.160156 5.191406 7.496094 5.191406h30.136718c3.300782 0 6.261719-2.027343 7.457032-5.105469l6.398437-16.527343c1.097656.046875 2.175781.144531 3.28125.175781l38.03125 1.066406c2.59375.070313 5.175781.101563 7.769531.101563 10.75-.046875 21.488282-.71875 32.160156-2.015625h.148438c.324219 0 .644531-.023438.960938-.0625.511718-.058594 1.015624-.175782 1.527343-.242188 5.601563-.703125 11.121094-1.597656 16.648438-2.671875 1.34375-.246093 2.707031-.429687 4.042969-.703125 6.78125-1.382812 13.535156-2.976562 20.214843-4.878906 23.0625-6.371094 37.707031-28.992188 34.085938-52.640625-.117188-.847656-.292969-1.671875-.460938-2.503906-.261719-1.328125-.582031-2.640625-.960937-3.9375-.289063-1-.570313-1.992188-.921875-2.96875-.351563-.972657-.800781-2.03125-1.285157-3.039063-.878906-1.992187-1.894531-3.925781-3.042968-5.777344-.414063-.679687-.796875-1.367187-1.253906-2.023437-.753907-1.085937-1.601563-2.109375-2.402344-3.125-.550782-.671875-1.117188-1.328125-1.710938-1.96875-.855468-.9375-1.710937-1.855469-2.648437-2.722656-.800781-.742188-1.664063-1.414063-2.519531-2.109375-4.710938-3.84375-10.109376-6.75-15.910157-8.570313l-53.320312-16.359375c-2.023438-.617187-3.941407-1.527344-5.695313-2.703125l-6.289062-4.199219-.066406-.074218-29.71875-19.925782h-.0625c-10.273438-6.914062-19.679688-13.273437-28-18.921874l-32.625-22.453126c-4.136719-2.929687-6.9375-4.976562-8.039063-5.898437-1.25-1.785156-3.648437-4.910156-8.3125-10.640625l-.335937-.390625c-7.433594-9.144531-20.472657-24.734375-43.585938-51.929687l-.175781-.199219c-.414063-.429688-.875-.8125-1.375-1.144531-.238281-.21875-.492188-.421876-.75-.613282-.714844-.382812-1.480469-.652344-2.273438-.800781-.097656 0-.183593-.082031-.273437-.097656-.890625-.15625-1.804688-.15625-2.695313 0-.929687.152343-1.820312.464843-2.640625.929687l-73.160156 41.238282c-7.03125 3.957031-15.183594 5.449218-23.160156 4.242187-9.410156-1.425781-17.867188-6.550781-23.480469-14.242187l-12.855469-17.503907c-7.054687-9.488281-18.230468-15.0273435-30.054687-14.894531-15.734375-.0585938-29.644531 10.214844-34.214844 25.269531-8.320313 27.261719-12.167969 55.695313-11.3867188 84.1875 0 1.390625 0 2.78125.0742188 4.140625zm68.121094 16.929688-3.824219 45.472656-40.425781-9.800781c-1.601563-6.183594-2.976563-12.421875-4.121094-18.695313-.246094-1.367187-.40625-2.746094-.640625-4.121094-.839844-5.128906-1.597656-10.269531-2.085938-15.4375-.113281-1.136718-.183593-2.265624-.289062-3.402343-.488281-5.765625-.800781-11.558594-.910156-17.375 0-.417969 0-.800781 0-1.242188-.066406-6.550781.109375-13.117187.566406-19.710937l34 14.695312c11.667969 5.039063 18.808594 16.976563 17.730469 29.640625zm-2.730469 68.28125h-19.121094l-4.292968-11.449219 25.597656 5.878906zm226.160156 58.398437-2.160156 5.601563h-19.121094l-4.132812-11.023438c3.558594.757813 7.125 1.46875 10.71875 2.078125zm137.601563-24.648437c-5.746094 1.601562-11.546875 2.984375-17.359375 4.21875-2.257813.46875-4.546875.855468-6.816406 1.269531-2.273438.417969-4.5625.761719-6.847657 1.121094v-2.738281c.007813-15.667969 7.628907-30.355469 20.4375-39.382813l24.425781-17.191406c1.367188 1.402343 2.605469 2.925781 3.695313 4.550781.152344.226562.289063.464844.433594.695312.882812 1.394532 1.65625 2.851563 2.316406 4.363282.160156.367187.320313.734375.472656 1.117187.5625 1.445313 1.011719 2.929688 1.351563 4.441407.097656.425781.234375.800781.304687 1.265624.375 1.917969.574219 3.867188.585938 5.824219-.019531 14.152344-9.390625 26.585938-22.992188 30.503907zm-76.617188-91.09375-17.40625 19.460937c-3.378906 3.734375-9.050781 4.277344-13.074219 1.25-2.164062-1.625-3.550781-4.085937-3.816406-6.777343-.269531-2.695313.605469-5.378907 2.410156-7.398438l15.589844-17.457031zm-57.929687-39.015625-39.382813 38.496093c-5 4.75-12.902343 4.550782-17.65625-.449218-4.75-5-4.550781-12.90625.449219-17.65625l36.800781-34.03125c5.023438 3.511718 11.511719 7.992187 19.789063 13.640625zm-118.679688-17.355469-13.910156-15.757812 16.984375-13.121094 13.800781 14.160156zm-49.597656 11.777344 5.4375-4.191406 15.480469 17.449218-5.855469 5.101563c-3.261719 2.847656-7.816406 3.695312-11.882812 2.210937-4.070313-1.484375-7.007813-5.066406-7.667969-9.347656-.664063-4.277344 1.058593-8.578125 4.488281-11.222656zm23-17.742188 14.597656 16.488282-4.574218 4-14.878907-16.738282zm62.078125-12.585937-30.734375-31.550781.742188-.425782 28.847656-16.328125 34.097656 40.617188-14.273438 9.601562c-5.867187 3.957031-13.726562 3.152344-18.671874-1.914062zm-184.800781-36.566407c2.644531-8.5 10.613281-14.210937 19.515625-13.976562 6.539062.011719 12.6875 3.125 16.566406 8.390625l12.855469 17.503906c15.566406 21.203125 44.53125 27.410157 67.417968 14.449219l23.316407-13.199219 1.507812 1.542969-22.257812 17.199219-17.601563 13.601562-11.34375 8.742188c-8.050781 6.207031-12.089844 16.300781-10.535156 26.347656 1.550781 10.046875 8.449219 18.449219 18 21.933594 9.550781 3.480469 20.242188 1.488281 27.894531-5.199219l11.929688-10.402344.863281-.75 39.738281-34.664062c10.359375 7.246094 24.117188 7.355468 34.589844.269531l15.578125-10.496094c1.542969 1.945313 2.636719 3.363281 3.039062 4 1.167969 1.496094 2.542969 2.820313 4.078126 3.929688l-34.628907 31.886719c-7.523437 6.976562-10.714843 17.460937-8.351562 27.445312 2.359375 9.984375 9.90625 17.925781 19.753906 20.792969 9.851563 2.871093 20.484375.222656 27.835937-6.933594l41.71875-40.800781c4.496094 3.042968 9.378907 6.328125 14.714844 9.921875l-14.074218 15.832031c-9.347657 10.582031-8.402344 26.730469 2.121093 36.148438 10.519531 9.417968 26.671875 8.574218 36.160157-1.882813l18.976562-21.160156.621094.414062c3.050781 2.035157 6.378906 3.613281 9.882812 4.6875l51.054688 15.648438-18.175782 12.800781c-17.050781 12.035156-27.191406 31.601562-27.199218 52.472656v4.726563c-10.511719 1.039062-21.078125 1.449219-31.640625 1.230469l-38.03125-1.0625c-10.914063-.316407-21.789063-1.382813-32.554688-3.199219l-24.863281-5.710938c-.304688-.050781-.617188-.082031-.925781-.089843-11.21875-3.222657-22.183594-7.269532-32.800781-12.113282l-27.65625-12.589844c-18.8125-8.570312-38.742188-14.429687-59.199219-17.402343l-27.839844-4-26.03125-6.308594c-.152344-.042969-.273437-.160156-.425781-.203125h-.113282l4-47.824219c1.667969-19.535156-9.351562-37.945312-27.359374-45.703125l-38.679688-16.71875c1.78125-13.386718 4.652344-26.609375 8.585938-39.527344zm0 0"/><path d="m314.691406 219.859375c10.839844-.011719 21.527344-2.5625 31.199219-7.457031l18.59375-9.382813-7.203125-14.28125-18.574219 9.386719c-12.109375 6.109375-26.089843 7.382812-39.105469 3.558594l-79.140624-23.199219-4.515626 15.351563 79.152344 23.199218c6.363282 1.871094 12.960938 2.824219 19.59375 2.824219zm0 0"/><path d="m111.136719 166.074219 3.414062-15.628907 15.628907 3.414063-3.414063 15.628906zm0 0"/><path d="m142.402344 172.90625 3.421875-15.628906 15.628906 3.417968-3.421875 15.632813zm0 0"/><path d="m173.664062 179.753906 3.421876-15.628906 15.628906 3.421875-3.421875 15.628906zm0 0"/></svg>