<svg height="480pt" viewBox="-48 0 480 480.00001" width="480pt" xmlns="http://www.w3.org/2000/svg"><path d="m66.597656 116.671875-28.488281-12c-3.511719-1.484375-7.585937-.28125-9.726563 2.871094l-26.992187 39.65625c-2.152344 3.15625-1.773437 7.390625.902344 10.113281l23.3125 23.6875c.160156.160156.359375.207031.527343.351562-14.777343 41.699219-13.273437 87.433594 4.207032 128.074219l-20.320313 23.277344c-2.507812 2.871094-2.640625 7.113281-.316406 10.136719l29.269531 38.039062c1.515625 1.96875 3.859375 3.121094 6.34375 3.121094 1.230469.015625 2.441406-.257812 3.542969-.800781l25.386719-12.527344c7.070312 6.375 14.644531 12.167969 22.648437 17.328125-.050781.484375-.050781.972656 0 1.457031l12.878907 70.863281c2.085937 11.390626 12.003906 19.667969 23.582031 19.679688h117.296875c11.601562-.003906 21.535156-8.300781 23.609375-19.710938l3.429687-18.855468 9.761719-53.671875c68.328125-44.011719 97.550781-129.144531 70.65625-205.839844l24.167969-24.625c2.675781-2.714844 3.0625-6.941406.929687-10.097656l-26.984375-39.6875c-2.144531-3.152344-6.214844-4.355469-9.730468-2.871094l-28.886719 12.199219c-9.105469-9.277344-19.207031-17.523438-30.121094-24.59375l-9.757813-53.671875-3.433593-18.855469c-2.070313-11.425781-12.027344-19.7304688-23.640625-19.71875h-117.296875c-11.597657.00390625-21.535157 8.300781-23.605469 19.710938l-3.433594 18.855468-9.757812 53.671875c-10.851563 7.027344-20.894532 15.21875-29.960938 24.433594zm-48.289062 34.097656 19.617187-28.847656 17.40625 7.351563c-8.992187 11.070312-16.605469 23.195312-22.671875 36.101562zm29.304687 215.152344-21.265625-27.640625 11.601563-13.296875c6.730469 12.160156 14.871093 23.484375 24.257812 33.734375zm210.902344 91.511719c-.5 2.785156-2.441406 5.097656-5.09375 6.078125-.886719.320312-1.824219.484375-2.769531.488281h-117.296875c-3.863281 0-7.179688-2.765625-7.871094-6.566406l-1.710937-9.433594h136.464843l-1.714843 9.433594zm4.632813-25.433594h-142.289063l-6.167969-33.9375c48.769532 23.917969 105.859375 23.917969 154.625 0zm83.503906-310.078125 19.609375 28.855469-14.726563 15c-6.066406-12.984375-13.695312-25.183594-22.714844-36.320313zm5.351562 118.078125c0 88.367188-71.632812 160-160 160-88.363281 0-160-71.632812-160-160s71.636719-160 160-160c88.324219.101562 159.898438 71.675781 160 160zm-218.648437-224h117.296875c.945312.003906 1.882812.167969 2.769531.488281 2.652344.980469 4.59375 3.292969 5.09375 6.078125l1.722656 9.433594h-136.464843l1.71875-9.433594c.691406-3.800781 4-6.5625 7.863281-6.566406zm-12.496094 32h142.289063l6.167968 33.9375c-48.765625-23.917969-105.855468-23.917969-154.625 0zm0 0"/><path d="m48.003906 240c0 79.527344 64.472656 144 144 144 79.53125 0 144-64.472656 144-144s-64.46875-144-144-144c-79.488281.09375-143.90625 64.507812-144 144zm272 0c0 70.691406-57.304687 128-128 128-70.691406 0-128-57.308594-128-128s57.308594-128 128-128c70.660156.082031 127.917969 57.34375 128 128zm0 0"/><path d="m169.4375 193.167969c-17.910156-11.9375-41.167969-12.234375-59.375-.753907-18.210938 11.480469-27.972656 32.589844-24.921875 53.898438l.214844 1.535156c.566406 3.90625 1.550781 7.738282 2.945312 11.433594.191407 1.050781.597657 2.054688 1.191407 2.941406 3.769531 8.554688 9.675781 15.996094 17.152343 21.601563l80.5625 60.398437c2.84375 2.132813 6.753907 2.132813 9.597657 0l80.5625-60.414062c7.476562-5.609375 13.382812-13.046875 17.148437-21.601563.59375-.886719 1-1.886719 1.195313-2.933593 1.386718-3.691407 2.371093-7.515626 2.933593-11.417969l.234375-1.597657c3.042969-21.308593-6.722656-42.417968-24.929687-53.894531-18.210938-11.476562-41.46875-11.175781-59.375.765625l-22.570313 15.078125zm98.328125 77.839843-75.761719 56.824219-75.757812-56.800781c-2.046875-1.535156-3.941406-3.269531-5.648438-5.175781h49.40625c2.121094 0 4.15625-.84375 5.65625-2.34375l8.746094-8.785157 18.726562 31.203126c1.410157 2.351562 3.929688 3.820312 6.671876 3.886718h.199218c2.675782 0 5.175782-1.339844 6.65625-3.570312l13.601563-20.429688h53.128906c-1.703125 1.910156-3.585937 3.648438-5.625 5.191406zm-44.3125-64.527343c12.652344-8.4375 29.082031-8.652344 41.953125-.546875 12.871094 8.101562 19.777344 23.007812 17.640625 38.066406l-.234375 1.601562c-.265625 1.425782-.609375 2.839844-1.03125 4.230469h-65.777344c-2.671875 0-5.171875 1.335938-6.65625 3.558594l-8.980468 13.480469-17.507813-29.160156c-1.265625-2.109376-3.433594-3.519532-5.878906-3.824219-2.441407-.28125-4.878907.554687-6.632813 2.28125l-13.65625 13.664062h-54.460937c-.425781-1.398437-.773438-2.820312-1.042969-4.257812l-.214844-1.542969c-2.164062-15.0625 4.734375-29.992188 17.609375-38.105469 12.875-8.117187 29.320313-7.898437 41.976563.554688l27.007812 18.007812c2.6875 1.792969 6.191406 1.792969 8.878906 0zm0 0"/><path d="m152.003906 152h16v16h-16zm0 0"/><path d="m184.003906 144h16v24h-16zm0 0"/><path d="m216.003906 136h16v32h-16zm0 0"/></svg>