<svg height="437pt" viewBox="0 -3 437.45954 437" width="437pt" xmlns="http://www.w3.org/2000/svg"><path d="m297.832031 91.640625c12.746094-26.890625 5.273438-59.023437-18.03125-77.53125-23.304687-18.507813-56.296875-18.507813-79.601562 0-23.304688 18.507813-30.777344 50.640625-18.03125 77.53125l14.449219-6.863281c-9.550782-20.167969-3.9375-44.257813 13.539062-58.132813s42.210938-13.875 59.6875 0 23.089844 37.964844 13.539062 58.132813zm0 0"/><path d="m338.792969 190.90625c-1.191407-1.441406-2.511719-2.757812-3.761719-4.144531-4.261719-4.820313-8.878906-9.316407-13.816406-13.445313-6.460938-5.308594-13.429688-9.96875-20.800782-13.921875v-.046875c-2.933593-1.601562-5.980468-2.960937-9.039062-4.304687-.589844-.257813-1.152344-.578125-1.742188-.800781-2.871093-1.214844-5.824218-2.222657-8.800781-3.199219-1.039062-.351563-2.03125-.800781-3.078125-1.113281-.160156-.046876-.304687-.121094-.464844-.167969v.046875c-8.007812-2.453125-16.238281-4.109375-24.570312-4.941406-4.183594-.457032-8.480469-.664063-12.71875-.664063-70.691406 0-128 57.308594-128 128s57.308594 128 128 128 128-57.308594 128-128c0-.160156 0-.3125 0-.472656v-.054688l-.046875-.714843c-.246094-29.1875-10.503906-57.410157-29.066406-79.941407zm-.105469 28.425781c3.457031 6.441407 6.269531 13.210938 8.402344 20.207031h.039062c2.121094 6.910157 3.5625 14.015626 4.304688 21.207032h-.234375l.242187 3.449218h-3.441406v16h3.59375c-4.234375 59.613282-54.550781 105.386719-114.300781 103.972657-59.746094-1.410157-107.84375-49.507813-109.261719-109.253907-1.414062-59.746093 44.355469-110.066406 103.96875-114.304687v3.59375h16v-3.59375c8.542969.5625 16.992188 2.113281 25.175781 4.617187.527344.160157 1.03125.382813 1.601563.558594 2.957031.96875 5.886718 2 8.734375 3.203125.480469.199219.929687.453125 1.398437.664063 9.464844 4.144531 18.3125 9.582031 26.289063 16.148437 1.878906 1.554688 3.648437 3.25 5.425781 4.929688.800781.800781 1.734375 1.503906 2.542969 2.3125 2.574219 2.589843 5.039062 5.304687 7.351562 8.128906 4.636719 5.644531 8.710938 11.726563 12.167969 18.160156zm0 0"/><path d="m232 183.402344h16v19.199218h-16zm0 0"/><path d="m232 221.800781h16v19.203125h-16zm0 0"/><path d="m271.199219 264.203125h19.199219v16h-19.199219zm0 0"/><path d="m309.601562 264.203125h19.199219v16h-19.199219zm0 0"/><path d="m247.503906 249.523438c-2.414062-.84375-4.949218-1.289063-7.503906-1.320313-10.257812-.039063-19.394531 6.472656-22.710938 16.175781-3.320312 9.707032-.078124 20.445313 8.054688 26.695313-17.878906 7.039062-28.226562 25.800781-24.640625 44.675781 3.582031 18.878906 20.082031 32.542969 39.296875 32.542969s35.714844-13.664063 39.296875-32.542969c3.585937-18.875-6.761719-37.636719-24.640625-44.675781 9.875-7.515625 12.277344-21.375 5.511719-31.777344l42.144531-54.183594-12.625-9.824219zm-7.503906 14.679687c4.417969 0 8 3.582031 8 8s-3.582031 8-8 8-8-3.582031-8-8 3.582031-8 8-8zm24 64c-.019531 1.976563-.289062 3.941406-.800781 5.847656l-18.75-12.503906-8.882813 13.3125 18.753906 12.496094c-4.117187 3.132812-9.144531 4.835937-14.320312 4.847656-13.253906 0-24-10.746094-24-24s10.746094-24 24-24 24 10.746094 24 24zm0 0"/><path d="m389.0625 74.53125c-1.550781-1.4375-3.582031-2.242188-5.695312-2.257812-2.109376.03125-4.121094.894531-5.597657 2.402343l-33.402343 34.472657c-3.078126 3.167968-3 8.234374.167968 11.308593l-17.238281 17.785157c-14.488281-9.503907-30.429687-16.574219-47.199219-20.925782-5.308594-1.367187-10.679687-2.457031-16.097656-3.273437v-17.839844c3.800781 0 7.078125-2.675781 7.839844-6.402344l8-40c.480468-2.351562-.121094-4.796875-1.640625-6.660156-1.519531-1.859375-3.796875-2.9375-6.199219-2.9375h-64c-2.402344 0-4.679688 1.078125-6.199219 2.9375-1.519531 1.863281-2.121093 4.308594-1.640625 6.660156l8 40c.761719 3.726563 4.039063 6.402344 7.839844 6.402344v17.886719c-23.699219 3.6875-46.269531 12.636718-66.054688 26.191406l-14.746093-14.75c3.125-3.125 3.125-8.1875 0-11.3125l-39.597657-39.601562c-3.175781-3-8.140624-3-11.3125 0l-33.9375 33.945312c-3.121093 3.125-3.121093 8.1875 0 11.3125l39.601563 39.589844c3.121094 3.125 8.1875 3.125 11.3125 0l13.460937 13.472656c-13.910156 17.4375-23.996093 37.609375-29.597656 59.199219-1.363281 5.296875-2.457031 10.660156-3.273437 16.066406h-17.855469v16h16.222656c-.546875 10.691406-.011718 21.414063 1.601563 32h-33.824219v16h37.136719c2.90625 11.070313 6.988281 21.800781 12.183593 32h-65.320312v16h74.617188c7.75 11.84375 17.039062 22.601563 27.621093 32h-86.238281v16h107.640625c63.988281 39.847656 147.117187 29.570313 199.476563-24.660156 52.355468-54.230469 59.707031-137.671875 17.636718-200.21875l17.734375-18.320313c1.5 1.453125 3.511719 2.261719 5.601563 2.253906h.117187c2.109375-.03125 4.125-.890624 5.601563-2.398437l33.390625-34.480469c3.078125-3.171875 3.003906-8.234375-.167969-11.3125zm-126.824219-18.328125-4.796875 24h-34.890625l-4.796875-24zm-14.238281 40v16h-16v-16zm-180.6875 18.015625 22.625-22.632812 28.285156 28.289062-22.621094 22.625zm56.566406 22.625 13.183594 13.183594c-4.078125 3.429687-8 7.046875-11.734375 10.886718l-12.761719-12.757812zm255.570313 171.472656c-19.90625 77.046875-98.511719 123.367188-175.558594 103.441406-77.042969-19.925781-123.339844-98.546874-103.390625-175.585937 19.945312-77.039063 98.578125-123.3125 175.613281-103.34375 37.109375 9.34375 68.925781 33.167969 88.34375 66.144531 19.417969 32.976563 24.816407 72.355469 14.992188 109.34375zm-16.371094-138c-6.800781-8.25-14.417969-15.796875-22.726563-22.53125l15.664063-16.160156 22.976563 22.273438zm32.800781-22.347656-34.472656-33.367188 22.265625-22.976562 34.472656 33.378906zm0 0"/><path d="m32 248.203125h16v16h-16zm0 0"/><path d="m16 296.203125h16v16h-16zm0 0"/><path d="m0 344.203125h16v16h-16zm0 0"/><path d="m16 392.203125h16v16h-16zm0 0"/></svg>