<svg height="480pt" viewBox="0 -128 480.0986 480" width="480pt" xmlns="http://www.w3.org/2000/svg"><path d="m416.089844 96.046875c-8.441406-.003906-16.800782 1.671875-24.589844 4.929687l-8.207031-16.496093-8-16-7.203125-14.320313v-22.113281h17.488281c.242187.671875.402344 1.351563.699219 2.007813 4.773437 10.410156 16.234375 15.996093 27.371094 13.339843 11.140624-2.652343 18.855468-12.800781 18.425781-24.246093-.429688-11.441407-8.882813-20.984376-20.1875-22.796876-11.308594-1.8125-22.316407 4.617188-26.300781 15.351563 0 .113281-.046876.234375-.085938.34375h-25.410156c-4.417969 0-8 3.582031-8 8v32c-.011719 1.238281.261718 2.464844.800781 3.578125l3.042969 6.078125-11.722656 1.671875c-22.597657 3.242188-44.859376 8.5-66.519532 15.714844l-7.160156 2.253906-2.96875-10.398438 3.015625-.503906c10.769531-1.804687 18.355469-11.554687 17.457031-22.433594-.898437-10.882812-9.988281-19.253906-20.902344-19.265624h-59.042968c-4.417969 0-8 3.582031-8 8v5.1875c-.003906 18.84375 15.277344 34.121093 34.121094 34.117187 1.878906 0 3.75-.15625 5.601562-.460937l11.839844-1.976563 3.582031 12.542969-109.542969 34.480468-13.457031-47.128906 18.289063-3.046875c10.765624-1.804687 18.355468-11.554687 17.457031-22.433593-.902344-10.878907-9.988281-19.253907-20.90625-19.261719h-58.984375c-4.417969 0-8 3.578125-8 8v5.183593c.007812 18.839844 15.28125 34.105469 34.121094 34.101563.695312 0 1.386718-.136719 2.082031-.175781l3.628906 12.695312-18.140625 15.875c-22.238281-16.265625-52.390625-16.472656-74.847656-.515625-22.457032 15.957031-32.1875 44.492188-24.148438 70.84375 8.035156 26.351563 32.035156 44.601563 59.578125 45.308594 27.539063.707031 52.441407-16.292969 61.816407-42.199219l13.175781 1.464844c3.085937 9.804688 12.101562 16.527344 22.378906 16.6875 10.273437.160156 19.496094-6.28125 22.886719-15.984375h82.941406c2.664062 7.449219 8.824219 13.109375 16.472656 15.128906l6.464844 19.398438c1.089844 3.269531 4.148438 5.476562 7.589844 5.472656h24v-16h-18.230469l-3.472656-10.398437c8.351562-3.953126 13.6875-12.359376 13.703125-21.601563-.011719-3.5625-.832032-7.078125-2.398438-10.277344l64.214844-64.21875 3.730469 7.464844c-24.957031 18.914063-32.523438 53.125-17.875 80.800781 14.648437 27.671875 47.199219 40.648438 76.867187 30.640625 29.671875-10.003906 47.71875-40.039062 42.617188-70.933593-5.101563-30.894532-31.84375-53.539063-63.15625-53.476563zm-11.335938-79.269531c4.019532-1.84375 8.765625-.082032 10.609375 3.933594 1.839844 4.015624.078125 8.765624-3.9375 10.609374-4.015625 1.839844-8.761719.078126-10.605469-3.9375-.902343-1.925781-.996093-4.132812-.253906-6.128906.738282-1.992187 2.25-3.605468 4.1875-4.476562zm-167.582031 47.023437c-4.765625.796875-9.648437-.34375-13.570313-3.167969-3.917968-2.824218-6.542968-7.101562-7.292968-11.871093h50.792968c2.601563-.003907 4.769532 1.996093 4.976563 4.589843.210937 2.59375-1.609375 4.914063-4.179687 5.328126zm22.527344 42 14.503906 50.75c-3.988281 2.859375-7.003906 6.871094-8.640625 11.496094h-82.941406c-3.378906-9.554687-12.394532-15.957031-22.53125-16-2.121094.03125-4.230469.34375-6.269532.9375l-3.695312-12.9375zm-163.390625-57.039062h50.792968c2.601563-.003907 4.769532 1.996093 4.976563 4.589843.210937 2.59375-1.609375 4.914063-4.179687 5.328126l-20.085938 3.34375-.058594-.175782-1.542968.441406-9.0625 1.511719c-4.765626.796875-9.652344-.34375-13.570313-3.167969-3.917969-2.824218-6.542969-7.101562-7.292969-11.871093zm15.78125 111.285156c0 1.480469-.085938 2.929687-.222656 4.378906l-23.953126-2.664062c.050782-.578125.175782-1.128907.175782-1.714844-.023438-5.125-1.707032-10.109375-4.796875-14.199219l18.125-15.863281c6.898437 8.503906 10.664062 19.117187 10.671875 30.0625zm-40 0c0 4.417969-3.578125 8-8 8-4.417969 0-8-3.582031-8-8s3.582031-8 8-8c4.421875 0 8 3.582031 8 8zm-8 48c-20.390625.054687-38.589844-12.785156-45.382813-32.011719-6.789062-19.226562-.691406-40.648437 15.207031-53.414062 15.902344-12.769532 38.136719-14.09375 55.441407-3.308594l-19.878907 17.398438c-1.765624-.429688-3.570312-.652344-5.386718-.664063-10.855469-.015625-20.371094 7.257813-23.203125 17.738281-2.832031 10.480469 1.722656 21.554688 11.105469 27.011719 9.386718 5.457031 21.265624 3.933594 28.972656-3.71875l26.703125 2.96875c-7.8125 17.042969-24.828125 27.976563-43.578125 28zm49.425781-88.613281 11.265625-9.859375 15.246094 53.371093c-.886719 1.375-1.636719 2.835938-2.230469 4.359376l-10.015625-1.113282c.191406-2.023437.308594-4.070312.308594-6.144531.015625-14.820313-5.136719-29.183594-14.574219-40.613281zm46.574219 64.613281c-4.417969 0-8-3.582031-8-8s3.582031-8 8-8c4.421875 0 8 3.582031 8 8s-3.578125 8-8 8zm128-16c4.421875 0 8 3.582031 8 8s-3.578125 8-8 8c-4.417969 0-8-3.582031-8-8s3.582031-8 8-8zm10.28125-13.597656c-2.761719-1.3125-5.75-2.078125-8.800782-2.257813l-14.636718-51.34375 7.789062-2.601562c20.765625-6.894532 42.105469-11.917969 63.769532-15l17-2.398438 2.839843 5.6875zm117.71875 53.597656c-20.101563.039063-38.097656-12.472656-45.066406-31.332031s-1.429688-40.0625 13.867187-53.105469l11.457031 22.839844c-7.132812 9.925781-6.039062 23.554687 2.582032 32.21875 8.625 8.664062 22.246093 9.824219 32.207031 2.742187 9.964843-7.082031 13.34375-20.332031 7.992187-31.320312-5.347656-10.988282-17.863281-16.5-29.582031-13.027344l-10.855469-21.710938c17.984375-7.039062 38.4375-2.617187 51.902344 11.222657 13.46875 13.84375 17.328125 34.410156 9.796875 52.191406-7.53125 17.785156-24.984375 29.324219-44.300781 29.28125zm0-56c4.421875 0 8 3.582031 8 8s-3.578125 8-8 8c-4.417969 0-8-3.582031-8-8s3.582031-8 8-8zm0 0"/></svg>