<svg height="480pt" viewBox="-13 0 479 480" width="480pt" xmlns="http://www.w3.org/2000/svg"><path d="m423.316406 139.808594c-6.621094-5.851563-16.730468-5.230469-22.585937 1.390625l-.230469.273437v-69.472656c-.027344-22.082031-17.917969-39.972656-40-40h-72v-8c0-13.253906-10.746094-24-24-24h-128c-13.253906 0-24 10.746094-24 24v8h-72c-22.082031.027344-39.972656 17.917969-40 40v376c0 17.671875 14.328125 32 32 32h392c4.417969 0 8-3.582031 8-8v-120c0-13.253906-10.746094-24-24-24h-8v-19.320312c2.535156-1.277344 4.992188-2.699219 7.359375-4.265626.496094-.335937.96875-.695312 1.449219-1.039062 1.296875-.902344 2.558594-1.839844 3.792968-2.832031.550782-.4375 1.078126-.902344 1.597657-1.359375 1.121093-.960938 2.214843-1.953125 3.273437-2.976563.535156-.511719 1.054688-1.03125 1.597656-1.597656 1.007813-1.035156 1.96875-2.113281 2.914063-3.203125.496094-.566406 1-1.125 1.472656-1.710938.902344-1.121093 1.75-2.28125 2.582031-3.457031.449219-.621093.921876-1.214843 1.34375-1.855469.929688-1.390624 1.785157-2.839843 2.625-4.304687.914063-1.597656 1.746094-3.246094 2.535157-4.925781.234375-.488282.488281-.96875.714843-1.464844.652344-1.480469 1.238282-3.007812 1.796876-4.535156.152343-.417969.3125-.800782.457031-1.25.558593-1.597656 1.039062-3.199219 1.480469-4.878906.054687-.191407.121093-.367188.175781-.558594 0 0 0-.074219 0-.105469 1.527343-5.84375 2.3125-11.855469 2.335937-17.894531v-16c.003906-9.777344-1.992187-19.449219-5.871094-28.425782l14.566407-16.511718c5.851562-6.621094 5.230469-16.730469-1.390625-22.582032zm.679688 88.6875v16c-.019532 2.679687-.230469 5.351562-.632813 8h-15.367187v-40c0-4.417969-3.582032-8-8-8h-64c-4.417969 0-8 3.582031-8 8v40h-15.359375c-.40625-2.648438-.617188-5.320313-.640625-8v-16c0-30.929688 25.070312-56 56-56 30.929687 0 56 25.070312 56 56zm-5.648438 40.351562c-1.078125 2.257813-2.308594 4.441406-3.679687 6.535156-1.332031 1.988282-2.789063 3.890626-4.367188 5.6875-.351562.417969-.730469.800782-1.105469 1.21875-1.3125 1.4375-2.707031 2.804688-4.167968 4.09375-.335938.296876-.648438.617188-.992188.90625-1.75 1.46875-3.585937 2.832032-5.503906 4.078126-.445312.296874-.917969.554687-1.375.800781-1.625 1-3.296875 1.914062-5.015625 2.734375-.480469.234375-.945313.472656-1.425781.691406-2.140625.957031-4.339844 1.78125-6.582032 2.460938-.34375.105468-.703124.175781-1.046874.273437-1.964844.542969-3.957032.980469-5.96875 1.304687-.617188.101563-1.226563.207032-1.847657.289063-4.8125.691406-9.695312.691406-14.503906 0-.625-.082031-1.242187-.1875-1.859375-.289063-2.003906-.324218-3.992188-.761718-5.949219-1.304687-.351562-.097656-.714843-.167969-1.058593-.273437-2.242188-.679688-4.441407-1.503907-6.582032-2.460938-.480468-.21875-.945312-.457031-1.425781-.691406-1.71875-.820313-3.390625-1.734375-5.015625-2.734375-.453125-.28125-.925781-.542969-1.375-.800781-1.917969-1.246094-3.753906-2.609376-5.503906-4.078126-.34375-.289062-.65625-.609374-.992188-.90625-1.460937-1.289062-2.851562-2.65625-4.167968-4.09375-.375-.402343-.75-.800781-1.105469-1.21875-1.574219-1.796874-3.035157-3.695312-4.367188-5.679687v-.039063c-1.371093-2.089843-2.597656-4.269531-3.671875-6.527343l-.167968-.351563h100.992187zm-304.375-172.847656c3.378906 9.554688 12.394532 15.957031 22.527344 16h128c10.132812-.042969 19.148438-6.445312 22.527344-16h49.472656v47.246094l-1.007812-1.132813c-5.84375-6.628906-15.957032-7.261719-22.585938-1.417969l-24 21.183594c-6.625 5.851563-7.253906 15.96875-1.398438 22.59375l14.152344 16c-3.75 8.859375-5.679687 18.378906-5.671875 28v16c.023438 6.050782.816407 12.074219 2.351563 17.925782v.105468c.054687.191406.121094.367188.175781.558594.441406 1.648438.921875 3.28125 1.480469 4.882812.144531.414063.304687.796876.457031 1.246094.558594 1.535156 1.144531 3.046875 1.800781 4.527344.222656.511719.484375.992188.71875 1.496094.800782 1.664062 1.597656 3.304687 2.527344 4.90625.800781 1.464844 1.695312 2.910156 2.625 4.304687.421875.636719.894531 1.230469 1.34375 1.855469.800781 1.175781 1.679688 2.335938 2.582031 3.453125.472657.585937.976563 1.144531 1.472657 1.714844.945312 1.09375 1.90625 2.175781 2.914062 3.199219.519531.527343 1.039062 1.046874 1.597656 1.597656 1.058594 1.027344 2.152344 2.019531 3.273438 2.976562.535156.457032 1.0625.921875 1.597656 1.363282 1.234375.988281 2.496094 1.925781 3.792969 2.828124.480469.347657.953125.707032 1.449219 1.042969 2.523437 1.664063 5.144531 3.171875 7.855468 4.511719v15.566406c.03125 1.175782.152344 2.347656.359375 3.503906h-7.863281c-13.253906 0-24 10.746094-24 24v64h-240v-320.039062zm196.128906 89.871094-10.601562-12 24-21.175782 10.800781 12.226563c-9.527343 5.089844-17.796875 12.25-24.199219 20.949219zm10.398438 166.128906c0-4.417969 3.582031-8 8-8h8v72h-16zm32-25.023438v-12.199218c.695312.152344 1.398438.292968 2.105469.421875 1.4375.273437 2.894531.488281 4.359375.671875.75.097656 1.496094.21875 2.253906.289062 2.242188.207032 4.496094.335938 6.777344.335938s4.542968-.128906 6.785156-.335938c.796875-.070312 1.503906-.191406 2.253906-.289062 1.464844-.183594 2.921875-.398438 4.359375-.671875.867188-.160157 1.722657-.351563 2.578125-.542969v9.847656c.003906 2.097656-.824218 4.109375-2.296875 5.601563-.136719.117187-.296875.191406-.414062.320312-1.445313 1.324219-3.328125 2.070313-5.289063 2.085938h-16c-3.425781-.035157-6.441406-2.269531-7.472656-5.535157zm39.496094-74.480468h-48v-32h48zm-31.496094-204.496094c13.253906 0 24 10.746094 24 24v86.480469c-10.503906-2.554688-21.457031-2.644531-32-.257813v-70.222656c0-4.417969-3.582031-8-8-8h-56v-32zm-232-24c0-4.417969 3.582031-8 8-8h128c4.417969 0 8 3.582031 8 8v64c0 4.417969-3.582031 8-8 8h-128c-4.417969 0-8-3.582031-8-8zm-112 424v-376c0-13.253906 10.746094-24 24-24h72v32h-56c-4.417969 0-8 3.582031-8 8v336c0 4.417969 3.582031 8 8 8h248v32h-272c-8.835938 0-16-7.164062-16-16zm304 16v-32h24c4.417969 0 8-3.582031 8-8v-76.800781c2.410156.835937 4.941406 1.28125 7.496094 1.3125h16c2.910156-.007813 5.789062-.550781 8.503906-1.601563v101.089844c0 8.835938-7.164062 16-16 16zm88-120c4.417969 0 8 3.582031 8 8v112h-20.449219c2.878907-4.84375 4.417969-10.367188 4.449219-16v-104zm17.128906-158.480469c-6.457031-8.660156-14.769531-15.769531-24.328125-20.800781l11.414063-12.917969 24 21.167969zm0 0"/><path d="m144.5 296h112c13.253906 0 24-10.746094 24-24s-10.746094-24-24-24h-1.855469l-26.296875-98.601562c-3.335937-12.644532-14.769531-21.453126-27.847656-21.453126s-24.511719 8.808594-27.847656 21.453126l-26.296875 98.601562h-1.855469c-13.253906 0-24 10.746094-24 24s10.746094 24 24 24zm43.601562-142.480469c1.449219-5.664062 6.550782-9.625 12.398438-9.625s10.949219 3.960938 12.398438 9.625l25.203124 94.480469h-75.203124zm-43.601562 110.480469h112c4.417969 0 8 3.582031 8 8s-3.582031 8-8 8h-112c-4.417969 0-8-3.582031-8-8s3.582031-8 8-8zm0 0"/><path d="m96.5 392h48c4.417969 0 8-3.582031 8-8v-30l36.800781-27.601562c3.535157-2.648438 4.25-7.664063 1.597657-11.199219-2.648438-3.535157-7.664063-4.25-11.199219-1.597657l-27.550781 20.664063c-.757813-3.628906-3.941407-6.238281-7.648438-6.265625h-48c-.296875.042969-.589844.101562-.878906.175781-.542969.050781-1.082032.164063-1.601563.328125-.515625.183594-1.011719.417969-1.480469.703125-.261718.160157-.558593.207031-.800781.394531-.238281.183594-.214843.277344-.351562.398438-.417969.375-.792969.796875-1.117188 1.257812-.304687.371094-.574219.773438-.800781 1.199219-.207031.445313-.371094.914063-.488281 1.390625-.164063.519532-.273438 1.058594-.320313 1.601563 0 .191406-.113281.351562-.113281.542969v48c-.003906 4.402343 3.550781 7.980468 7.953125 8.007812zm40-16h-32v-16l9.601562 12.800781c2.648438 3.535157 7.664063 4.25 11.199219 1.597657l11.199219-8.398438zm0-30-14.398438 10.800781-9.601562-12.800781h24zm0 0"/><path d="m192.5 344h96v16h-96zm0 0"/><path d="m192.5 376h96v16h-96zm0 0"/><path d="m96.5 128h16v16h-16zm0 0"/><path d="m96.5 160h16v16h-16zm0 0"/><path d="m96.5 192h16v16h-16zm0 0"/></svg>