<svg height="480pt" viewBox="-128 0 480 480.00023" width="480pt" xmlns="http://www.w3.org/2000/svg"><path d="m216.398438 185.097656c4.984374-10.007812 7.585937-21.03125 7.601562-32.210937v-48.886719c-.027344-22.082031-17.917969-39.972656-40-40 0-13.253906-10.746094-24-24-24h-14.238281c6.390625-7.007812 8.03125-17.132812 4.183593-25.800781-3.847656-8.667969-12.460937-14.2421878-21.945312-14.199219h-32c-11.675781-.0234375-21.664062 8.378906-23.644531 19.886719-1.976563 11.507812 4.632812 22.761719 15.644531 26.640625v17.472656h-48c-22.082031.027344-39.9726562 17.917969-40 40v48.886719c.015625 11.179687 2.617188 22.203125 7.601562 32.210937l1.140626 2.277344c8.960937 18.03125 8.960937 39.21875 0 57.25l-1.140626 2.277344c-4.984374 10.007812-7.585937 21.03125-7.601562 32.210937v144.886719c0 .859375.136719 1.714844.40625 2.527344l16 48c1.089844 3.269531 4.148438 5.472656 7.59375 5.472656h176c3.445312 0 6.503906-2.203125 7.59375-5.472656l16-48c.269531-.8125.40625-1.667969.40625-2.527344v-144.886719c-.015625-11.179687-2.617188-22.203125-7.601562-32.210937l-1.140626-2.277344c-8.960937-18.03125-8.960937-39.21875 0-57.25zm-8.398438 136.503906-192 44.34375v-31.546874l192-44.308594zm-192 60.796876 192-44.308594v23.511718l-192 44.34375zm186.089844-204.460938-1.144532 2.277344c-10.511718 21.253906-11.097656 46.0625-1.601562 67.785156h-7.34375v16h13.824219c.902343 3.171875 1.523437 6.421875 1.855469 9.703125l-191.679688 44.242187v-38.832031c.007812-8.695312 2.03125-17.269531 5.914062-25.050781l1.140626-2.277344c11.203124-22.542968 11.203124-49.027344 0-71.570312l-1.140626-2.277344c-.3125-.625-.539062-1.296875-.800781-1.9375h50.886719c4.417969 0 8-3.582031 8-8s-3.582031-8-8-8h-55.511719c-.316406-2.359375-.476562-4.734375-.488281-7.113281v-24.886719h192v24.886719c-.007812 8.695312-2.03125 17.269531-5.910156 25.050781zm-34.089844-113.9375h-32v-8h24c4.417969 0 8 3.582031 8 8zm-72-48h32c4.417969 0 8 3.582031 8 8s-3.582031 8-8 8h-32c-4.417969 0-8-3.582031-8-8s3.582031-8 8-8zm8 32h16v16h-16zm-88 56c0-13.253906 10.746094-24 24-24h144c13.253906 0 24 10.746094 24 24v8h-192zm178.230469 360h-164.460938l-13.769531-41.296875v-.304687l192-44.308594v37.910156h-56c-4.417969 0-8 3.582031-8 8s3.582031 8 8 8h52.902344zm0 0"/><path d="m120 160h-16c-4.417969 0-8 3.582031-8 8s3.582031 8 8 8h16c4.417969 0 8-3.582031 8-8s-3.582031-8-8-8zm0 0"/><path d="m120 416h-16c-4.417969 0-8 3.582031-8 8s3.582031 8 8 8h16c4.417969 0 8-3.582031 8-8s-3.582031-8-8-8zm0 0"/><path d="m128 248h16v16h-16zm0 0"/><path d="m160 248h16v16h-16zm0 0"/></svg>