<svg height="480pt" viewBox="0 0 480 480" width="480pt" xmlns="http://www.w3.org/2000/svg"><path d="m240 216c-13.253906 0-24 10.746094-24 24s10.746094 24 24 24 24-10.746094 24-24-10.746094-24-24-24zm0 32c-4.417969 0-8-3.582031-8-8s3.582031-8 8-8 8 3.582031 8 8-3.582031 8-8 8zm0 0"/><path d="m240 64c-97.203125 0-176 78.796875-176 176s78.796875 176 176 176 176-78.796875 176-176c-.109375-97.15625-78.84375-175.890625-176-176zm128.65625 81.289062-54.710938 54.710938h-33.945312v-33.945312l54.710938-54.710938c12.949218 9.554688 24.390624 20.996094 33.945312 33.945312zm31.34375 94.710938c-.058594 8.039062-.730469 16.0625-2 24h-77.433594l-24.566406-24.601562.601562.601562 24-24h77.398438c1.269531 7.9375 1.941406 15.960938 2 24zm-5.265625 40c-3.726563 14.4375-9.46875 28.277344-17.054687 41.113281l-41.113282-41.113281zm-312.734375-16c-2.667969-15.890625-2.667969-32.109375 0-48h77.433594l24 24-24 24zm61.433594 16-41.113282 41.113281c-7.585937-12.835937-13.328124-26.675781-17.054687-41.113281zm-58.167969-80c3.726563-14.4375 9.46875-28.277344 17.054687-41.113281l41.113282 41.113281zm154.734375 80c-22.089844 0-40-17.910156-40-40s17.910156-40 40-40 40 17.910156 40 40c-.027344 22.082031-17.917969 39.972656-40 40zm50.519531-64h7.425781l-5.242187 5.246094c-.636719-1.78125-1.367187-3.535156-2.183594-5.246094zm-31.757812-28.695312 5.238281-5.25v7.425781c-1.707031-.804688-3.453125-1.53125-5.238281-2.175781zm-42.761719 2.175781v-7.417969l5.238281 5.242188c-1.789062.640624-3.535156 1.363281-5.238281 2.175781zm-28.703125 31.765625-5.242187-5.246094h7.425781c-.816407 1.710938-1.546875 3.464844-2.183594 5.246094zm0 37.507812c.636719 1.78125 1.367187 3.535156 2.183594 5.246094h-7.425781zm33.941406 33.941406-5.238281 5.25v-7.425781c1.707031.816407 3.457031 1.542969 5.238281 2.175781zm42.761719-2.175781v7.425781l-5.238281-5.25c1.78125-.632812 3.53125-1.359374 5.238281-2.175781zm28.703125-31.765625 5.242187 5.246094h-7.425781c.816407-1.710938 1.546875-3.464844 2.183594-5.246094zm43.863281-58.753906 41.113282-41.113281c7.585937 12.835937 13.328124 26.675781 17.054687 41.113281zm-56.566406-56.566406v-58.167969c14.4375 3.726563 28.277344 9.46875 41.113281 17.054687zm-16-61.433594v77.433594l-24 24-24-24v-77.433594c15.890625-2.667969 32.109375-2.667969 48 0zm-64 61.433594-41.105469-41.113282c12.835938-7.585937 26.671875-13.328124 41.105469-17.054687zm-54.710938-32.089844 54.710938 54.71875v33.9375h-33.945312l-54.710938-54.710938c9.554688-12.949218 20.996094-24.390624 33.945312-33.945312zm-33.945312 223.367188 54.710938-54.710938h33.945312v33.945312l-54.710938 54.710938c-12.949218-9.554688-24.390624-20.996094-33.945312-33.945312zm88.65625 1.855468v58.167969c-14.433594-3.726563-28.269531-9.46875-41.105469-17.054687zm16 61.433594v-77.433594l24-24 24 24v77.433594c-15.890625 2.667969-32.109375 2.667969-48 0zm64-61.433594 41.105469 41.113282c-12.835938 7.585937-26.671875 13.328124-41.105469 17.054687zm54.710938 32.089844-54.710938-54.710938v-33.945312h33.945312l54.710938 54.710938c-9.554688 12.949218-20.996094 24.390624-33.945312 33.945312zm0 0"/><path d="m381.054688 87.144531c-54.507813-51.03125-132.1875-68.933593-203.53125-46.902343-71.34375 22.035156-125.402344 80.617187-141.644532 153.496093-16.242187 72.882813 7.828125 148.875 63.066406 199.117188 38.285157 35.535156 88.617188 55.242187 140.855469 55.144531 2.839844 0 5.695313-.046875 8.542969-.167969 84.058594-3.378906 157.804688-57.058593 186.855469-136.007812 29.046875-78.949219 7.679687-167.625-54.144531-224.679688zm-133.351563 344.703125c-105.953125 4.253906-195.296875-78.1875-199.550781-184.144531-4.253906-105.953125 78.1875-195.296875 184.144531-199.550781 2.640625-.105469 5.261719-.152344 7.886719-.152344 104.527344.0625 189.796875 83.730469 191.847656 188.238281 2.046875 104.507813-79.882812 191.453125-184.328125 195.609375zm0 0"/><path d="m240 0c-132.546875 0-240 107.453125-240 240s107.453125 240 240 240 240-107.453125 240-240c-.148438-132.484375-107.515625-239.851562-240-240zm0 464c-123.710938 0-224-100.289062-224-224s100.289062-224 224-224 224 100.289062 224 224c-.140625 123.652344-100.347656 223.859375-224 224zm0 0"/></svg>